<?xml version="1.0" standalone="no"?>
<!DOCTYPE svg PUBLIC "-//W3C//DTD SVG 20010904//EN"
 "http://www.w3.org/TR/2001/REC-SVG-20010904/DTD/svg10.dtd">
<svg version="1.0" xmlns="http://www.w3.org/2000/svg"
 width="127.000000pt" height="177.000000pt" viewBox="0 0 127.000000 177.000000"
 preserveAspectRatio="xMidYMid meet">
<metadata>
Created by potrace 1.10, written by Peter Selinger 2001-2011
</metadata>
<g transform="translate(0.000000,177.000000) scale(0.100000,-0.100000)"
fill="#000000" stroke="none">
<path d="M472 1744 c-91 -24 -176 -79 -209 -134 -9 -16 -25 -31 -35 -33 -32
-9 -59 -90 -65 -193 -5 -71 -9 -94 -20 -94 -21 0 -43 -62 -43 -120 0 -51 22
-106 72 -180 13 -19 29 -64 37 -100 18 -91 65 -175 124 -222 27 -21 53 -38 59
-38 7 0 9 -25 6 -71 -6 -85 -22 -105 -146 -186 -55 -36 -82 -59 -78 -68 5 -14
-30 -30 -137 -65 -25 -8 -35 -16 -29 -22 6 -6 43 3 103 26 79 29 95 33 111 22
17 -12 16 -16 -21 -49 -22 -19 -51 -43 -65 -52 -24 -16 -27 -35 -6 -35 5 0 48
39 95 86 75 75 88 84 103 73 9 -7 7 -2 -6 12 l-23 24 -25 -28 c-24 -28 -24
-28 -49 -10 -13 10 -24 20 -25 23 0 3 28 22 61 43 49 30 64 35 75 26 21 -17 8
-24 -13 -8 -16 12 -17 12 -6 -2 7 -9 11 -18 8 -21 -3 -3 3 -11 12 -19 10 -7
15 -10 11 -5 -4 5 -3 17 2 26 7 13 5 21 -5 30 -16 14 -10 34 7 24 6 -4 8 -2 5
3 -4 6 0 17 9 24 14 12 15 9 10 -25 -3 -21 -10 -46 -16 -55 -5 -10 -7 -20 -5
-23 3 -3 0 -19 -6 -37 -9 -26 -14 -30 -26 -20 -12 10 -13 8 -9 -16 3 -15 12
-35 20 -44 8 -9 15 -25 15 -36 0 -41 28 -139 40 -143 9 -3 11 2 6 17 -9 28 -1
27 43 -8 20 -16 48 -31 61 -34 28 -7 27 -6 -57 57 -40 30 -62 54 -62 67 0 11
4 18 9 14 18 -10 101 -22 101 -14 0 9 -65 29 -96 29 -37 0 -38 69 -4 206 19
73 30 145 30 186 l0 67 48 -16 c26 -9 59 -24 74 -35 47 -33 79 -33 154 0 38
17 81 34 97 37 25 7 27 5 27 -24 0 -43 18 -161 39 -256 23 -103 18 -163 -16
-176 -13 -5 -40 -9 -59 -9 -19 0 -34 -5 -34 -11 0 -8 18 -10 55 -7 73 6 72 -9
-2 -63 -76 -55 -84 -63 -53 -54 14 4 39 18 57 31 39 29 43 30 36 3 -4 -15 -2
-20 7 -17 7 2 15 13 16 24 1 10 8 46 14 79 6 33 13 72 14 87 2 15 9 35 17 44
8 10 9 15 3 11 -13 -8 -39 46 -30 62 4 5 2 12 -3 16 -5 3 -10 13 -10 23 0 9
-3 31 -7 47 -7 27 -6 29 10 16 9 -8 15 -20 12 -28 -3 -8 -1 -11 4 -8 9 6 150
-74 150 -85 -1 -3 -12 -13 -26 -24 -26 -19 -26 -19 -49 10 -13 16 -26 26 -30
22 -18 -18 155 -188 191 -188 14 0 11 7 -16 33 -19 18 -37 33 -40 34 -3 0 -9
1 -14 2 -5 0 -2 9 5 18 12 16 12 17 -2 6 -22 -18 -58 19 -40 41 10 12 26 9
109 -21 116 -41 113 -41 119 -27 2 6 -16 16 -39 23 -100 30 -147 52 -142 66 4
9 -23 32 -78 68 -86 55 -138 106 -139 135 0 9 -4 39 -8 65 l-8 48 51 33 c101
66 155 144 175 253 6 27 29 82 52 122 28 48 44 90 47 120 5 60 -14 132 -37
138 -15 4 -19 19 -24 96 -5 89 -34 187 -55 187 -5 0 -36 26 -69 58 -66 64
-119 94 -208 117 -73 19 -222 19 -293 -1z m259 -14 c79 -15 167 -62 223 -119
l49 -50 -13 -54 c-11 -47 -10 -65 3 -128 9 -41 18 -90 19 -109 3 -30 7 -35 27
-34 l24 1 -7 -122 c-10 -203 -31 -286 -89 -358 -38 -49 -131 -110 -200 -133
-29 -9 -66 -25 -83 -35 -41 -25 -106 -25 -128 0 -10 10 -38 24 -63 30 -107 27
-195 97 -234 186 -28 64 -47 175 -53 313 l-5 122 24 -6 c23 -6 25 -3 25 27 0
18 7 71 17 119 15 79 15 91 1 134 l-15 47 44 50 c25 27 65 61 88 75 80 46 230
66 346 44z m-480 -222 c13 -50 1 -144 -19 -140 -14 2 -16 -10 -3 -23 5 -6 6
-29 2 -53 -6 -41 -7 -42 -27 -28 -14 10 -21 27 -22 48 -1 31 0 32 14 14 7 -11
16 -17 19 -15 3 3 -3 14 -13 25 -25 26 -20 108 10 187 15 38 25 34 39 -15z
m797 15 c14 -36 31 -122 30 -148 -1 -11 -10 -28 -20 -39 -10 -11 -15 -22 -12
-25 3 -3 10 2 15 12 14 24 33 23 20 -2 -6 -10 -7 -21 -4 -25 6 -6 -25 -46 -37
-46 -3 0 -7 17 -8 37 -2 21 -5 39 -7 42 -3 2 3 13 12 24 17 19 17 20 1 14 -18
-6 -21 0 -33 59 -6 33 12 124 25 124 4 0 12 -12 18 -27z m-880 -266 c7 -7 11
-47 11 -88 0 -41 2 -96 6 -124 l5 -50 -34 70 c-37 73 -44 120 -25 174 12 34
21 38 37 18z m961 -18 c18 -52 13 -98 -20 -166 -17 -35 -33 -63 -35 -60 -2 2
1 28 6 58 6 30 8 67 4 82 -5 27 9 57 27 57 4 0 10 -21 12 -47 l3 -48 2 52 c2
55 -9 73 -33 53 -12 -10 -15 -9 -15 7 0 19 17 43 31 43 4 0 12 -14 18 -31z"/>
<path d="M430 1294 c-8 -1 -49 -8 -90 -15 -92 -15 -72 -23 81 -33 91 -5 108
-4 113 9 14 38 -31 56 -104 39z m74 -12 c3 7 5 4 3 -7 -2 -18 -10 -21 -47 -16
-5 0 -10 6 -10 12 0 8 6 7 17 -2 15 -12 16 -12 10 5 -6 15 -5 17 7 7 11 -9 15
-9 20 1z"/>
<path d="M727 1286 c-4 -9 -4 -23 -1 -31 5 -13 22 -14 113 -9 152 10 173 18
87 33 -132 23 -192 25 -199 7z m33 -7 c0 -8 5 -7 15 1 13 11 14 10 8 -6 -6
-17 -5 -17 10 -5 11 9 17 10 17 2 0 -6 -3 -11 -7 -12 -5 0 -16 -2 -26 -4 -9
-2 -22 5 -27 16 -7 13 -7 19 0 19 5 0 10 -5 10 -11z"/>
<path d="M570 1273 c0 -7 4 -23 10 -37 5 -15 6 -42 1 -68 -5 -24 -9 -36 -10
-26 -1 9 -15 28 -32 42 -25 21 -41 26 -85 26 -31 0 -65 -5 -77 -11 -36 -19
-86 -71 -81 -84 3 -7 1 -16 -5 -20 -6 -3 -11 -11 -11 -17 0 -7 5 -6 14 1 18
15 51 -4 84 -49 39 -52 121 -58 167 -13 l25 26 0 -41 c0 -22 4 -44 10 -47 6
-4 8 10 4 39 -4 24 -4 56 0 70 5 22 12 26 45 26 36 0 40 -3 46 -30 4 -17 4
-49 0 -73 -4 -31 -3 -38 4 -27 6 8 11 28 11 43 l0 28 28 -20 c52 -38 105 -31
152 18 49 52 77 66 96 50 8 -6 14 -7 14 -1 0 5 -6 15 -14 22 -8 6 -13 17 -10
24 3 8 -14 30 -37 50 -39 33 -48 36 -106 36 -74 0 -97 -10 -122 -51 l-18 -30
-1 46 c-1 25 3 57 9 72 12 33 4 42 -12 11 -7 -13 -12 -50 -11 -85 l3 -63 -30
0 -29 0 -4 75 c-2 41 -9 80 -16 87 -8 8 -12 9 -12 1z m-192 -97 c-15 -13 -24
-27 -20 -32 4 -4 1 -4 -6 0 -8 5 -19 1 -28 -10 -13 -18 -14 -18 -8 -1 6 16 70
68 84 67 3 0 -7 -11 -22 -24z m160 -12 c31 -35 31 -102 -2 -133 -34 -32 -84
-37 -123 -12 -39 25 -43 40 -8 33 14 -2 42 5 64 16 21 11 42 18 45 15 10 -11
7 25 -6 52 -6 14 -15 25 -20 25 -5 0 -7 4 -4 9 3 5 -1 12 -10 15 -8 3 -12 2
-9 -4 7 -12 -1 -12 -35 -3 l-25 7 30 7 c44 10 77 2 103 -27z m233 7 c-12 -16
-24 -44 -27 -63 -4 -25 -3 -29 5 -18 6 8 11 23 11 32 0 9 8 23 19 30 10 7 18
18 17 23 0 6 10 11 24 12 15 1 18 0 7 -3 -9 -3 -15 -9 -12 -14 3 -5 1 -11 -5
-15 -16 -10 -12 -55 6 -55 8 0 12 -4 9 -10 -4 -7 2 -7 18 -1 14 6 28 7 33 3 4
-4 5 -2 1 3 -3 6 -1 17 4 25 7 11 9 7 7 -15 -3 -26 -7 -30 -36 -33 -19 -2 -44
4 -57 12 -34 22 -45 19 -16 -4 13 -11 38 -20 57 -20 38 0 43 -9 17 -33 -42
-37 -128 -25 -152 22 -23 41 -2 114 38 136 43 24 55 19 32 -14z m117 13 c12
-8 20 -20 17 -25 -3 -5 1 -6 9 -3 24 9 38 -29 20 -54 -16 -23 -34 -29 -34 -11
0 6 7 17 15 26 18 17 11 35 -10 26 -8 -3 -15 0 -15 7 0 6 -10 20 -22 31 -28
22 -11 25 20 3z m-396 -50 c11 -23 9 -28 -12 -44 -39 -30 -103 -32 -114 -5 -2
7 -1 26 4 42 l8 28 1 -27 c1 -18 6 -28 17 -28 8 0 12 -5 8 -11 -4 -8 0 -8 15
0 12 7 27 9 34 5 6 -4 9 -4 5 0 -4 5 -3 19 3 33 6 16 6 22 -1 18 -6 -3 -10 -1
-10 4 0 22 31 10 42 -15z"/>
<path d="M701 970 c0 -8 4 -24 8 -35 12 -28 -6 -48 -30 -34 -12 6 -19 6 -19 0
0 -15 -40 -24 -54 -12 -8 6 -20 9 -28 6 -24 -9 -40 18 -28 49 5 14 6 26 1 26
-12 0 -21 -25 -21 -56 0 -17 -6 -24 -19 -24 -24 0 -71 -44 -71 -67 0 -12 8
-18 24 -19 14 -1 44 -18 68 -37 24 -19 54 -38 66 -42 41 -12 92 5 135 44 23
21 50 37 60 36 13 -3 17 4 17 24 0 30 -22 55 -57 65 -13 4 -23 15 -23 24 -1 9
-7 28 -15 42 -8 14 -14 18 -14 10z m-108 -97 c4 -2 5 -16 2 -31 l-5 -27 11 28
c6 15 17 27 25 27 8 0 14 -11 15 -27 l1 -28 7 30 c9 43 38 45 56 3 8 -18 14
-27 15 -20 0 7 -5 22 -10 33 -9 15 -7 21 6 26 10 4 19 2 22 -5 2 -6 9 -9 16
-6 17 6 46 -22 46 -44 -1 -13 -7 -9 -26 13 -20 24 -23 25 -14 6 15 -30 4 -41
-45 -44 -37 -2 -40 0 -42 27 -1 15 -5 31 -8 34 -3 4 -4 -10 -2 -29 l4 -35 -69
0 c-66 0 -79 7 -60 32 4 5 -1 1 -11 -10 -10 -10 -20 -16 -23 -13 -4 3 5 17 19
31 24 24 24 25 3 24 -24 -2 -56 -25 -56 -42 0 -6 7 0 16 12 21 30 38 28 18 -3
-18 -27 -22 -29 -43 -16 -13 8 -13 12 0 27 29 35 93 48 132 27z m23 -83 c32
-1 71 0 87 3 15 2 27 1 27 -3 0 -10 -26 -20 -51 -20 -10 0 -17 -6 -15 -12 1
-7 1 -10 -1 -5 -3 4 -11 7 -18 7 -35 0 -115 23 -109 31 3 5 9 7 13 5 4 -3 34
-6 67 -6z"/>
<path d="M134 1217 c-3 -8 -4 -34 -1 -58 l4 -44 1 49 c2 39 5 47 18 42 10 -4
14 -1 12 6 -6 18 -27 21 -34 5z"/>
<path d="M566 462 c-10 -17 11 -69 31 -77 23 -8 28 2 12 21 -8 9 -19 28 -25
43 -7 18 -12 22 -18 13z"/>
<path d="M887 374 c-4 -4 -3 -12 1 -18 4 -6 7 -20 7 -31 0 -31 19 -24 20 8 1
27 -16 53 -28 41z"/>
</g>
</svg>
