<svg width="284" height="282" viewBox="0 0 284 282" fill="none" xmlns="http://www.w3.org/2000/svg">
<g clip-path="url(#clip0_21_384)">
<mask id="mask0_21_384" style="mask-type:alpha" maskUnits="userSpaceOnUse" x="-96" y="-50" width="380" height="380">
<circle cx="94" cy="140" r="190" fill="#D9D9D9"/>
</mask>
<g mask="url(#mask0_21_384)">
<mask id="mask1_21_384" style="mask-type:alpha" maskUnits="userSpaceOnUse" x="104" y="-44" width="208" height="374">
<path d="M312 -44H104V330H312V-44Z" fill="#D9D9D9"/>
</mask>
<g mask="url(#mask1_21_384)">
<path d="M351.643 36.6887C351.643 36.6887 251.863 36.6887 171.314 36.6887H351.643ZM351.643 36.6887C351.643 36.6887 251.863 36.6887 171.314 36.6887H351.643ZM351.643 36.6887C351.643 36.6887 251.863 36.6887 171.314 36.6887H351.643ZM351.643 36.6887C351.643 36.6887 251.863 36.6887 171.314 36.6887H351.643ZM351.643 36.6887C351.643 36.6887 251.863 36.6887 171.314 36.6887H351.643ZM351.643 36.6887C351.643 36.6887 251.863 36.6887 171.314 36.6887H351.643ZM351.643 36.6887C351.643 36.6887 251.863 36.6887 171.314 36.6887H351.643ZM351.643 36.6887C351.643 36.6887 251.863 36.6887 171.314 36.6887H351.643ZM157.694 3.31502C118.495 3.31502 88.8028 3.31502 88.8028 3.31502H157.694Z" fill="#9E0303"/>
<path d="M366.212 136.689H134.52M363.353 120.01H82.8278M360.493 103.323H161.266M357.625 86.6358H100.513M354.766 69.9565H63.2876" stroke="#B3CAFF" stroke-width="7.61173"/>
<path d="M354.502 53.3679H122.81M351.643 36.6887H71.1182M348.783 20.0018H149.556M157.694 3.31494C118.495 3.31494 88.8033 3.31494 88.8033 3.31494" stroke="#B3CAFF" stroke-width="7.61173"/>
<path d="M185.92 209.358C183.065 209.358 180.555 206.928 180.442 204.053L175.481 83.559C175.456 83.0049 175.512 82.516 175.645 82.078C176.151 80.3985 177.596 79.3604 179.42 79.3604H343.465C346.321 79.3604 348.83 81.7924 348.944 84.6698L353.905 205.164C353.951 206.35 353.566 207.434 352.818 208.208C352.31 208.734 351.405 209.358 349.963 209.358H185.92ZM185.92 209.358C183.065 209.358 180.555 206.928 180.442 204.053L175.481 83.559C175.456 83.0049 175.512 82.516 175.645 82.078C176.151 80.3985 177.596 79.3604 179.42 79.3604H343.465C346.321 79.3604 348.83 81.7924 348.944 84.6698L353.905 205.164C353.951 206.35 353.566 207.434 352.818 208.208C352.31 208.734 351.405 209.358 349.963 209.358H185.92ZM185.92 209.358C183.065 209.358 180.555 206.928 180.442 204.053L175.481 83.559C175.456 83.0049 175.512 82.516 175.645 82.078C176.151 80.3985 177.596 79.3604 179.42 79.3604H343.465C346.321 79.3604 348.83 81.7924 348.944 84.6698L353.905 205.164C353.951 206.35 353.566 207.434 352.818 208.208C352.31 208.734 351.405 209.358 349.963 209.358H185.92ZM185.92 209.358C183.065 209.358 180.555 206.928 180.442 204.053L175.481 83.559C175.456 83.0049 175.512 82.516 175.645 82.078C176.151 80.3985 177.596 79.3604 179.42 79.3604H343.465C346.321 79.3604 348.83 81.7924 348.944 84.6698L353.905 205.164C353.951 206.35 353.566 207.434 352.818 208.208C352.31 208.734 351.405 209.358 349.963 209.358H185.92ZM185.92 209.358C183.065 209.358 180.555 206.928 180.442 204.053L175.481 83.559C175.456 83.0049 175.512 82.516 175.645 82.078C176.151 80.3985 177.596 79.3604 179.42 79.3604H343.465C346.321 79.3604 348.83 81.7924 348.944 84.6698L353.905 205.164C353.951 206.35 353.566 207.434 352.818 208.208C352.31 208.734 351.405 209.358 349.963 209.358H185.92ZM185.92 209.358C183.065 209.358 180.555 206.928 180.442 204.053L175.481 83.559C175.456 83.0049 175.512 82.516 175.645 82.078C176.151 80.3985 177.596 79.3604 179.42 79.3604H343.465C346.321 79.3604 348.83 81.7924 348.944 84.6698L353.905 205.164C353.951 206.35 353.566 207.434 352.818 208.208C352.31 208.734 351.405 209.358 349.963 209.358H185.92ZM185.92 209.358C183.065 209.358 180.555 206.928 180.442 204.053L175.481 83.559C175.456 83.0049 175.512 82.516 175.645 82.078C176.151 80.3985 177.596 79.3604 179.42 79.3604H343.465C346.321 79.3604 348.83 81.7924 348.944 84.6698L353.905 205.164C353.951 206.35 353.566 207.434 352.818 208.208C352.31 208.734 351.405 209.358 349.963 209.358H185.92ZM185.92 209.358C183.065 209.358 180.555 206.928 180.442 204.053L175.481 83.559C175.456 83.0049 175.512 82.516 175.645 82.078C176.151 80.3985 177.596 79.3604 179.42 79.3604H343.465C346.321 79.3604 348.83 81.7924 348.944 84.6698L353.905 205.164C353.951 206.35 353.566 207.434 352.818 208.208C352.31 208.734 351.405 209.358 349.963 209.358H185.92Z" fill="#264A99"/>
<path d="M291.384 162.848H217.361M291.22 157.519H228.873M291.055 152.188H208.589M290.888 146.857H245.116M290.724 141.528H197.6" stroke="#B3E5FF" stroke-width="1.21"/>
<path d="M291.384 136.228H217.361M291.22 130.899H228.873M291.055 125.568H208.589M290.888 120.237H245.116M290.724 114.908H197.6" stroke="#B3E5FF" stroke-width="1.21"/>
<path d="M291.384 109.608H217.361M291.22 104.279H228.873M248.366 98.9478C228.246 98.9478 208.589 98.9478 208.589 98.9478" stroke="#B3E5FF" stroke-width="1.21"/>
<path d="M-29.6915 209.392C-32.5471 209.392 -35.1825 206.96 -35.4438 204.085L-46.6291 83.559C-46.6823 83.0049 -46.6509 82.516 -46.5396 82.078C-46.1209 80.3985 -44.7294 79.3604 -42.9047 79.3604H145.34C148.195 79.3604 150.831 81.7924 151.094 84.6698L162.277 205.193C162.384 206.379 162.055 207.465 161.346 208.24C160.869 208.765 159.993 209.392 158.553 209.392H-29.6915ZM-29.6915 209.392C-32.5471 209.392 -35.1825 206.96 -35.4438 204.085L-46.6291 83.559C-46.6823 83.0049 -46.6509 82.516 -46.5396 82.078C-46.1209 80.3985 -44.7294 79.3604 -42.9047 79.3604H145.34C148.195 79.3604 150.831 81.7924 151.094 84.6698L162.277 205.193C162.384 206.379 162.055 207.465 161.346 208.24C160.869 208.765 159.993 209.392 158.553 209.392H-29.6915ZM-29.6915 209.392C-32.5471 209.392 -35.1825 206.96 -35.4438 204.085L-46.6291 83.559C-46.6823 83.0049 -46.6509 82.516 -46.5396 82.078C-46.1209 80.3985 -44.7294 79.3604 -42.9047 79.3604H145.34C148.195 79.3604 150.831 81.7924 151.094 84.6698L162.277 205.193C162.384 206.379 162.055 207.465 161.346 208.24C160.869 208.765 159.993 209.392 158.553 209.392H-29.6915ZM-29.6915 209.392C-32.5471 209.392 -35.1825 206.96 -35.4438 204.085L-46.6291 83.559C-46.6823 83.0049 -46.6509 82.516 -46.5396 82.078C-46.1209 80.3985 -44.7294 79.3604 -42.9047 79.3604H145.34C148.195 79.3604 150.831 81.7924 151.094 84.6698L162.277 205.193C162.384 206.379 162.055 207.465 161.346 208.24C160.869 208.765 159.993 209.392 158.553 209.392H-29.6915ZM-29.6915 209.392C-32.5471 209.392 -35.1825 206.96 -35.4438 204.085L-46.6291 83.559C-46.6823 83.0049 -46.6509 82.516 -46.5396 82.078C-46.1209 80.3985 -44.7294 79.3604 -42.9047 79.3604H145.34C148.195 79.3604 150.831 81.7924 151.094 84.6698L162.277 205.193C162.384 206.379 162.055 207.465 161.346 208.24C160.869 208.765 159.993 209.392 158.553 209.392H-29.6915ZM-29.6915 209.392C-32.5471 209.392 -35.1825 206.96 -35.4438 204.085L-46.6291 83.559C-46.6823 83.0049 -46.6509 82.516 -46.5396 82.078C-46.1209 80.3985 -44.7294 79.3604 -42.9047 79.3604H145.34C148.195 79.3604 150.831 81.7924 151.094 84.6698L162.277 205.193C162.384 206.379 162.055 207.465 161.346 208.24C160.869 208.765 159.993 209.392 158.553 209.392H-29.6915ZM-29.6915 209.392C-32.5471 209.392 -35.1825 206.96 -35.4438 204.085L-46.6291 83.559C-46.6823 83.0049 -46.6509 82.516 -46.5396 82.078C-46.1209 80.3985 -44.7294 79.3604 -42.9047 79.3604H145.34C148.195 79.3604 150.831 81.7924 151.094 84.6698L162.277 205.193C162.384 206.379 162.055 207.465 161.346 208.24C160.869 208.765 159.993 209.392 158.553 209.392H-29.6915ZM-29.6915 209.392C-32.5471 209.392 -35.1825 206.96 -35.4438 204.085L-46.6291 83.559C-46.6823 83.0049 -46.6509 82.516 -46.5396 82.078C-46.1209 80.3985 -44.7294 79.3604 -42.9047 79.3604H145.34C148.195 79.3604 150.831 81.7924 151.094 84.6698L162.277 205.193C162.384 206.379 162.055 207.465 161.346 208.24C160.869 208.765 159.993 209.392 158.553 209.392H-29.6915Z" fill="#B3CAFF"/>
<path d="M145.882 199.196H40.8106L34.6396 130.463H139.713L145.882 199.196ZM145.882 199.196H40.8106L34.6396 130.463H139.713L145.882 199.196ZM145.882 199.196H40.8106L34.6396 130.463H139.713L145.882 199.196ZM145.882 199.196H40.8106L34.6396 130.463H139.713L145.882 199.196ZM145.882 199.196H40.8106L34.6396 130.463H139.713L145.882 199.196ZM145.882 199.196H40.8106L34.6396 130.463H139.713L145.882 199.196ZM145.882 199.196H40.8106L34.6396 130.463H139.713L145.882 199.196ZM145.882 199.196H40.8106L34.6396 130.463H139.713L145.882 199.196ZM141.729 195.757H44.3462L39.6394 143.35H137.025L141.729 195.757ZM141.729 195.757H44.3462L39.6394 143.35H137.025L141.729 195.757ZM141.729 195.757H44.3462L39.6394 143.35H137.025L141.729 195.757ZM141.729 195.757H44.3462L39.6394 143.35H137.025L141.729 195.757ZM141.729 195.757H44.3462L39.6394 143.35H137.025L141.729 195.757ZM141.729 195.757H44.3462L39.6394 143.35H137.025L141.729 195.757ZM141.729 195.757H44.3462L39.6394 143.35H137.025L141.729 195.757ZM141.729 195.757H44.3462L39.6394 143.35H137.025L141.729 195.757Z" fill="#407AFF"/>
<path d="M141.729 195.758H44.3461L39.6392 143.35H137.024L141.729 195.758ZM141.729 195.758H44.3461L39.6392 143.35H137.024L141.729 195.758ZM141.729 195.758H44.3461L39.6392 143.35H137.024L141.729 195.758ZM141.729 195.758H44.3461L39.6392 143.35H137.024L141.729 195.758ZM141.729 195.758H44.3461L39.6392 143.35H137.024L141.729 195.758ZM141.729 195.758H44.3461L39.6392 143.35H137.024L141.729 195.758ZM141.729 195.758H44.3461L39.6392 143.35H137.024L141.729 195.758ZM141.729 195.758H44.3461L39.6392 143.35H137.024L141.729 195.758Z" fill="#253138"/>
<path d="M-11.6121 250.757L-9.22357 241.732L121.413 241.723L166.602 246.236L168.322 250.747L-11.6121 250.757ZM-11.6121 250.757L-9.22357 241.732L121.413 241.723L166.602 246.236L168.322 250.747L-11.6121 250.757ZM-11.6121 250.757L-9.22357 241.732L121.413 241.723L166.602 246.236L168.322 250.747L-11.6121 250.757ZM-11.6121 250.757L-9.22357 241.732L121.413 241.723L166.602 246.236L168.322 250.747L-11.6121 250.757ZM-11.6121 250.757L-9.22357 241.732L121.413 241.723L166.602 246.236L168.322 250.747L-11.6121 250.757ZM-11.6121 250.757L-9.22357 241.732L121.413 241.723L166.602 246.236L168.322 250.747L-11.6121 250.757ZM-11.6121 250.757L-9.22357 241.732L121.413 241.723L166.602 246.236L168.322 250.747L-11.6121 250.757ZM-11.6121 250.757L-9.22357 241.732L121.413 241.723L166.602 246.236L168.322 250.747L-11.6121 250.757ZM131.625 246.725L121.5 250.749H-12.3623L-9.18244 241.723L4.00172 246.725H131.625ZM131.625 246.725L121.5 250.749H-12.3623L-9.18244 241.723L4.00172 246.725H131.625ZM131.625 246.725L121.5 250.749H-12.3623L-9.18244 241.723L4.00172 246.725H131.625ZM131.625 246.725L121.5 250.749H-12.3623L-9.18244 241.723L4.00172 246.725H131.625ZM131.625 246.725L121.5 250.749H-12.3623L-9.18244 241.723L4.00172 246.725H131.625ZM131.625 246.725L121.5 250.749H-12.3623L-9.18244 241.723L4.00172 246.725H131.625ZM131.625 246.725L121.5 250.749H-12.3623L-9.18244 241.723L4.00172 246.725H131.625ZM131.625 246.725L121.5 250.749H-12.3623L-9.18244 241.723L4.00172 246.725H131.625Z" fill="#70797F"/>
<path d="M131.625 246.725L121.5 250.749H-12.3623L-9.18244 241.723L4.00172 246.725H131.625ZM131.625 246.725L121.5 250.749H-12.3623L-9.18244 241.723L4.00172 246.725H131.625ZM131.625 246.725L121.5 250.749H-12.3623L-9.18244 241.723L4.00172 246.725H131.625ZM131.625 246.725L121.5 250.749H-12.3623L-9.18244 241.723L4.00172 246.725H131.625ZM131.625 246.725L121.5 250.749H-12.3623L-9.18244 241.723L4.00172 246.725H131.625ZM131.625 246.725L121.5 250.749H-12.3623L-9.18244 241.723L4.00172 246.725H131.625ZM131.625 246.725L121.5 250.749H-12.3623L-9.18244 241.723L4.00172 246.725H131.625ZM131.625 246.725L121.5 250.749H-12.3623L-9.18244 241.723L4.00172 246.725H131.625Z" fill="#515B60"/>
<path d="M183.833 229.897L168.603 222.484C168.603 222.484 150.519 220.957 144.378 221.923C142.351 222.24 136.268 232.537 137.44 231.196C135.091 234.197 133.044 240.387 135.256 241.563C139.532 243.838 138.073 237.599 142.526 232.515C140.73 235.771 137.918 240.589 140.425 241.595C145.294 243.551 148.142 235.405 149.957 235.098C152.181 234.72 153.245 234.325 154.943 234.803C155.761 236.149 148.534 238.955 151.852 241.264C156.887 244.765 158.85 236.428 165.434 240.965C166.534 241.723 162.82 239.81 162.82 239.81L179.969 242.581C179.969 242.581 188.812 241.199 189.886 237.671C190.842 234.53 183.833 229.897 183.833 229.897ZM183.833 229.897L168.603 222.484C168.603 222.484 150.519 220.957 144.378 221.923C142.351 222.24 136.268 232.537 137.44 231.196C135.091 234.197 133.044 240.387 135.256 241.563C139.532 243.838 138.073 237.599 142.526 232.515C140.73 235.771 137.918 240.589 140.425 241.595C145.294 243.551 148.142 235.405 149.957 235.098C152.181 234.72 153.245 234.325 154.943 234.803C155.761 236.149 148.534 238.955 151.852 241.264C156.887 244.765 158.85 236.428 165.434 240.965C166.534 241.723 162.82 239.81 162.82 239.81L179.969 242.581C179.969 242.581 188.812 241.199 189.886 237.671C190.842 234.53 183.833 229.897 183.833 229.897ZM183.833 229.897L168.603 222.484C168.603 222.484 150.519 220.957 144.378 221.923C142.351 222.24 136.268 232.537 137.44 231.196C135.091 234.197 133.044 240.387 135.256 241.563C139.532 243.838 138.073 237.599 142.526 232.515C140.73 235.771 137.918 240.589 140.425 241.595C145.294 243.551 148.142 235.405 149.957 235.098C152.181 234.72 153.245 234.325 154.943 234.803C155.761 236.149 148.534 238.955 151.852 241.264C156.887 244.765 158.85 236.428 165.434 240.965C166.534 241.723 162.82 239.81 162.82 239.81L179.969 242.581C179.969 242.581 188.812 241.199 189.886 237.671C190.842 234.53 183.833 229.897 183.833 229.897ZM183.833 229.897L168.603 222.484C168.603 222.484 150.519 220.957 144.378 221.923C142.351 222.24 136.268 232.537 137.44 231.196C135.091 234.197 133.044 240.387 135.256 241.563C139.532 243.838 138.073 237.599 142.526 232.515C140.73 235.771 137.918 240.589 140.425 241.595C145.294 243.551 148.142 235.405 149.957 235.098C152.181 234.72 153.245 234.325 154.943 234.803C155.761 236.149 148.534 238.955 151.852 241.264C156.887 244.765 158.85 236.428 165.434 240.965C166.534 241.723 162.82 239.81 162.82 239.81L179.969 242.581C179.969 242.581 188.812 241.199 189.886 237.671C190.842 234.53 183.833 229.897 183.833 229.897ZM183.833 229.897L168.603 222.484C168.603 222.484 150.519 220.957 144.378 221.923C142.351 222.24 136.268 232.537 137.44 231.196C135.091 234.197 133.044 240.387 135.256 241.563C139.532 243.838 138.073 237.599 142.526 232.515C140.73 235.771 137.918 240.589 140.425 241.595C145.294 243.551 148.142 235.405 149.957 235.098C152.181 234.72 153.245 234.325 154.943 234.803C155.761 236.149 148.534 238.955 151.852 241.264C156.887 244.765 158.85 236.428 165.434 240.965C166.534 241.723 162.82 239.81 162.82 239.81L179.969 242.581C179.969 242.581 188.812 241.199 189.886 237.671C190.842 234.53 183.833 229.897 183.833 229.897ZM183.833 229.897L168.603 222.484C168.603 222.484 150.519 220.957 144.378 221.923C142.351 222.24 136.268 232.537 137.44 231.196C135.091 234.197 133.044 240.387 135.256 241.563C139.532 243.838 138.073 237.599 142.526 232.515C140.73 235.771 137.918 240.589 140.425 241.595C145.294 243.551 148.142 235.405 149.957 235.098C152.181 234.72 153.245 234.325 154.943 234.803C155.761 236.149 148.534 238.955 151.852 241.264C156.887 244.765 158.85 236.428 165.434 240.965C166.534 241.723 162.82 239.81 162.82 239.81L179.969 242.581C179.969 242.581 188.812 241.199 189.886 237.671C190.842 234.53 183.833 229.897 183.833 229.897ZM183.833 229.897L168.603 222.484C168.603 222.484 150.519 220.957 144.378 221.923C142.351 222.24 136.268 232.537 137.44 231.196C135.091 234.197 133.044 240.387 135.256 241.563C139.532 243.838 138.073 237.599 142.526 232.515C140.73 235.771 137.918 240.589 140.425 241.595C145.294 243.551 148.142 235.405 149.957 235.098C152.181 234.72 153.245 234.325 154.943 234.803C155.761 236.149 148.534 238.955 151.852 241.264C156.887 244.765 158.85 236.428 165.434 240.965C166.534 241.723 162.82 239.81 162.82 239.81L179.969 242.581C179.969 242.581 188.812 241.199 189.886 237.671C190.842 234.53 183.833 229.897 183.833 229.897ZM183.833 229.897L168.603 222.484C168.603 222.484 150.519 220.957 144.378 221.923C142.351 222.24 136.268 232.537 137.44 231.196C135.091 234.197 133.044 240.387 135.256 241.563C139.532 243.838 138.073 237.599 142.526 232.515C140.73 235.771 137.918 240.589 140.425 241.595C145.294 243.551 148.142 235.405 149.957 235.098C152.181 234.72 153.245 234.325 154.943 234.803C155.761 236.149 148.534 238.955 151.852 241.264C156.887 244.765 158.85 236.428 165.434 240.965C166.534 241.723 162.82 239.81 162.82 239.81L179.969 242.581C179.969 242.581 188.812 241.199 189.886 237.671C190.842 234.53 183.833 229.897 183.833 229.897ZM186.967 226.9L169.981 217.768C169.981 217.768 155.512 214.075 149.371 215.041C147.344 215.359 136.082 219.397 132.565 223.056C125.421 230.487 125.781 240.166 129.166 240.641C131.985 241.037 130.895 236.304 132.477 232.904C133.448 230.749 136.268 232.537 137.44 231.196C143.395 231.806 150.743 235.976 152.548 236.338C158.116 237.451 158.85 236.428 165.434 240.965C166.534 241.723 162.82 239.81 162.82 239.81L178.641 246.5C178.641 246.5 190.905 244.448 192.98 239.562C194.808 235.261 186.967 226.9 186.967 226.9ZM186.967 226.9L169.981 217.768C169.981 217.768 155.512 214.075 149.371 215.041C147.344 215.359 136.082 219.397 132.565 223.056C125.421 230.487 125.781 240.166 129.166 240.641C131.985 241.037 130.895 236.304 132.477 232.904C133.448 230.749 136.268 232.537 137.44 231.196C143.395 231.806 150.743 235.976 152.548 236.338C158.116 237.451 158.85 236.428 165.434 240.965C166.534 241.723 162.82 239.81 162.82 239.81L178.641 246.5C178.641 246.5 190.905 244.448 192.98 239.562C194.808 235.261 186.967 226.9 186.967 226.9ZM186.967 226.9L169.981 217.768C169.981 217.768 155.512 214.075 149.371 215.041C147.344 215.359 136.082 219.397 132.565 223.056C125.421 230.487 125.781 240.166 129.166 240.641C131.985 241.037 130.895 236.304 132.477 232.904C133.448 230.749 136.268 232.537 137.44 231.196C143.395 231.806 150.743 235.976 152.548 236.338C158.116 237.451 158.85 236.428 165.434 240.965C166.534 241.723 162.82 239.81 162.82 239.81L178.641 246.5C178.641 246.5 190.905 244.448 192.98 239.562C194.808 235.261 186.967 226.9 186.967 226.9ZM186.967 226.9L169.981 217.768C169.981 217.768 155.512 214.075 149.371 215.041C147.344 215.359 136.082 219.397 132.565 223.056C125.421 230.487 125.781 240.166 129.166 240.641C131.985 241.037 130.895 236.304 132.477 232.904C133.448 230.749 136.268 232.537 137.44 231.196C143.395 231.806 150.743 235.976 152.548 236.338C158.116 237.451 158.85 236.428 165.434 240.965C166.534 241.723 162.82 239.81 162.82 239.81L178.641 246.5C178.641 246.5 190.905 244.448 192.98 239.562C194.808 235.261 186.967 226.9 186.967 226.9ZM186.967 226.9L169.981 217.768C169.981 217.768 155.512 214.075 149.371 215.041C147.344 215.359 136.082 219.397 132.565 223.056C125.421 230.487 125.781 240.166 129.166 240.641C131.985 241.037 130.895 236.304 132.477 232.904C133.448 230.749 136.268 232.537 137.44 231.196C143.395 231.806 150.743 235.976 152.548 236.338C158.116 237.451 158.85 236.428 165.434 240.965C166.534 241.723 162.82 239.81 162.82 239.81L178.641 246.5C178.641 246.5 190.905 244.448 192.98 239.562C194.808 235.261 186.967 226.9 186.967 226.9ZM186.967 226.9L169.981 217.768C169.981 217.768 155.512 214.075 149.371 215.041C147.344 215.359 136.082 219.397 132.565 223.056C125.421 230.487 125.781 240.166 129.166 240.641C131.985 241.037 130.895 236.304 132.477 232.904C133.448 230.749 136.268 232.537 137.44 231.196C143.395 231.806 150.743 235.976 152.548 236.338C158.116 237.451 158.85 236.428 165.434 240.965C166.534 241.723 162.82 239.81 162.82 239.81L178.641 246.5C178.641 246.5 190.905 244.448 192.98 239.562C194.808 235.261 186.967 226.9 186.967 226.9ZM186.967 226.9L169.981 217.768C169.981 217.768 155.512 214.075 149.371 215.041C147.344 215.359 136.082 219.397 132.565 223.056C125.421 230.487 125.781 240.166 129.166 240.641C131.985 241.037 130.895 236.304 132.477 232.904C133.448 230.749 136.268 232.537 137.44 231.196C143.395 231.806 150.743 235.976 152.548 236.338C158.116 237.451 158.85 236.428 165.434 240.965C166.534 241.723 162.82 239.81 162.82 239.81L178.641 246.5C178.641 246.5 190.905 244.448 192.98 239.562C194.808 235.261 186.967 226.9 186.967 226.9ZM186.967 226.9L169.981 217.768C169.981 217.768 155.512 214.075 149.371 215.041C147.344 215.359 136.082 219.397 132.565 223.056C125.421 230.487 125.781 240.166 129.166 240.641C131.985 241.037 130.895 236.304 132.477 232.904C133.448 230.749 136.268 232.537 137.44 231.196C143.395 231.806 150.743 235.976 152.548 236.338C158.116 237.451 158.85 236.428 165.434 240.965C166.534 241.723 162.82 239.81 162.82 239.81L178.641 246.5C178.641 246.5 190.905 244.448 192.98 239.562C194.808 235.261 186.967 226.9 186.967 226.9Z" fill="#B55D4F"/>
<path d="M186.967 226.9L169.981 217.768C169.981 217.768 155.512 214.075 149.371 215.041C147.344 215.359 136.082 219.397 132.565 223.056C125.421 230.487 125.781 240.166 129.166 240.641C131.985 241.037 130.895 236.304 132.477 232.904C133.448 230.749 136.268 232.537 137.44 231.196C143.395 231.806 150.743 235.976 152.548 236.338C158.116 237.451 158.85 236.428 165.434 240.965C166.534 241.723 162.82 239.81 162.82 239.81L178.641 246.5C178.641 246.5 190.905 244.448 192.98 239.562C194.808 235.261 186.967 226.9 186.967 226.9ZM186.967 226.9L169.981 217.768C169.981 217.768 155.512 214.075 149.371 215.041C147.344 215.359 136.082 219.397 132.565 223.056C125.421 230.487 125.781 240.166 129.166 240.641C131.985 241.037 130.895 236.304 132.477 232.904C133.448 230.749 136.268 232.537 137.44 231.196C143.395 231.806 150.743 235.976 152.548 236.338C158.116 237.451 158.85 236.428 165.434 240.965C166.534 241.723 162.82 239.81 162.82 239.81L178.641 246.5C178.641 246.5 190.905 244.448 192.98 239.562C194.808 235.261 186.967 226.9 186.967 226.9ZM186.967 226.9L169.981 217.768C169.981 217.768 155.512 214.075 149.371 215.041C147.344 215.359 136.082 219.397 132.565 223.056C125.421 230.487 125.781 240.166 129.166 240.641C131.985 241.037 130.895 236.304 132.477 232.904C133.448 230.749 136.268 232.537 137.44 231.196C143.395 231.806 150.743 235.976 152.548 236.338C158.116 237.451 158.85 236.428 165.434 240.965C166.534 241.723 162.82 239.81 162.82 239.81L178.641 246.5C178.641 246.5 190.905 244.448 192.98 239.562C194.808 235.261 186.967 226.9 186.967 226.9ZM186.967 226.9L169.981 217.768C169.981 217.768 155.512 214.075 149.371 215.041C147.344 215.359 136.082 219.397 132.565 223.056C125.421 230.487 125.781 240.166 129.166 240.641C131.985 241.037 130.895 236.304 132.477 232.904C133.448 230.749 136.268 232.537 137.44 231.196C143.395 231.806 150.743 235.976 152.548 236.338C158.116 237.451 158.85 236.428 165.434 240.965C166.534 241.723 162.82 239.81 162.82 239.81L178.641 246.5C178.641 246.5 190.905 244.448 192.98 239.562C194.808 235.261 186.967 226.9 186.967 226.9ZM186.967 226.9L169.981 217.768C169.981 217.768 155.512 214.075 149.371 215.041C147.344 215.359 136.082 219.397 132.565 223.056C125.421 230.487 125.781 240.166 129.166 240.641C131.985 241.037 130.895 236.304 132.477 232.904C133.448 230.749 136.268 232.537 137.44 231.196C143.395 231.806 150.743 235.976 152.548 236.338C158.116 237.451 158.85 236.428 165.434 240.965C166.534 241.723 162.82 239.81 162.82 239.81L178.641 246.5C178.641 246.5 190.905 244.448 192.98 239.562C194.808 235.261 186.967 226.9 186.967 226.9ZM186.967 226.9L169.981 217.768C169.981 217.768 155.512 214.075 149.371 215.041C147.344 215.359 136.082 219.397 132.565 223.056C125.421 230.487 125.781 240.166 129.166 240.641C131.985 241.037 130.895 236.304 132.477 232.904C133.448 230.749 136.268 232.537 137.44 231.196C143.395 231.806 150.743 235.976 152.548 236.338C158.116 237.451 158.85 236.428 165.434 240.965C166.534 241.723 162.82 239.81 162.82 239.81L178.641 246.5C178.641 246.5 190.905 244.448 192.98 239.562C194.808 235.261 186.967 226.9 186.967 226.9ZM186.967 226.9L169.981 217.768C169.981 217.768 155.512 214.075 149.371 215.041C147.344 215.359 136.082 219.397 132.565 223.056C125.421 230.487 125.781 240.166 129.166 240.641C131.985 241.037 130.895 236.304 132.477 232.904C133.448 230.749 136.268 232.537 137.44 231.196C143.395 231.806 150.743 235.976 152.548 236.338C158.116 237.451 158.85 236.428 165.434 240.965C166.534 241.723 162.82 239.81 162.82 239.81L178.641 246.5C178.641 246.5 190.905 244.448 192.98 239.562C194.808 235.261 186.967 226.9 186.967 226.9ZM186.967 226.9L169.981 217.768C169.981 217.768 155.512 214.075 149.371 215.041C147.344 215.359 136.082 219.397 132.565 223.056C125.421 230.487 125.781 240.166 129.166 240.641C131.985 241.037 130.895 236.304 132.477 232.904C133.448 230.749 136.268 232.537 137.44 231.196C143.395 231.806 150.743 235.976 152.548 236.338C158.116 237.451 158.85 236.428 165.434 240.965C166.534 241.723 162.82 239.81 162.82 239.81L178.641 246.5C178.641 246.5 190.905 244.448 192.98 239.562C194.808 235.261 186.967 226.9 186.967 226.9Z" fill="#E3887A"/>
<path d="M267.194 166.949C256.87 177.67 227.373 226.82 218.973 228.659C210.331 230.554 198.357 222.941 188.783 225.828C179.21 228.715 169.38 237.422 171.597 243.003C173.813 248.588 196.3 263.481 224.195 264.286C248.083 264.976 298.414 205.502 298.414 205.502C298.414 182.515 267.194 166.949 267.194 166.949ZM267.194 166.949C256.87 177.67 227.373 226.82 218.973 228.659C210.331 230.554 198.357 222.941 188.783 225.828C179.21 228.715 169.38 237.422 171.597 243.003C173.813 248.588 196.3 263.481 224.195 264.286C248.083 264.976 298.414 205.502 298.414 205.502C298.414 182.515 267.194 166.949 267.194 166.949ZM267.194 166.949C256.87 177.67 227.373 226.82 218.973 228.659C210.331 230.554 198.357 222.941 188.783 225.828C179.21 228.715 169.38 237.422 171.597 243.003C173.813 248.588 196.3 263.481 224.195 264.286C248.083 264.976 298.414 205.502 298.414 205.502C298.414 182.515 267.194 166.949 267.194 166.949ZM267.194 166.949C256.87 177.67 227.373 226.82 218.973 228.659C210.331 230.554 198.357 222.941 188.783 225.828C179.21 228.715 169.38 237.422 171.597 243.003C173.813 248.588 196.3 263.481 224.195 264.286C248.083 264.976 298.414 205.502 298.414 205.502C298.414 182.515 267.194 166.949 267.194 166.949ZM267.194 166.949C256.87 177.67 227.373 226.82 218.973 228.659C210.331 230.554 198.357 222.941 188.783 225.828C179.21 228.715 169.38 237.422 171.597 243.003C173.813 248.588 196.3 263.481 224.195 264.286C248.083 264.976 298.414 205.502 298.414 205.502C298.414 182.515 267.194 166.949 267.194 166.949ZM267.194 166.949C256.87 177.67 227.373 226.82 218.973 228.659C210.331 230.554 198.357 222.941 188.783 225.828C179.21 228.715 169.38 237.422 171.597 243.003C173.813 248.588 196.3 263.481 224.195 264.286C248.083 264.976 298.414 205.502 298.414 205.502C298.414 182.515 267.194 166.949 267.194 166.949ZM267.194 166.949C256.87 177.67 227.373 226.82 218.973 228.659C210.331 230.554 198.357 222.941 188.783 225.828C179.21 228.715 169.38 237.422 171.597 243.003C173.813 248.588 196.3 263.481 224.195 264.286C248.083 264.976 298.414 205.502 298.414 205.502C298.414 182.515 267.194 166.949 267.194 166.949ZM267.194 166.949C256.87 177.67 227.373 226.82 218.973 228.659C210.331 230.554 198.357 222.941 188.783 225.828C179.21 228.715 169.38 237.422 171.597 243.003C173.813 248.588 196.3 263.481 224.195 264.286C248.083 264.976 298.414 205.502 298.414 205.502C298.414 182.515 267.194 166.949 267.194 166.949Z" fill="#A0BDFF"/>
<path d="M186.931 93.5796C187.416 98.1212 185.461 102.054 182.571 102.364C179.68 102.671 176.941 99.2366 176.455 94.6949C175.973 90.1509 177.927 86.2203 180.818 85.9134C183.709 85.6041 186.448 89.038 186.931 93.5796Z" stroke="#253138" stroke-width="1.21" stroke-miterlimit="10"/>
<path d="M186.927 116.991C187.383 118.029 187.868 119.035 188.412 119.985C191.61 125.744 196.394 130.129 201.873 132.849C203.308 133.572 204.801 134.183 206.322 134.677C214.359 137.26 223.27 136.517 230.643 131.744C233.668 129.828 236.465 127.195 238.805 123.84C248.105 110.71 245.65 97.7397 243.255 75.489C242.812 70.6886 241.277 66.0561 238.704 61.9936C229.759 47.6528 210.866 43.3034 196.55 52.2485C176.391 64.6508 178.862 97.9395 186.927 116.991ZM186.927 116.991C187.383 118.029 187.868 119.035 188.412 119.985C191.61 125.744 196.394 130.129 201.873 132.849C203.308 133.572 204.801 134.183 206.322 134.677C214.359 137.26 223.27 136.517 230.643 131.744C233.668 129.828 236.465 127.195 238.805 123.84C248.105 110.71 245.65 97.7397 243.255 75.489C242.812 70.6886 241.277 66.0561 238.704 61.9936C229.759 47.6528 210.866 43.3034 196.55 52.2485C176.391 64.6508 178.862 97.9395 186.927 116.991ZM186.927 116.991C187.383 118.029 187.868 119.035 188.412 119.985C191.61 125.744 196.394 130.129 201.873 132.849C203.308 133.572 204.801 134.183 206.322 134.677C214.359 137.26 223.27 136.517 230.643 131.744C233.668 129.828 236.465 127.195 238.805 123.84C248.105 110.71 245.65 97.7397 243.255 75.489C242.812 70.6886 241.277 66.0561 238.704 61.9936C229.759 47.6528 210.866 43.3034 196.55 52.2485C176.391 64.6508 178.862 97.9395 186.927 116.991ZM186.927 116.991C187.383 118.029 187.868 119.035 188.412 119.985C191.61 125.744 196.394 130.129 201.873 132.849C203.308 133.572 204.801 134.183 206.322 134.677C214.359 137.26 223.27 136.517 230.643 131.744C233.668 129.828 236.465 127.195 238.805 123.84C248.105 110.71 245.65 97.7397 243.255 75.489C242.812 70.6886 241.277 66.0561 238.704 61.9936C229.759 47.6528 210.866 43.3034 196.55 52.2485C176.391 64.6508 178.862 97.9395 186.927 116.991ZM186.927 116.991C187.383 118.029 187.868 119.035 188.412 119.985C191.61 125.744 196.394 130.129 201.873 132.849C203.308 133.572 204.801 134.183 206.322 134.677C214.359 137.26 223.27 136.517 230.643 131.744C233.668 129.828 236.465 127.195 238.805 123.84C248.105 110.71 245.65 97.7397 243.255 75.489C242.812 70.6886 241.277 66.0561 238.704 61.9936C229.759 47.6528 210.866 43.3034 196.55 52.2485C176.391 64.6508 178.862 97.9395 186.927 116.991ZM186.927 116.991C187.383 118.029 187.868 119.035 188.412 119.985C191.61 125.744 196.394 130.129 201.873 132.849C203.308 133.572 204.801 134.183 206.322 134.677C214.359 137.26 223.27 136.517 230.643 131.744C233.668 129.828 236.465 127.195 238.805 123.84C248.105 110.71 245.65 97.7397 243.255 75.489C242.812 70.6886 241.277 66.0561 238.704 61.9936C229.759 47.6528 210.866 43.3034 196.55 52.2485C176.391 64.6508 178.862 97.9395 186.927 116.991ZM186.927 116.991C187.383 118.029 187.868 119.035 188.412 119.985C191.61 125.744 196.394 130.129 201.873 132.849C203.308 133.572 204.801 134.183 206.322 134.677C214.359 137.26 223.27 136.517 230.643 131.744C233.668 129.828 236.465 127.195 238.805 123.84C248.105 110.71 245.65 97.7397 243.255 75.489C242.812 70.6886 241.277 66.0561 238.704 61.9936C229.759 47.6528 210.866 43.3034 196.55 52.2485C176.391 64.6508 178.862 97.9395 186.927 116.991ZM186.927 116.991C187.383 118.029 187.868 119.035 188.412 119.985C191.61 125.744 196.394 130.129 201.873 132.849C203.308 133.572 204.801 134.183 206.322 134.677C214.359 137.26 223.27 136.517 230.643 131.744C233.668 129.828 236.465 127.195 238.805 123.84C248.105 110.71 245.65 97.7397 243.255 75.489C242.812 70.6886 241.277 66.0561 238.704 61.9936C229.759 47.6528 210.866 43.3034 196.55 52.2485C176.391 64.6508 178.862 97.9395 186.927 116.991Z" fill="#E3887A"/>
<path d="M201.87 132.848C203.305 133.572 204.796 134.18 206.319 134.677C214.357 137.26 223.267 136.517 230.641 131.741C228.385 127.741 225.464 124.913 225.464 124.913C225.464 124.913 211.955 125.067 201.87 132.848ZM201.87 132.848C203.305 133.572 204.796 134.18 206.319 134.677C214.357 137.26 223.267 136.517 230.641 131.741C228.385 127.741 225.464 124.913 225.464 124.913C225.464 124.913 211.955 125.067 201.87 132.848ZM201.87 132.848C203.305 133.572 204.796 134.18 206.319 134.677C214.357 137.26 223.267 136.517 230.641 131.741C228.385 127.741 225.464 124.913 225.464 124.913C225.464 124.913 211.955 125.067 201.87 132.848ZM201.87 132.848C203.305 133.572 204.796 134.18 206.319 134.677C214.357 137.26 223.267 136.517 230.641 131.741C228.385 127.741 225.464 124.913 225.464 124.913C225.464 124.913 211.955 125.067 201.87 132.848ZM201.87 132.848C203.305 133.572 204.796 134.18 206.319 134.677C214.357 137.26 223.267 136.517 230.641 131.741C228.385 127.741 225.464 124.913 225.464 124.913C225.464 124.913 211.955 125.067 201.87 132.848ZM201.87 132.848C203.305 133.572 204.796 134.18 206.319 134.677C214.357 137.26 223.267 136.517 230.641 131.741C228.385 127.741 225.464 124.913 225.464 124.913C225.464 124.913 211.955 125.067 201.87 132.848ZM201.87 132.848C203.305 133.572 204.796 134.18 206.319 134.677C214.357 137.26 223.267 136.517 230.641 131.741C228.385 127.741 225.464 124.913 225.464 124.913C225.464 124.913 211.955 125.067 201.87 132.848ZM201.87 132.848C203.305 133.572 204.796 134.18 206.319 134.677C214.357 137.26 223.267 136.517 230.641 131.741C228.385 127.741 225.464 124.913 225.464 124.913C225.464 124.913 211.955 125.067 201.87 132.848Z" fill="#B66E62"/>
<path d="M260.159 138.954C256.295 153.313 231.6 164.763 231.6 164.763C231.6 164.763 214.947 169.971 215.083 163.636C222.543 156.903 224.083 150.418 222.555 144.365C221.66 140.841 219.712 137.482 217.288 134.291C216.033 132.603 214.618 130.984 213.172 129.42L227.907 90.6426C233.028 106.715 244.71 134.83 260.159 138.954ZM260.159 138.954C256.295 153.313 231.6 164.763 231.6 164.763C231.6 164.763 214.947 169.971 215.083 163.636C222.543 156.903 224.083 150.418 222.555 144.365C221.66 140.841 219.712 137.482 217.288 134.291C216.033 132.603 214.618 130.984 213.172 129.42L227.907 90.6426C233.028 106.715 244.71 134.83 260.159 138.954ZM260.159 138.954C256.295 153.313 231.6 164.763 231.6 164.763C231.6 164.763 214.947 169.971 215.083 163.636C222.543 156.903 224.083 150.418 222.555 144.365C221.66 140.841 219.712 137.482 217.288 134.291C216.033 132.603 214.618 130.984 213.172 129.42L227.907 90.6426C233.028 106.715 244.71 134.83 260.159 138.954ZM260.159 138.954C256.295 153.313 231.6 164.763 231.6 164.763C231.6 164.763 214.947 169.971 215.083 163.636C222.543 156.903 224.083 150.418 222.555 144.365C221.66 140.841 219.712 137.482 217.288 134.291C216.033 132.603 214.618 130.984 213.172 129.42L227.907 90.6426C233.028 106.715 244.71 134.83 260.159 138.954ZM260.159 138.954C256.295 153.313 231.6 164.763 231.6 164.763C231.6 164.763 214.947 169.971 215.083 163.636C222.543 156.903 224.083 150.418 222.555 144.365C221.66 140.841 219.712 137.482 217.288 134.291C216.033 132.603 214.618 130.984 213.172 129.42L227.907 90.6426C233.028 106.715 244.71 134.83 260.159 138.954ZM260.159 138.954C256.295 153.313 231.6 164.763 231.6 164.763C231.6 164.763 214.947 169.971 215.083 163.636C222.543 156.903 224.083 150.418 222.555 144.365C221.66 140.841 219.712 137.482 217.288 134.291C216.033 132.603 214.618 130.984 213.172 129.42L227.907 90.6426C233.028 106.715 244.71 134.83 260.159 138.954ZM260.159 138.954C256.295 153.313 231.6 164.763 231.6 164.763C231.6 164.763 214.947 169.971 215.083 163.636C222.543 156.903 224.083 150.418 222.555 144.365C221.66 140.841 219.712 137.482 217.288 134.291C216.033 132.603 214.618 130.984 213.172 129.42L227.907 90.6426C233.028 106.715 244.71 134.83 260.159 138.954ZM260.159 138.954C256.295 153.313 231.6 164.763 231.6 164.763C231.6 164.763 214.947 169.971 215.083 163.636C222.543 156.903 224.083 150.418 222.555 144.365C221.66 140.841 219.712 137.482 217.288 134.291C216.033 132.603 214.618 130.984 213.172 129.42L227.907 90.6426C233.028 106.715 244.71 134.83 260.159 138.954Z" fill="#E3887A"/>
<path d="M183.451 75.5816C182.958 76.1897 182.654 76.9185 182.65 77.701C182.629 82.1451 183.91 97.9906 202.463 106.726C203.098 107.025 203.66 107.466 204.081 108.027C206.611 111.396 216.081 123.679 220.5 124.803C225.626 126.104 234.341 123.25 239.421 121.125C244.5 119 253.128 88.4776 243.128 65.4772C234.478 45.582 212.722 47.184 207.005 47.9791C206.091 48.1062 205.294 48.5992 204.714 49.316L183.451 75.5816ZM183.451 75.5816C182.958 76.1897 182.654 76.9185 182.65 77.701C182.629 82.1451 183.91 97.9906 202.463 106.726C203.098 107.025 203.66 107.466 204.081 108.027C206.611 111.396 216.081 123.679 220.5 124.803C225.626 126.104 234.341 123.25 239.421 121.125C244.5 119 253.128 88.4776 243.128 65.4772C234.478 45.582 212.722 47.184 207.005 47.9791C206.091 48.1062 205.294 48.5992 204.714 49.316L183.451 75.5816ZM183.451 75.5816C182.958 76.1897 182.654 76.9185 182.65 77.701C182.629 82.1451 183.91 97.9906 202.463 106.726C203.098 107.025 203.66 107.466 204.081 108.027C206.611 111.396 216.081 123.679 220.5 124.803C225.626 126.104 234.341 123.25 239.421 121.125C244.5 119 253.128 88.4776 243.128 65.4772C234.478 45.582 212.722 47.184 207.005 47.9791C206.091 48.1062 205.294 48.5992 204.714 49.316L183.451 75.5816ZM183.451 75.5816C182.958 76.1897 182.654 76.9185 182.65 77.701C182.629 82.1451 183.91 97.9906 202.463 106.726C203.098 107.025 203.66 107.466 204.081 108.027C206.611 111.396 216.081 123.679 220.5 124.803C225.626 126.104 234.341 123.25 239.421 121.125C244.5 119 253.128 88.4776 243.128 65.4772C234.478 45.582 212.722 47.184 207.005 47.9791C206.091 48.1062 205.294 48.5992 204.714 49.316L183.451 75.5816ZM183.451 75.5816C182.958 76.1897 182.654 76.9185 182.65 77.701C182.629 82.1451 183.91 97.9906 202.463 106.726C203.098 107.025 203.66 107.466 204.081 108.027C206.611 111.396 216.081 123.679 220.5 124.803C225.626 126.104 234.341 123.25 239.421 121.125C244.5 119 253.128 88.4776 243.128 65.4772C234.478 45.582 212.722 47.184 207.005 47.9791C206.091 48.1062 205.294 48.5992 204.714 49.316L183.451 75.5816ZM183.451 75.5816C182.958 76.1897 182.654 76.9185 182.65 77.701C182.629 82.1451 183.91 97.9906 202.463 106.726C203.098 107.025 203.66 107.466 204.081 108.027C206.611 111.396 216.081 123.679 220.5 124.803C225.626 126.104 234.341 123.25 239.421 121.125C244.5 119 253.128 88.4776 243.128 65.4772C234.478 45.582 212.722 47.184 207.005 47.9791C206.091 48.1062 205.294 48.5992 204.714 49.316L183.451 75.5816ZM183.451 75.5816C182.958 76.1897 182.654 76.9185 182.65 77.701C182.629 82.1451 183.91 97.9906 202.463 106.726C203.098 107.025 203.66 107.466 204.081 108.027C206.611 111.396 216.081 123.679 220.5 124.803C225.626 126.104 234.341 123.25 239.421 121.125C244.5 119 253.128 88.4776 243.128 65.4772C234.478 45.582 212.722 47.184 207.005 47.9791C206.091 48.1062 205.294 48.5992 204.714 49.316L183.451 75.5816ZM183.451 75.5816C182.958 76.1897 182.654 76.9185 182.65 77.701C182.629 82.1451 183.91 97.9906 202.463 106.726C203.098 107.025 203.66 107.466 204.081 108.027C206.611 111.396 216.081 123.679 220.5 124.803C225.626 126.104 234.341 123.25 239.421 121.125C244.5 119 253.128 88.4776 243.128 65.4772C234.478 45.582 212.722 47.184 207.005 47.9791C206.091 48.1062 205.294 48.5992 204.714 49.316L183.451 75.5816Z" fill="#959DA2"/>
<path d="M208.382 94.4337C207.858 99.4485 205.804 103.405 202.666 105.442C198.492 108.092 194.497 102.258 194.049 95.521C193.69 89.5471 195.359 80.7707 200.343 81.0664C205.33 81.3646 208.962 88.2453 208.382 94.4337ZM208.382 94.4337C207.858 99.4485 205.804 103.405 202.666 105.442C198.492 108.092 194.497 102.258 194.049 95.521C193.69 89.5471 195.359 80.7707 200.343 81.0664C205.33 81.3646 208.962 88.2453 208.382 94.4337ZM208.382 94.4337C207.858 99.4485 205.804 103.405 202.666 105.442C198.492 108.092 194.497 102.258 194.049 95.521C193.69 89.5471 195.359 80.7707 200.343 81.0664C205.33 81.3646 208.962 88.2453 208.382 94.4337ZM208.382 94.4337C207.858 99.4485 205.804 103.405 202.666 105.442C198.492 108.092 194.497 102.258 194.049 95.521C193.69 89.5471 195.359 80.7707 200.343 81.0664C205.33 81.3646 208.962 88.2453 208.382 94.4337ZM208.382 94.4337C207.858 99.4485 205.804 103.405 202.666 105.442C198.492 108.092 194.497 102.258 194.049 95.521C193.69 89.5471 195.359 80.7707 200.343 81.0664C205.33 81.3646 208.962 88.2453 208.382 94.4337ZM208.382 94.4337C207.858 99.4485 205.804 103.405 202.666 105.442C198.492 108.092 194.497 102.258 194.049 95.521C193.69 89.5471 195.359 80.7707 200.343 81.0664C205.33 81.3646 208.962 88.2453 208.382 94.4337ZM208.382 94.4337C207.858 99.4485 205.804 103.405 202.666 105.442C198.492 108.092 194.497 102.258 194.049 95.521C193.69 89.5471 195.359 80.7707 200.343 81.0664C205.33 81.3646 208.962 88.2453 208.382 94.4337ZM208.382 94.4337C207.858 99.4485 205.804 103.405 202.666 105.442C198.492 108.092 194.497 102.258 194.049 95.521C193.69 89.5471 195.359 80.7707 200.343 81.0664C205.33 81.3646 208.962 88.2453 208.382 94.4337Z" fill="#E3887A"/>
<path d="M176.456 94.6953L194.019 87.4434" stroke="#253138" stroke-width="5" stroke-miterlimit="10"/>
<path d="M212.429 147.437C212.429 147.437 228.636 127.438 254.484 127.699L270.282 140.893L212.429 147.437ZM212.429 147.437C212.429 147.437 228.636 127.438 254.484 127.699L270.282 140.893L212.429 147.437ZM212.429 147.437C212.429 147.437 228.636 127.438 254.484 127.699L270.282 140.893L212.429 147.437ZM212.429 147.437C212.429 147.437 228.636 127.438 254.484 127.699L270.282 140.893L212.429 147.437ZM212.429 147.437C212.429 147.437 228.636 127.438 254.484 127.699L270.282 140.893L212.429 147.437ZM212.429 147.437C212.429 147.437 228.636 127.438 254.484 127.699L270.282 140.893L212.429 147.437ZM212.429 147.437C212.429 147.437 228.636 127.438 254.484 127.699L270.282 140.893L212.429 147.437ZM212.429 147.437C212.429 147.437 228.636 127.438 254.484 127.699L270.282 140.893L212.429 147.437Z" fill="#A0BDFF"/>
<path d="M187.334 166.95C187.334 166.95 217.93 132.682 258.797 136.216C299.661 139.751 340.626 171.327 360.991 220.959C381.357 270.591 387.492 345.572 387.492 345.572C387.492 345.572 321.351 364.509 254.104 347.247C254.104 347.247 236.666 258.307 187.334 166.95ZM187.334 166.95C187.334 166.95 217.93 132.682 258.797 136.216C299.661 139.751 340.626 171.327 360.991 220.959C381.357 270.591 387.492 345.572 387.492 345.572C387.492 345.572 321.351 364.509 254.104 347.247C254.104 347.247 236.666 258.307 187.334 166.95ZM187.334 166.95C187.334 166.95 217.93 132.682 258.797 136.216C299.661 139.751 340.626 171.327 360.991 220.959C381.357 270.591 387.492 345.572 387.492 345.572C387.492 345.572 321.351 364.509 254.104 347.247C254.104 347.247 236.666 258.307 187.334 166.95ZM187.334 166.95C187.334 166.95 217.93 132.682 258.797 136.216C299.661 139.751 340.626 171.327 360.991 220.959C381.357 270.591 387.492 345.572 387.492 345.572C387.492 345.572 321.351 364.509 254.104 347.247C254.104 347.247 236.666 258.307 187.334 166.95ZM187.334 166.95C187.334 166.95 217.93 132.682 258.797 136.216C299.661 139.751 340.626 171.327 360.991 220.959C381.357 270.591 387.492 345.572 387.492 345.572C387.492 345.572 321.351 364.509 254.104 347.247C254.104 347.247 236.666 258.307 187.334 166.95ZM187.334 166.95C187.334 166.95 217.93 132.682 258.797 136.216C299.661 139.751 340.626 171.327 360.991 220.959C381.357 270.591 387.492 345.572 387.492 345.572C387.492 345.572 321.351 364.509 254.104 347.247C254.104 347.247 236.666 258.307 187.334 166.95ZM187.334 166.95C187.334 166.95 217.93 132.682 258.797 136.216C299.661 139.751 340.626 171.327 360.991 220.959C381.357 270.591 387.492 345.572 387.492 345.572C387.492 345.572 321.351 364.509 254.104 347.247C254.104 347.247 236.666 258.307 187.334 166.95ZM187.334 166.95C187.334 166.95 217.93 132.682 258.797 136.216C299.661 139.751 340.626 171.327 360.991 220.959C381.357 270.591 387.492 345.572 387.492 345.572C387.492 345.572 321.351 364.509 254.104 347.247C254.104 347.247 236.666 258.307 187.334 166.95Z" fill="#B3CAFF"/>
<path d="M103.413 227.802L89.4486 218.217C89.4486 218.217 71.79 214.03 65.5734 214.076C63.5221 214.091 55.9814 223.374 57.3394 222.221C54.5725 224.841 51.6319 230.66 53.6454 232.151C57.5379 235.033 57.0182 228.647 62.1743 224.278C59.9167 227.232 56.4219 231.581 58.7522 232.947C63.2789 235.602 67.3006 227.967 69.141 227.932C71.3969 227.888 72.5078 227.654 74.1161 228.378C74.7262 229.831 67.1629 231.536 70.1032 234.311C74.5642 238.518 77.7393 230.563 83.5795 236.025C84.5547 236.938 81.1655 234.496 81.1655 234.496L97.7149 239.775C97.7149 239.775 106.665 239.717 108.25 236.386C109.66 233.421 103.413 227.802 103.413 227.802ZM103.413 227.802L89.4486 218.217C89.4486 218.217 71.79 214.03 65.5734 214.076C63.5221 214.091 55.9814 223.374 57.3394 222.221C54.5725 224.841 51.6319 230.66 53.6454 232.151C57.5379 235.033 57.0182 228.647 62.1743 224.278C59.9167 227.232 56.4219 231.581 58.7522 232.947C63.2789 235.602 67.3006 227.967 69.141 227.932C71.3969 227.888 72.5078 227.654 74.1161 228.378C74.7262 229.831 67.1629 231.536 70.1032 234.311C74.5642 238.518 77.7393 230.563 83.5795 236.025C84.5547 236.938 81.1655 234.496 81.1655 234.496L97.7149 239.775C97.7149 239.775 106.665 239.717 108.25 236.386C109.66 233.421 103.413 227.802 103.413 227.802ZM103.413 227.802L89.4486 218.217C89.4486 218.217 71.79 214.03 65.5734 214.076C63.5221 214.091 55.9814 223.374 57.3394 222.221C54.5725 224.841 51.6319 230.66 53.6454 232.151C57.5379 235.033 57.0182 228.647 62.1743 224.278C59.9167 227.232 56.4219 231.581 58.7522 232.947C63.2789 235.602 67.3006 227.967 69.141 227.932C71.3969 227.888 72.5078 227.654 74.1161 228.378C74.7262 229.831 67.1629 231.536 70.1032 234.311C74.5642 238.518 77.7393 230.563 83.5795 236.025C84.5547 236.938 81.1655 234.496 81.1655 234.496L97.7149 239.775C97.7149 239.775 106.665 239.717 108.25 236.386C109.66 233.421 103.413 227.802 103.413 227.802ZM103.413 227.802L89.4486 218.217C89.4486 218.217 71.79 214.03 65.5734 214.076C63.5221 214.091 55.9814 223.374 57.3394 222.221C54.5725 224.841 51.6319 230.66 53.6454 232.151C57.5379 235.033 57.0182 228.647 62.1743 224.278C59.9167 227.232 56.4219 231.581 58.7522 232.947C63.2789 235.602 67.3006 227.967 69.141 227.932C71.3969 227.888 72.5078 227.654 74.1161 228.378C74.7262 229.831 67.1629 231.536 70.1032 234.311C74.5642 238.518 77.7393 230.563 83.5795 236.025C84.5547 236.938 81.1655 234.496 81.1655 234.496L97.7149 239.775C97.7149 239.775 106.665 239.717 108.25 236.386C109.66 233.421 103.413 227.802 103.413 227.802ZM103.413 227.802L89.4486 218.217C89.4486 218.217 71.79 214.03 65.5734 214.076C63.5221 214.091 55.9814 223.374 57.3394 222.221C54.5725 224.841 51.6319 230.66 53.6454 232.151C57.5379 235.033 57.0182 228.647 62.1743 224.278C59.9167 227.232 56.4219 231.581 58.7522 232.947C63.2789 235.602 67.3006 227.967 69.141 227.932C71.3969 227.888 72.5078 227.654 74.1161 228.378C74.7262 229.831 67.1629 231.536 70.1032 234.311C74.5642 238.518 77.7393 230.563 83.5795 236.025C84.5547 236.938 81.1655 234.496 81.1655 234.496L97.7149 239.775C97.7149 239.775 106.665 239.717 108.25 236.386C109.66 233.421 103.413 227.802 103.413 227.802ZM103.413 227.802L89.4486 218.217C89.4486 218.217 71.79 214.03 65.5734 214.076C63.5221 214.091 55.9814 223.374 57.3394 222.221C54.5725 224.841 51.6319 230.66 53.6454 232.151C57.5379 235.033 57.0182 228.647 62.1743 224.278C59.9167 227.232 56.4219 231.581 58.7522 232.947C63.2789 235.602 67.3006 227.967 69.141 227.932C71.3969 227.888 72.5078 227.654 74.1161 228.378C74.7262 229.831 67.1629 231.536 70.1032 234.311C74.5642 238.518 77.7393 230.563 83.5795 236.025C84.5547 236.938 81.1655 234.496 81.1655 234.496L97.7149 239.775C97.7149 239.775 106.665 239.717 108.25 236.386C109.66 233.421 103.413 227.802 103.413 227.802ZM103.413 227.802L89.4486 218.217C89.4486 218.217 71.79 214.03 65.5734 214.076C63.5221 214.091 55.9814 223.374 57.3394 222.221C54.5725 224.841 51.6319 230.66 53.6454 232.151C57.5379 235.033 57.0182 228.647 62.1743 224.278C59.9167 227.232 56.4219 231.581 58.7522 232.947C63.2789 235.602 67.3006 227.967 69.141 227.932C71.3969 227.888 72.5078 227.654 74.1161 228.378C74.7262 229.831 67.1629 231.536 70.1032 234.311C74.5642 238.518 77.7393 230.563 83.5795 236.025C84.5547 236.938 81.1655 234.496 81.1655 234.496L97.7149 239.775C97.7149 239.775 106.665 239.717 108.25 236.386C109.66 233.421 103.413 227.802 103.413 227.802ZM103.413 227.802L89.4486 218.217C89.4486 218.217 71.79 214.03 65.5734 214.076C63.5221 214.091 55.9814 223.374 57.3394 222.221C54.5725 224.841 51.6319 230.66 53.6454 232.151C57.5379 235.033 57.0182 228.647 62.1743 224.278C59.9167 227.232 56.4219 231.581 58.7522 232.947C63.2789 235.602 67.3006 227.967 69.141 227.932C71.3969 227.888 72.5078 227.654 74.1161 228.378C74.7262 229.831 67.1629 231.536 70.1032 234.311C74.5642 238.518 77.7393 230.563 83.5795 236.025C84.5547 236.938 81.1655 234.496 81.1655 234.496L97.7149 239.775C97.7149 239.775 106.665 239.717 108.25 236.386C109.66 233.421 103.413 227.802 103.413 227.802ZM106.957 225.302L91.509 213.757C91.509 213.757 77.7465 207.963 71.53 208.01C69.4787 208.024 57.743 210.351 53.723 213.449C45.5578 219.741 44.481 229.366 47.7593 230.337C50.4882 231.146 50.1105 226.304 52.1784 223.175C53.4579 221.188 55.9814 223.374 57.3394 222.221C63.1385 223.706 69.7884 228.917 71.5199 229.542C76.8616 231.467 77.7393 230.563 83.5795 236.025C84.5547 236.938 81.1655 234.496 81.1655 234.496L95.822 243.454C95.822 243.454 108.254 243.24 111.029 238.715C113.474 234.732 106.957 225.302 106.957 225.302ZM106.957 225.302L91.509 213.757C91.509 213.757 77.7465 207.963 71.53 208.01C69.4787 208.024 57.743 210.351 53.723 213.449C45.5578 219.741 44.481 229.366 47.7593 230.337C50.4882 231.146 50.1105 226.304 52.1784 223.175C53.4579 221.188 55.9814 223.374 57.3394 222.221C63.1385 223.706 69.7884 228.917 71.5199 229.542C76.8616 231.467 77.7393 230.563 83.5795 236.025C84.5547 236.938 81.1655 234.496 81.1655 234.496L95.822 243.454C95.822 243.454 108.254 243.24 111.029 238.715C113.474 234.732 106.957 225.302 106.957 225.302ZM106.957 225.302L91.509 213.757C91.509 213.757 77.7465 207.963 71.53 208.01C69.4787 208.024 57.743 210.351 53.723 213.449C45.5578 219.741 44.481 229.366 47.7593 230.337C50.4882 231.146 50.1105 226.304 52.1784 223.175C53.4579 221.188 55.9814 223.374 57.3394 222.221C63.1385 223.706 69.7884 228.917 71.5199 229.542C76.8616 231.467 77.7393 230.563 83.5795 236.025C84.5547 236.938 81.1655 234.496 81.1655 234.496L95.822 243.454C95.822 243.454 108.254 243.24 111.029 238.715C113.474 234.732 106.957 225.302 106.957 225.302ZM106.957 225.302L91.509 213.757C91.509 213.757 77.7465 207.963 71.53 208.01C69.4787 208.024 57.743 210.351 53.723 213.449C45.5578 219.741 44.481 229.366 47.7593 230.337C50.4882 231.146 50.1105 226.304 52.1784 223.175C53.4579 221.188 55.9814 223.374 57.3394 222.221C63.1385 223.706 69.7884 228.917 71.5199 229.542C76.8616 231.467 77.7393 230.563 83.5795 236.025C84.5547 236.938 81.1655 234.496 81.1655 234.496L95.822 243.454C95.822 243.454 108.254 243.24 111.029 238.715C113.474 234.732 106.957 225.302 106.957 225.302ZM106.957 225.302L91.509 213.757C91.509 213.757 77.7465 207.963 71.53 208.01C69.4787 208.024 57.743 210.351 53.723 213.449C45.5578 219.741 44.481 229.366 47.7593 230.337C50.4882 231.146 50.1105 226.304 52.1784 223.175C53.4579 221.188 55.9814 223.374 57.3394 222.221C63.1385 223.706 69.7884 228.917 71.5199 229.542C76.8616 231.467 77.7393 230.563 83.5795 236.025C84.5547 236.938 81.1655 234.496 81.1655 234.496L95.822 243.454C95.822 243.454 108.254 243.24 111.029 238.715C113.474 234.732 106.957 225.302 106.957 225.302ZM106.957 225.302L91.509 213.757C91.509 213.757 77.7465 207.963 71.53 208.01C69.4787 208.024 57.743 210.351 53.723 213.449C45.5578 219.741 44.481 229.366 47.7593 230.337C50.4882 231.146 50.1105 226.304 52.1784 223.175C53.4579 221.188 55.9814 223.374 57.3394 222.221C63.1385 223.706 69.7884 228.917 71.5199 229.542C76.8616 231.467 77.7393 230.563 83.5795 236.025C84.5547 236.938 81.1655 234.496 81.1655 234.496L95.822 243.454C95.822 243.454 108.254 243.24 111.029 238.715C113.474 234.732 106.957 225.302 106.957 225.302ZM106.957 225.302L91.509 213.757C91.509 213.757 77.7465 207.963 71.53 208.01C69.4787 208.024 57.743 210.351 53.723 213.449C45.5578 219.741 44.481 229.366 47.7593 230.337C50.4882 231.146 50.1105 226.304 52.1784 223.175C53.4579 221.188 55.9814 223.374 57.3394 222.221C63.1385 223.706 69.7884 228.917 71.5199 229.542C76.8616 231.467 77.7393 230.563 83.5795 236.025C84.5547 236.938 81.1655 234.496 81.1655 234.496L95.822 243.454C95.822 243.454 108.254 243.24 111.029 238.715C113.474 234.732 106.957 225.302 106.957 225.302ZM106.957 225.302L91.509 213.757C91.509 213.757 77.7465 207.963 71.53 208.01C69.4787 208.024 57.743 210.351 53.723 213.449C45.5578 219.741 44.481 229.366 47.7593 230.337C50.4882 231.146 50.1105 226.304 52.1784 223.175C53.4579 221.188 55.9814 223.374 57.3394 222.221C63.1385 223.706 69.7884 228.917 71.5199 229.542C76.8616 231.467 77.7393 230.563 83.5795 236.025C84.5547 236.938 81.1655 234.496 81.1655 234.496L95.822 243.454C95.822 243.454 108.254 243.24 111.029 238.715C113.474 234.732 106.957 225.302 106.957 225.302Z" fill="#B55D4F"/>
<path d="M106.957 225.302L91.509 213.757C91.509 213.757 77.7465 207.963 71.53 208.01C69.4787 208.024 57.743 210.351 53.723 213.449C45.5578 219.741 44.481 229.366 47.7593 230.337C50.4882 231.146 50.1105 226.304 52.1784 223.175C53.4579 221.188 55.9814 223.374 57.3394 222.221C63.1385 223.706 69.7884 228.917 71.5199 229.542C76.8616 231.467 77.7393 230.563 83.5795 236.025C84.5547 236.938 81.1655 234.496 81.1655 234.496L95.822 243.454C95.822 243.454 108.254 243.24 111.029 238.715C113.474 234.732 106.957 225.302 106.957 225.302ZM106.957 225.302L91.509 213.757C91.509 213.757 77.7465 207.963 71.53 208.01C69.4787 208.024 57.743 210.351 53.723 213.449C45.5578 219.741 44.481 229.366 47.7593 230.337C50.4882 231.146 50.1105 226.304 52.1784 223.175C53.4579 221.188 55.9814 223.374 57.3394 222.221C63.1385 223.706 69.7884 228.917 71.5199 229.542C76.8616 231.467 77.7393 230.563 83.5795 236.025C84.5547 236.938 81.1655 234.496 81.1655 234.496L95.822 243.454C95.822 243.454 108.254 243.24 111.029 238.715C113.474 234.732 106.957 225.302 106.957 225.302ZM106.957 225.302L91.509 213.757C91.509 213.757 77.7465 207.963 71.53 208.01C69.4787 208.024 57.743 210.351 53.723 213.449C45.5578 219.741 44.481 229.366 47.7593 230.337C50.4882 231.146 50.1105 226.304 52.1784 223.175C53.4579 221.188 55.9814 223.374 57.3394 222.221C63.1385 223.706 69.7884 228.917 71.5199 229.542C76.8616 231.467 77.7393 230.563 83.5795 236.025C84.5547 236.938 81.1655 234.496 81.1655 234.496L95.822 243.454C95.822 243.454 108.254 243.24 111.029 238.715C113.474 234.732 106.957 225.302 106.957 225.302ZM106.957 225.302L91.509 213.757C91.509 213.757 77.7465 207.963 71.53 208.01C69.4787 208.024 57.743 210.351 53.723 213.449C45.5578 219.741 44.481 229.366 47.7593 230.337C50.4882 231.146 50.1105 226.304 52.1784 223.175C53.4579 221.188 55.9814 223.374 57.3394 222.221C63.1385 223.706 69.7884 228.917 71.5199 229.542C76.8616 231.467 77.7393 230.563 83.5795 236.025C84.5547 236.938 81.1655 234.496 81.1655 234.496L95.822 243.454C95.822 243.454 108.254 243.24 111.029 238.715C113.474 234.732 106.957 225.302 106.957 225.302ZM106.957 225.302L91.509 213.757C91.509 213.757 77.7465 207.963 71.53 208.01C69.4787 208.024 57.743 210.351 53.723 213.449C45.5578 219.741 44.481 229.366 47.7593 230.337C50.4882 231.146 50.1105 226.304 52.1784 223.175C53.4579 221.188 55.9814 223.374 57.3394 222.221C63.1385 223.706 69.7884 228.917 71.5199 229.542C76.8616 231.467 77.7393 230.563 83.5795 236.025C84.5547 236.938 81.1655 234.496 81.1655 234.496L95.822 243.454C95.822 243.454 108.254 243.24 111.029 238.715C113.474 234.732 106.957 225.302 106.957 225.302ZM106.957 225.302L91.509 213.757C91.509 213.757 77.7465 207.963 71.53 208.01C69.4787 208.024 57.743 210.351 53.723 213.449C45.5578 219.741 44.481 229.366 47.7593 230.337C50.4882 231.146 50.1105 226.304 52.1784 223.175C53.4579 221.188 55.9814 223.374 57.3394 222.221C63.1385 223.706 69.7884 228.917 71.5199 229.542C76.8616 231.467 77.7393 230.563 83.5795 236.025C84.5547 236.938 81.1655 234.496 81.1655 234.496L95.822 243.454C95.822 243.454 108.254 243.24 111.029 238.715C113.474 234.732 106.957 225.302 106.957 225.302ZM106.957 225.302L91.509 213.757C91.509 213.757 77.7465 207.963 71.53 208.01C69.4787 208.024 57.743 210.351 53.723 213.449C45.5578 219.741 44.481 229.366 47.7593 230.337C50.4882 231.146 50.1105 226.304 52.1784 223.175C53.4579 221.188 55.9814 223.374 57.3394 222.221C63.1385 223.706 69.7884 228.917 71.5199 229.542C76.8616 231.467 77.7393 230.563 83.5795 236.025C84.5547 236.938 81.1655 234.496 81.1655 234.496L95.822 243.454C95.822 243.454 108.254 243.24 111.029 238.715C113.474 234.732 106.957 225.302 106.957 225.302ZM106.957 225.302L91.509 213.757C91.509 213.757 77.7465 207.963 71.53 208.01C69.4787 208.024 57.743 210.351 53.723 213.449C45.5578 219.741 44.481 229.366 47.7593 230.337C50.4882 231.146 50.1105 226.304 52.1784 223.175C53.4579 221.188 55.9814 223.374 57.3394 222.221C63.1385 223.706 69.7884 228.917 71.5199 229.542C76.8616 231.467 77.7393 230.563 83.5795 236.025C84.5547 236.938 81.1655 234.496 81.1655 234.496L95.822 243.454C95.822 243.454 108.254 243.24 111.029 238.715C113.474 234.732 106.957 225.302 106.957 225.302Z" fill="#E3887A"/>
<path d="M187.359 166.956C176.775 177.419 146.074 225.827 137.631 227.458C128.946 229.139 117.163 221.233 107.521 223.883C97.8793 226.533 87.8375 234.995 89.9159 240.629C91.9942 246.267 114.107 261.71 141.974 263.203C165.837 264.482 217.62 206.267 217.62 206.267C218.187 183.287 187.359 166.956 187.359 166.956ZM187.359 166.956C176.775 177.419 146.074 225.827 137.631 227.458C128.946 229.139 117.163 221.233 107.521 223.883C97.8793 226.533 87.8375 234.995 89.9159 240.629C91.9942 246.267 114.107 261.71 141.974 263.203C165.837 264.482 217.62 206.267 217.62 206.267C218.187 183.287 187.359 166.956 187.359 166.956ZM187.359 166.956C176.775 177.419 146.074 225.827 137.631 227.458C128.946 229.139 117.163 221.233 107.521 223.883C97.8793 226.533 87.8375 234.995 89.9159 240.629C91.9942 246.267 114.107 261.71 141.974 263.203C165.837 264.482 217.62 206.267 217.62 206.267C218.187 183.287 187.359 166.956 187.359 166.956ZM187.359 166.956C176.775 177.419 146.074 225.827 137.631 227.458C128.946 229.139 117.163 221.233 107.521 223.883C97.8793 226.533 87.8375 234.995 89.9159 240.629C91.9942 246.267 114.107 261.71 141.974 263.203C165.837 264.482 217.62 206.267 217.62 206.267C218.187 183.287 187.359 166.956 187.359 166.956ZM187.359 166.956C176.775 177.419 146.074 225.827 137.631 227.458C128.946 229.139 117.163 221.233 107.521 223.883C97.8793 226.533 87.8375 234.995 89.9159 240.629C91.9942 246.267 114.107 261.71 141.974 263.203C165.837 264.482 217.62 206.267 217.62 206.267C218.187 183.287 187.359 166.956 187.359 166.956ZM187.359 166.956C176.775 177.419 146.074 225.827 137.631 227.458C128.946 229.139 117.163 221.233 107.521 223.883C97.8793 226.533 87.8375 234.995 89.9159 240.629C91.9942 246.267 114.107 261.71 141.974 263.203C165.837 264.482 217.62 206.267 217.62 206.267C218.187 183.287 187.359 166.956 187.359 166.956ZM187.359 166.956C176.775 177.419 146.074 225.827 137.631 227.458C128.946 229.139 117.163 221.233 107.521 223.883C97.8793 226.533 87.8375 234.995 89.9159 240.629C91.9942 246.267 114.107 261.71 141.974 263.203C165.837 264.482 217.62 206.267 217.62 206.267C218.187 183.287 187.359 166.956 187.359 166.956ZM187.359 166.956C176.775 177.419 146.074 225.827 137.631 227.458C128.946 229.139 117.163 221.233 107.521 223.883C97.8793 226.533 87.8375 234.995 89.9159 240.629C91.9942 246.267 114.107 261.71 141.974 263.203C165.837 264.482 217.62 206.267 217.62 206.267C218.187 183.287 187.359 166.956 187.359 166.956Z" fill="#A0BDFF"/>
</g>
</g>
</g>
<defs>
<clipPath id="clip0_21_384">
<rect width="284" height="282" fill="white"/>
</clipPath>
</defs>
</svg>
