<svg width="246" height="330" viewBox="0 0 246 330" fill="none" xmlns="http://www.w3.org/2000/svg">
<path d="M-30.6837 33.0982C-2.41563 32.9112 25.8524 32.7702 54.121 32.6837C67.2467 32.6424 80.3721 32.5862 93.4977 32.4946C104.939 32.4149 116.379 32.3633 127.82 32.3454C133.878 32.335 139.935 32.3105 145.992 32.2523C151.696 32.1979 157.399 32.1813 163.103 32.1933C165.194 32.1911 167.285 32.1752 169.376 32.1445C187.141 31.8963 187.141 31.8963 193.131 37.0924C196.316 40.6587 196.316 40.6587 196.316 42.0982C177.176 42.4282 158.036 42.7582 138.316 43.0982C140.956 44.4182 143.596 45.7382 146.316 47.0982C147.306 48.0882 147.306 48.0882 148.316 49.0982C150.735 49.3743 150.735 49.3743 153.573 49.2901C155.22 49.2811 155.22 49.2811 156.901 49.272C158.69 49.2517 158.69 49.2517 160.515 49.231C163.029 49.2318 165.543 49.2344 168.056 49.2388C172.029 49.2368 176 49.2232 179.972 49.1773C183.8 49.1382 187.625 49.1494 191.453 49.1685C192.636 49.1428 193.818 49.1171 195.036 49.0906C203.128 49.1847 203.128 49.1847 206.669 51.9062C211.316 57.1159 211.316 57.1159 211.316 59.0982C192.836 59.0982 174.356 59.0982 155.316 59.0982C156.306 62.5632 156.306 62.5632 157.316 66.0982C158.055 66.0907 158.793 66.0832 159.554 66.0756C166.528 66.0131 173.5 65.994 180.474 66.023C184.06 66.0364 187.644 66.0333 191.229 65.992C194.692 65.9526 198.153 65.9574 201.616 65.9921C203.574 66.0004 205.531 65.9636 207.489 65.926C216.201 66.0664 216.201 66.0664 219.423 69.0474C220.974 71.3419 222.172 73.58 223.316 76.0982C224.016 77.314 224.724 78.5254 225.441 79.731C232.015 91.9747 236.992 104.223 240.566 117.661C240.813 118.582 241.059 119.503 241.313 120.452C244.729 133.871 245.696 147.011 245.629 160.786C245.627 161.579 245.624 162.372 245.622 163.19C245.421 209.333 226.654 249.863 194.754 282.911C184.087 293.166 171.876 301.637 159.066 308.973C158.429 309.342 157.792 309.712 157.136 310.092C152.378 312.751 147.528 314.527 142.316 316.098C142.125 315.393 141.934 314.688 141.737 313.962C140.853 310.714 139.96 307.469 139.066 304.223C138.616 302.56 138.616 302.56 138.156 300.864C136.463 294.739 134.566 288.862 132.059 283.02C131.316 281.098 131.316 281.098 131.316 279.098C130.424 279.108 129.531 279.118 128.611 279.129C106.869 279.372 85.1264 279.554 63.3829 279.668C52.8677 279.725 42.3534 279.802 31.8387 279.928C22.6718 280.038 13.5055 280.109 4.33791 280.133C-0.514604 280.147 -5.36524 280.181 -10.2171 280.261C-14.7896 280.336 -19.3594 280.359 -23.9324 280.342C-25.6054 280.345 -27.2785 280.367 -28.951 280.409C-41.5363 280.712 -41.5363 280.712 -46.8471 276.72C-49.393 273.962 -51.5639 271.191 -53.6837 268.098C-54.811 266.627 -55.9406 265.158 -57.0744 263.692C-58.0368 262.334 -58.9901 260.969 -59.9337 259.598C-60.4368 258.878 -60.9398 258.157 -61.4581 257.415C-65.292 251.848 -68.6948 246.168 -71.6837 240.098C-67.7237 239.108 -67.7237 239.108 -63.6837 238.098C-63.6231 237.085 -63.5626 236.072 -63.5001 235.028C-63.4157 233.676 -63.331 232.325 -63.2462 230.973C-63.2069 230.308 -63.1676 229.643 -63.1271 228.958C-62.8692 224.911 -62.3542 221.121 -61.6837 217.098C-68.2837 217.098 -74.8837 217.098 -81.6837 217.098C-83.6803 211.774 -85.3748 206.925 -86.7462 201.473C-87.0672 200.223 -87.3882 198.972 -87.7189 197.684C-90.4111 185.603 -91.0565 173.728 -90.9962 161.411C-90.9941 160.617 -90.9919 159.824 -90.9897 159.006C-90.8912 136.405 -86.7397 116.163 -78.2462 95.1607C-77.9945 94.5359 -77.7429 93.9112 -77.4835 93.2676C-74.6616 86.5867 -71.1627 80.5592 -67.6837 74.0982C-57.7837 74.0982 -47.8837 74.0982 -37.6837 74.0982C-38.1787 70.6332 -38.1787 70.6332 -38.6837 67.0982C14.7763 66.6032 14.7763 66.6032 69.3163 66.0982C68.3263 63.1282 68.3263 63.1282 67.3163 60.0982C52.4663 59.7682 37.6163 59.4382 22.3163 59.0982C21.8213 54.6432 21.8213 54.6432 21.3163 50.0982C48.0463 49.6032 48.0463 49.6032 75.3163 49.0982C76.3063 46.7882 77.2963 44.4782 78.3163 42.0982C42.6763 42.0982 7.03627 42.0982 -29.6837 42.0982C-30.1787 37.6432 -30.1787 37.6432 -30.6837 33.0982ZM84.3163 42.0982C84.6463 43.0882 84.9763 44.0782 85.3163 45.0982C85.9763 44.1082 86.6363 43.1182 87.3163 42.0982C86.3263 42.0982 85.3363 42.0982 84.3163 42.0982ZM93.3163 42.0982C92.9863 42.7582 92.6563 43.4182 92.3163 44.0982C93.9663 43.7682 95.6163 43.4382 97.3163 43.0982C95.9963 42.7682 94.6763 42.4382 93.3163 42.0982ZM50.3163 75.0982C51.9663 77.0782 53.6163 79.0582 55.3163 81.0982C55.6463 81.7582 55.9763 82.4182 56.3163 83.0982C59.6477 83.5994 59.6477 83.5994 63.3163 83.0982C65.4523 80.5124 66.8274 78.0759 68.3163 75.0982C62.3763 75.0982 56.4363 75.0982 50.3163 75.0982ZM57.3163 92.0982C57.9763 100.018 58.6363 107.938 59.3163 116.098C60.9663 116.428 62.6163 116.758 64.3163 117.098C64.3163 114.458 64.3163 111.818 64.3163 109.098C63.3263 108.768 62.3363 108.438 61.3163 108.098C60.5858 106.251 60.5858 106.251 60.1288 104.036C59.9702 103.302 59.8117 102.569 59.6483 101.813C59.4839 100.964 59.4839 100.964 59.3163 100.098C60.9663 100.098 62.6163 100.098 64.3163 100.098C64.526 95.9572 64.526 95.9572 63.3163 92.0982C61.3363 92.0982 59.3563 92.0982 57.3163 92.0982ZM60.3163 125.098C60.6463 127.738 60.9763 130.378 61.3163 133.098C62.6363 133.098 63.9563 133.098 65.3163 133.098C65.3163 130.458 65.3163 127.818 65.3163 125.098C63.6663 125.098 62.0163 125.098 60.3163 125.098ZM62.3163 142.098C62.9898 158.82 64.6869 175.449 66.3163 192.098C66.6463 192.098 66.9763 192.098 67.3163 192.098C67.4519 175.734 67.1469 159.443 66.3163 143.098C64.9963 142.768 63.6763 142.438 62.3163 142.098ZM-4.68374 217.098C0.471545 223.005 0.471545 223.005 7.30454 225.321C8.40153 225.268 9.49853 225.215 10.6288 225.161C15.7679 225.028 19.4866 225.488 24.3163 227.098C26.9021 227.682 26.9021 227.682 29.3163 227.098C31.0056 225.454 32.6689 223.784 34.3163 222.098C36.9059 220.586 39.5769 219.315 42.3163 218.098C42.3163 217.768 42.3163 217.438 42.3163 217.098C26.8063 217.098 11.2963 217.098 -4.68374 217.098ZM106.152 219.032C104.934 220.271 104.934 220.271 103.691 221.536C102.874 222.359 102.057 223.183 101.215 224.032C99.2035 225.753 99.2035 225.753 99.3163 227.098C104.391 228.361 109.044 229.369 114.316 229.098C113.651 224.709 112.129 221.117 110.316 217.098C108.081 216.876 108.081 216.876 106.152 219.032ZM-25.8712 236.036C-27.1294 236.386 -28.3875 236.737 -29.6837 237.098C-29.6837 237.428 -29.6837 237.758 -29.6837 238.098C-27.9557 238.437 -26.2262 238.769 -24.4962 239.098C-23.0518 239.377 -23.0518 239.377 -21.5783 239.661C-18.8903 240.067 -16.396 240.177 -13.6837 240.098C-19.1396 235.524 -19.1396 235.524 -25.8712 236.036ZM73.3163 249.098C72.6563 249.758 71.9963 250.418 71.3163 251.098C72.9663 251.098 74.6163 251.098 76.3163 251.098C75.9863 250.438 75.6563 249.778 75.3163 249.098C74.6563 249.098 73.9963 249.098 73.3163 249.098Z" fill="#9FBCFE"/>
<path d="M-30.6837 33.0982C-2.41562 32.9112 25.8524 32.7702 54.121 32.6837C67.2468 32.6424 80.3722 32.5862 93.4977 32.4946C104.939 32.4149 116.379 32.3633 127.82 32.3454C133.878 32.335 139.935 32.3105 145.992 32.2523C151.696 32.1979 157.399 32.1813 163.103 32.1933C165.194 32.1911 167.285 32.1752 169.376 32.1445C187.141 31.8963 187.141 31.8963 193.131 37.0924C196.316 40.6587 196.316 40.6587 196.316 42.0982C177.176 42.4282 158.036 42.7582 138.316 43.0982C140.956 44.4182 143.596 45.7382 146.316 47.0982C147.306 48.0882 147.306 48.0882 148.316 49.0982C150.735 49.3743 150.735 49.3743 153.573 49.2901C155.221 49.2811 155.221 49.2811 156.901 49.272C158.69 49.2517 158.69 49.2517 160.516 49.231C163.029 49.2318 165.543 49.2344 168.057 49.2388C172.029 49.2368 176 49.2232 179.972 49.1773C183.8 49.1382 187.625 49.1494 191.453 49.1685C192.636 49.1428 193.818 49.1171 195.036 49.0906C203.128 49.1847 203.128 49.1847 206.669 51.9062C211.316 57.1159 211.316 57.1159 211.316 59.0982C192.836 59.0982 174.356 59.0982 155.316 59.0982C156.306 62.5632 156.306 62.5632 157.316 66.0982C158.055 66.0907 158.793 66.0832 159.554 66.0756C166.528 66.0131 173.5 65.994 180.475 66.023C184.06 66.0364 187.644 66.0333 191.229 65.992C194.692 65.9526 198.153 65.9574 201.616 65.9921C203.574 66.0004 205.531 65.9636 207.489 65.926C216.201 66.0664 216.201 66.0664 219.423 69.0474C220.974 71.3419 222.172 73.58 223.316 76.0982C224.016 77.314 224.724 78.5254 225.441 79.731C232.015 91.9747 236.993 104.223 240.566 117.661C240.813 118.582 241.059 119.503 241.313 120.452C244.729 133.871 245.696 147.011 245.629 160.786C245.627 161.579 245.624 162.372 245.622 163.19C245.465 199.179 234.218 234.234 212.316 263.098C211.175 259.701 211.482 257.539 212.391 254.102C212.644 253.087 212.898 252.072 213.159 251.026C213.438 249.915 213.717 248.805 214.004 247.661C216.725 236.177 218.406 224.767 219.629 213.036C219.709 212.275 219.79 211.514 219.873 210.731C220.836 201.538 221.541 192.35 221.992 183.118C222.19 179.072 222.516 175.064 222.941 171.036C222.862 166.692 221.649 164.69 218.691 161.536C216.941 160.007 215.144 158.532 213.316 157.098C212.537 156.473 212.537 156.473 211.742 155.835C199.261 145.932 187.092 140.664 171.152 139.52C165.05 138.849 163.761 137.543 159.316 133.098C169.546 133.098 179.776 133.098 190.316 133.098C190.316 132.438 190.316 131.778 190.316 131.098C188.787 131.106 188.787 131.106 187.227 131.114C183.451 131.132 179.676 131.144 175.9 131.153C174.264 131.158 172.629 131.165 170.994 131.174C168.645 131.186 166.297 131.191 163.949 131.196C162.849 131.204 162.849 131.204 161.727 131.211C156.544 131.212 156.544 131.212 154.316 130.098C141.119 128.898 129.429 133.798 119.316 142.098C117.706 143.018 116.094 143.937 114.473 144.836C102.269 151.544 102.269 151.544 92.9413 161.458C91.1939 164.297 89.2686 166.343 86.8788 168.661C86.1169 169.404 85.3551 170.148 84.5702 170.915C83.8264 171.635 83.0826 172.356 82.3163 173.098C80.9816 174.43 79.648 175.763 78.3163 177.098C75.0086 113.891 75.0086 113.891 75.0038 94.2857C74.996 92.3907 74.996 92.3907 74.9882 90.4575C75.0537 82.3608 75.0537 82.3608 77.3163 80.0982C78.3063 80.0982 79.2963 80.0982 80.3163 80.0982C80.8113 86.0382 80.8113 86.0382 81.3163 92.0982C83.9563 91.1082 86.5963 90.1182 89.3163 89.0982C89.1513 88.17 88.9863 87.2419 88.8163 86.2857C88.0793 81.2408 88.2335 76.1838 88.3163 71.0982C87.615 71.1562 86.9138 71.2142 86.1913 71.2739C80.0933 71.5639 76.0471 71.0683 70.8749 67.7778C69.3163 66.0982 69.3163 66.0982 67.3163 60.0982C52.4663 59.7682 37.6163 59.4382 22.3163 59.0982C21.8213 54.6432 21.8213 54.6432 21.3163 50.0982C48.0463 49.6032 48.0463 49.6032 75.3163 49.0982C76.3063 46.7882 77.2963 44.4782 78.3163 42.0982C42.6763 42.0982 7.03629 42.0982 -29.6837 42.0982C-30.0137 39.1282 -30.3437 36.1582 -30.6837 33.0982ZM84.3163 42.0982C84.6463 43.0882 84.9763 44.0782 85.3163 45.0982C85.9763 44.1082 86.6363 43.1182 87.3163 42.0982C86.3263 42.0982 85.3363 42.0982 84.3163 42.0982ZM93.3163 42.0982C92.9863 42.7582 92.6563 43.4182 92.3163 44.0982C93.9663 43.7682 95.6163 43.4382 97.3163 43.0982C95.9963 42.7682 94.6763 42.4382 93.3163 42.0982Z" fill="#263138"/>
<path d="M156.316 130.098C158.867 130.255 161.395 130.356 163.949 130.415C164.701 130.435 165.453 130.456 166.227 130.478C168.632 130.543 171.037 130.602 173.441 130.661C175.07 130.704 176.699 130.748 178.328 130.792C182.324 130.899 186.32 131 190.316 131.098C190.316 131.758 190.316 132.418 190.316 133.098C180.416 133.428 170.516 133.758 160.316 134.098C163.803 136.423 165.386 136.396 169.516 136.512C170.724 136.551 171.932 136.59 173.178 136.629C175.072 136.676 175.072 136.676 177.004 136.723C178.278 136.762 179.552 136.801 180.865 136.84C184.015 136.935 187.166 137.02 190.316 137.098C190.316 137.428 190.316 137.758 190.316 138.098C184.376 138.428 178.436 138.758 172.316 139.098C174.173 139.139 176.029 139.181 177.941 139.223C195.26 140.597 208.184 151.622 220.316 163.098C220.85 163.535 221.383 163.972 221.932 164.422C223.8 166.684 223.648 167.996 223.555 170.903C223.527 171.885 223.499 172.867 223.471 173.878C223.42 174.941 223.369 176.004 223.316 177.098C223.266 178.189 223.217 179.28 223.165 180.404C219.23 255.4 219.23 255.4 207.742 268.501C207.243 269.077 206.744 269.654 206.23 270.248C205.702 270.838 205.173 271.428 204.629 272.036C204.084 272.655 203.54 273.274 202.979 273.911C190.352 288.171 175.583 299.514 159.066 308.973C158.111 309.527 158.111 309.527 157.136 310.092C152.378 312.751 147.528 314.527 142.316 316.098C142.13 315.414 141.945 314.73 141.753 314.025C138.092 300.607 134.308 287.424 129.291 274.447C117.316 243.412 117.316 243.412 117.316 233.098C118.224 232.851 119.131 232.603 120.066 232.348C123.538 231.013 125.051 230.011 127.316 227.098C132.26 214.668 128.827 202.338 123.808 190.559C117.729 177.581 111.01 168.29 97.3163 163.098C95.9912 162.733 94.6603 162.386 93.3163 162.098C93.8265 158.07 95.6197 156.658 98.7538 154.223C103.715 150.4 108.882 147.203 114.316 144.098C108.706 143.768 103.096 143.438 97.3163 143.098C97.3163 142.768 97.3163 142.438 97.3163 142.098C97.9304 142.105 98.5444 142.111 99.1771 142.118C114.292 142.6 114.292 142.6 127.223 135.883C133.786 130.287 148.143 126.012 156.316 130.098Z" fill="#407BFE"/>
<path d="M157.316 67.0982C165.035 66.8892 172.754 66.7295 180.474 66.6319C184.06 66.585 187.644 66.5214 191.229 66.4192C194.691 66.3211 198.152 66.2676 201.616 66.2443C203.574 66.2197 205.532 66.1494 207.489 66.0785C216.201 66.0736 216.201 66.0736 219.423 69.034C220.977 71.3326 222.173 73.5739 223.316 76.0982C224.016 77.3141 224.724 78.5255 225.441 79.731C232.015 91.9747 236.993 104.223 240.566 117.661C240.813 118.582 241.059 119.503 241.313 120.452C244.729 133.871 245.696 147.011 245.629 160.786C245.626 161.976 245.626 161.976 245.622 163.19C245.465 199.179 234.218 234.234 212.316 263.098C211.175 259.701 211.482 257.539 212.39 254.102C212.644 253.087 212.898 252.072 213.159 251.026C213.438 249.915 213.717 248.805 214.004 247.661C216.725 236.177 218.406 224.767 219.629 213.036C219.709 212.275 219.79 211.514 219.873 210.731C220.836 201.538 221.541 192.35 221.992 183.118C222.19 179.072 222.516 175.064 222.941 171.036C222.862 166.692 221.649 164.69 218.691 161.536C216.941 160.007 215.144 158.532 213.316 157.098C212.537 156.473 212.537 156.473 211.742 155.835C199.261 145.932 187.092 140.664 171.152 139.52C165.05 138.849 163.761 137.543 159.316 133.098C169.546 133.098 179.776 133.098 190.316 133.098C190.316 132.438 190.316 131.778 190.316 131.098C188.787 131.106 188.787 131.106 187.227 131.114C183.451 131.132 179.676 131.144 175.9 131.153C174.264 131.158 172.629 131.165 170.994 131.174C168.645 131.186 166.297 131.191 163.949 131.196C162.849 131.204 162.849 131.204 161.727 131.211C156.544 131.212 156.544 131.212 154.316 130.098C144.074 129.167 136.083 131.915 127.113 136.661C124.555 137.975 122.003 139.078 119.316 140.098C119.316 139.438 119.316 138.778 119.316 138.098C118.349 138.023 117.383 137.949 116.387 137.872C106.115 136.834 98.4296 134.643 91.0038 126.973C83.7894 117.735 80.8979 105.605 81.3163 94.0982C82.7725 93.427 84.2314 92.7614 85.6913 92.0982C86.5034 91.7269 87.3155 91.3557 88.1522 90.9732C90.3163 90.0982 90.3163 90.0982 92.3163 90.0982C93.679 88.3085 93.679 88.3085 94.9413 86.0982C95.3873 85.3557 95.8333 84.6132 96.2928 83.8482C96.6306 83.2707 96.9683 82.6932 97.3163 82.0982C100.868 82.3403 102.87 82.7457 105.691 84.9732C108.101 89.6077 107.907 93.9728 107.316 99.0982C106.895 100.202 106.473 101.305 106.039 102.442C105.031 107.543 106.724 109.949 109.379 114.223C109.775 114.913 110.172 115.602 110.58 116.313C113.331 120.962 116.351 125.616 121.316 128.098C131.593 128.763 131.593 128.763 141.316 126.098C151.078 117.419 156.154 104.924 157.316 92.0982C157.435 87.7848 157.411 83.4753 157.379 79.1607C157.374 77.9999 157.37 76.8391 157.365 75.6431C157.353 72.7947 157.337 69.9465 157.316 67.0982Z" fill="#2F539F"/>
<path d="M-79.6837 98.0981C-66.4837 98.0981 -53.2837 98.0981 -39.6837 98.0981C-36.0859 108.892 -37.4162 120.744 -36.6837 132.098C-11.6037 132.098 13.4763 132.098 39.3163 132.098C41.6142 150.481 41.6142 150.481 42.1327 157.735C42.1941 158.547 42.2555 159.359 42.3187 160.196C42.5091 162.726 42.6941 165.256 42.8788 167.786C43.0054 169.482 43.1323 171.178 43.2596 172.874C43.4951 176.014 43.7282 179.155 43.9591 182.296C44.4005 188.231 44.8598 194.164 45.3163 200.098C10.6663 200.098 -23.9837 200.098 -59.6837 200.098C-61.9337 186.598 -61.9337 186.598 -62.3165 180.364C-62.4003 179.049 -62.4841 177.734 -62.5704 176.379C-62.65 175.036 -62.7294 173.692 -62.8087 172.348C-62.8954 170.957 -62.9826 169.567 -63.0704 168.176C-63.2804 164.817 -63.4828 161.458 -63.6837 158.098C-72.5937 158.098 -81.5037 158.098 -90.6837 158.098C-91.3143 136.869 -86.3557 118.114 -79.6837 98.0981Z" fill="#29363E"/>
<path d="M-70.6837 80.0983C-55.498 80.0048 -40.3123 79.9343 -25.1263 79.891C-18.0752 79.8704 -11.0243 79.8423 -3.97329 79.7965C2.82831 79.7524 9.62972 79.7291 16.4315 79.7188C19.0295 79.7114 21.6275 79.6969 24.2254 79.6753C27.8578 79.6464 31.4894 79.6423 35.1219 79.6442C36.2016 79.6298 37.2812 79.6154 38.3936 79.6006C45.6574 79.6409 45.6574 79.6409 48.9723 81.942C50.7726 84.8305 51.0179 87.1006 51.2928 90.4889C51.405 91.7473 51.5173 93.0056 51.6329 94.3021C51.7359 95.6508 51.8387 96.9995 51.9413 98.3483C52.0596 99.7317 52.18 101.115 52.3023 102.498C52.5404 105.191 52.7724 107.885 53.0003 110.579C53.3527 114.505 53.8321 118.383 54.3788 122.286C55.4729 130.56 55.9871 138.87 56.5665 147.193C56.991 153.154 57.4946 159.055 58.3163 164.973C59.3132 172.666 60.1214 180.372 60.8163 188.098C60.9542 189.352 61.0921 190.606 61.2342 191.899C61.3335 193.099 61.4327 194.299 61.535 195.536C61.6375 196.607 61.74 197.678 61.8456 198.782C61.0623 203.689 59.2139 206.958 55.3163 210.098C50.8426 211.268 46.4762 211.11 41.8753 211.006C40.505 211.004 39.1347 211.005 37.7644 211.01C34.0553 211.012 30.3483 210.965 26.6398 210.909C22.7601 210.859 18.8805 210.855 15.0006 210.845C7.65857 210.82 0.317536 210.755 -7.02403 210.674C-15.3842 210.585 -23.7444 210.541 -32.105 210.501C-49.2985 210.417 -66.491 210.277 -83.6837 210.098C-84.1675 208.845 -84.6478 207.59 -85.1266 206.335C-85.3944 205.636 -85.6623 204.937 -85.9382 204.218C-87.047 201.066 -87.6821 197.876 -88.3087 194.598C-88.5485 193.371 -88.7883 192.144 -89.0353 190.88C-90.3566 183.175 -90.8157 175.903 -90.7462 168.098C-90.7256 164.798 -90.705 161.498 -90.6837 158.098C-81.7737 158.098 -72.8637 158.098 -63.6837 158.098C-62.3525 160.761 -62.3814 163.023 -62.1837 165.997C-62.1012 167.199 -62.0187 168.402 -61.9337 169.641C-61.81 171.538 -61.81 171.538 -61.6837 173.473C-61.5178 175.939 -61.3511 178.406 -61.1837 180.872C-61.1116 181.969 -61.0394 183.067 -60.965 184.197C-60.5826 189.501 -60.1253 194.799 -59.6837 200.098C-25.0337 200.098 9.61625 200.098 45.3163 200.098C44.9863 199.438 44.6563 198.778 44.3163 198.098C44.0445 196.019 43.8262 193.932 43.6327 191.844C43.5722 191.193 43.5118 190.542 43.4495 189.87C43.3206 188.468 43.1938 187.064 43.0689 185.661C42.889 183.651 42.6996 181.641 42.5096 179.631C41.0757 163.799 40.2792 147.987 39.3163 132.098C14.2363 132.098 -10.8437 132.098 -36.6837 132.098C-37.8337 128.648 -37.9965 125.657 -38.2189 122.024C-38.2976 120.773 -38.3763 119.521 -38.4574 118.232C-38.5527 116.641 -38.648 115.05 -38.7462 113.411C-39.0556 108.358 -39.365 103.305 -39.6837 98.0983C-52.5537 98.0983 -65.4237 98.0983 -78.6837 98.0983C-75.3087 87.9733 -75.3087 87.9733 -72.9962 84.0358C-72.3408 82.9046 -72.3408 82.9046 -71.672 81.7506C-71.3459 81.2053 -71.0198 80.6601 -70.6837 80.0983Z" fill="#B0C7FD"/>
<path d="M217.316 210.098C218.306 210.758 219.296 211.418 220.316 212.098C217.308 257.592 217.308 257.592 207.742 268.5C206.994 269.365 206.994 269.365 206.23 270.248C205.702 270.838 205.173 271.428 204.629 272.036C204.084 272.655 203.54 273.274 202.979 273.911C190.352 288.171 175.583 299.514 159.066 308.973C158.429 309.342 157.792 309.712 157.136 310.092C152.378 312.751 147.528 314.527 142.316 316.098C142.037 315.072 142.037 315.072 141.753 314.025C138.349 301.55 134.968 289.173 130.316 277.098C129.111 273.961 127.908 270.823 126.712 267.682C125.874 265.483 125.028 263.287 124.174 261.094C123.791 260.09 123.407 259.086 123.012 258.051C122.661 257.145 122.311 256.239 121.95 255.306C121.316 253.098 121.316 253.098 122.316 251.098C123.003 251.578 123.689 252.057 124.396 252.551C126.941 254.328 129.487 256.104 132.033 257.879C133.678 259.026 135.321 260.174 136.965 261.323C138.512 262.401 138.512 262.401 140.09 263.5C141.519 264.498 141.519 264.498 142.978 265.516C145.204 267.097 145.204 267.097 147.316 268.098C151.677 256.618 155.038 244.925 158.316 233.098C158.813 231.316 159.311 229.533 159.808 227.75C160.984 223.535 162.152 219.317 163.316 215.098C164.306 215.098 165.296 215.098 166.316 215.098C168.153 216.992 169.793 218.863 171.441 220.911C171.93 221.503 172.419 222.095 172.922 222.706C174.396 224.496 175.857 226.296 177.316 228.098C178.795 229.911 180.274 231.723 181.754 233.536C182.472 234.419 183.19 235.302 183.93 236.211C187.191 240.156 190.531 244.03 193.892 247.889C197.876 252.492 201.612 257.269 205.316 262.098C211.482 236.136 211.482 236.136 217.316 210.098Z" fill="#79A2FE"/>
<path d="M-79.6837 98.0981C-66.4837 98.0981 -53.2837 98.0981 -39.6837 98.0981C-36.0859 108.892 -37.4162 120.744 -36.6837 132.098C-11.6037 132.098 13.4763 132.098 39.3163 132.098C41.6142 150.481 41.6142 150.481 42.1327 157.735C42.1941 158.547 42.2555 159.359 42.3187 160.196C42.5091 162.726 42.6941 165.256 42.8788 167.786C43.0054 169.482 43.1323 171.178 43.2596 172.874C43.4951 176.014 43.7282 179.155 43.9591 182.296C44.4005 188.231 44.8598 194.164 45.3163 200.098C10.6663 200.098 -23.9837 200.098 -59.6837 200.098C-61.9337 186.598 -61.9337 186.598 -62.3165 180.364C-62.4003 179.049 -62.4841 177.734 -62.5704 176.379C-62.65 175.036 -62.7294 173.692 -62.8087 172.348C-62.8954 170.957 -62.9826 169.567 -63.0704 168.176C-63.2804 164.817 -63.4828 161.458 -63.6837 158.098C-72.5937 158.098 -81.5037 158.098 -90.6837 158.098C-91.3143 136.869 -86.3557 118.114 -79.6837 98.0981ZM-60.6837 144.098C-60.7446 153.618 -60.7446 153.618 -60.0626 162.938C-59.9318 164.104 -59.8009 165.27 -59.6661 166.471C-59.5276 167.647 -59.389 168.824 -59.2462 170.036C-58.9747 172.399 -58.7052 174.762 -58.4376 177.125C-58.3172 178.154 -58.1967 179.183 -58.0726 180.242C-57.5069 185.852 -57.1161 191.477 -56.6837 197.098C-24.3437 197.098 7.99628 197.098 41.3163 197.098C39.7097 179.426 37.9987 161.763 36.3163 144.098C4.30629 144.098 -27.7037 144.098 -60.6837 144.098Z" fill="#437BFB"/>
<path d="M14.0038 209.536C15.0005 209.548 15.9971 209.561 17.024 209.575C29.455 209.736 41.8857 209.91 54.3163 210.098C50.8956 215.84 50.8956 215.84 48.3815 216.96C46.0064 217.119 43.6533 217.261 41.2723 217.304C40.2716 217.323 39.2709 217.343 38.2398 217.364C36.6302 217.389 36.6302 217.389 34.9882 217.415C33.884 217.435 32.7799 217.456 31.6423 217.478C28.117 217.543 24.5917 217.602 21.0663 217.661C18.6757 217.704 16.285 217.747 13.8944 217.792C8.03511 217.899 2.17574 218 -3.68372 218.098C-3.10622 218.508 -2.52872 218.918 -1.93372 219.34C-1.19122 219.879 -0.448716 220.418 0.316284 220.973C1.05878 221.507 1.80128 222.041 2.56628 222.59C3.14378 223.088 3.72128 223.586 4.31628 224.098C4.31628 224.758 4.31628 225.418 4.31628 226.098C2.26941 227.43 2.26941 227.43 -0.433716 228.911C-5.94908 232.078 -5.94908 232.078 -9.68372 237.098C-10.0092 240.655 -10.0092 240.655 -8.68372 244.098C-5.88304 246.904 -5.88304 246.904 -2.68372 249.098C-1.66746 250.082 -0.662982 251.078 0.316284 252.098C-8.03733 252.354 -16.3893 252.549 -24.7459 252.668C-28.6269 252.725 -32.5052 252.803 -36.3846 252.928C-40.1326 253.048 -43.878 253.113 -47.6277 253.142C-49.0542 253.162 -50.4805 253.202 -51.9059 253.261C-56.3725 253.44 -60.3999 253.436 -64.6837 252.098C-67.9235 248.8 -69.8822 245.334 -71.6837 241.098C-68.7661 239.153 -67.0583 238.645 -63.6837 238.098C-63.5928 236.578 -63.5928 236.578 -63.5001 235.028C-63.4156 233.676 -63.331 232.325 -63.2462 230.973C-63.2069 230.308 -63.1676 229.643 -63.1271 228.958C-62.8692 224.911 -62.3541 221.121 -61.6837 217.098C-68.2837 217.098 -74.8837 217.098 -81.6837 217.098C-82.3437 214.788 -83.0037 212.478 -83.6837 210.098C-51.1053 209.036 -18.584 209.116 14.0038 209.536ZM-25.8712 236.036C-27.1293 236.386 -28.3875 236.737 -29.6837 237.098C-29.6837 237.428 -29.6837 237.758 -29.6837 238.098C-27.9556 238.437 -26.2262 238.769 -24.4962 239.098C-23.0518 239.377 -23.0518 239.377 -21.5782 239.661C-18.8903 240.067 -16.396 240.178 -13.6837 240.098C-19.1396 235.524 -19.1396 235.524 -25.8712 236.036Z" fill="#D1847B"/>
<path d="M-57.6837 262.098C-46.5916 262.075 -35.4995 262.057 -24.4074 262.046C-19.2566 262.041 -14.1058 262.034 -8.95496 262.023C-3.98181 262.012 0.991327 262.006 5.96449 262.003C7.85944 262.001 9.75438 261.998 11.6493 261.992C14.3086 261.985 16.9678 261.984 19.6271 261.984C20.4061 261.981 21.1851 261.977 21.9877 261.974C26.5239 261.982 30.8237 262.388 35.3163 263.098C37.5858 263.185 39.8576 263.228 42.1288 263.223C43.249 263.226 44.3692 263.228 45.5233 263.231C48.2717 263.289 48.2717 263.289 50.3163 262.098C51.9944 261.997 53.6764 261.96 55.3575 261.953C56.4095 261.946 57.4614 261.94 58.5452 261.933C60.2591 261.932 60.2591 261.932 62.0077 261.93C63.7693 261.925 63.7693 261.925 65.5665 261.92C68.059 261.915 70.5515 261.912 73.0441 261.913C76.8387 261.91 80.633 261.892 84.4276 261.873C86.8501 261.87 89.2727 261.868 91.6952 261.867C92.8236 261.86 93.9521 261.853 95.1148 261.846C100.771 261.862 105.947 262.184 111.428 263.628C114.384 264.364 117.346 264.531 120.379 264.723C122.067 264.835 122.067 264.835 123.789 264.95C124.623 264.998 125.457 265.047 126.316 265.098C127.154 267.054 127.986 269.013 128.816 270.973C129.28 272.063 129.744 273.154 130.223 274.278C131.316 277.098 131.316 277.098 131.316 279.098C108.672 279.355 86.0282 279.549 63.3829 279.668C52.8677 279.725 42.3534 279.802 31.8387 279.928C22.6718 280.038 13.5055 280.108 4.33794 280.133C-0.514581 280.147 -5.36522 280.181 -10.2171 280.261C-14.7896 280.336 -19.3594 280.359 -23.9324 280.342C-25.6054 280.345 -27.2785 280.367 -28.951 280.409C-41.5005 280.711 -41.5005 280.711 -46.8257 276.776C-49.4106 274 -51.5755 271.248 -53.6837 268.098C-54.0616 267.537 -54.4395 266.976 -54.8288 266.397C-55.7878 264.969 -56.7368 263.534 -57.6837 262.098Z" fill="#9CB0DE"/>
<path d="M239.316 114.098C239.952 116.303 240.574 118.513 241.191 120.723C241.539 121.953 241.887 123.183 242.246 124.45C245.212 136.48 245.689 148.472 245.629 160.786C245.627 161.579 245.624 162.372 245.622 163.19C245.465 199.179 234.218 234.234 212.316 263.098C211.175 259.701 211.482 257.539 212.391 254.102C212.644 253.087 212.898 252.072 213.159 251.026C213.438 249.915 213.717 248.805 214.004 247.661C216.725 236.177 218.406 224.767 219.629 213.036C219.709 212.275 219.79 211.514 219.873 210.731C220.836 201.538 221.541 192.35 221.992 183.118C222.19 179.072 222.512 175.064 222.941 171.036C222.92 166.418 221.335 164.471 218.129 161.223C216.537 159.834 214.932 158.46 213.316 157.098C211.666 155.448 210.016 153.798 208.316 152.098C213.596 152.098 218.876 152.098 224.316 152.098C223.821 149.623 223.821 149.623 223.316 147.098C223.646 146.108 223.976 145.118 224.316 144.098C218.376 144.098 212.436 144.098 206.316 144.098C206.811 142.613 206.811 142.613 207.316 141.098C213.256 141.098 219.196 141.098 225.316 141.098C225.316 140.108 225.316 139.118 225.316 138.098C224.656 138.098 223.996 138.098 223.316 138.098C223.316 137.438 223.316 136.778 223.316 136.098C223.976 136.098 224.636 136.098 225.316 136.098C225.316 135.108 225.316 134.118 225.316 133.098C222.676 133.098 220.036 133.098 217.316 133.098C217.316 132.438 217.316 131.778 217.316 131.098C218.273 131.025 218.273 131.025 219.25 130.95C220.076 130.875 220.902 130.8 221.754 130.723C222.577 130.654 223.401 130.584 224.25 130.512C224.932 130.376 225.614 130.239 226.316 130.098C226.646 129.438 226.976 128.778 227.316 128.098C220.386 128.098 213.456 128.098 206.316 128.098C206.316 127.438 206.316 126.778 206.316 126.098C206.972 126.084 207.628 126.069 208.304 126.054C211.267 125.98 214.229 125.883 217.191 125.786C218.224 125.763 219.256 125.741 220.32 125.717C221.306 125.682 222.292 125.646 223.308 125.61C224.22 125.584 225.131 125.557 226.07 125.531C226.811 125.388 227.552 125.245 228.316 125.098C228.976 124.108 229.636 123.118 230.316 122.098C228.006 122.098 225.696 122.098 223.316 122.098C223.316 121.438 223.316 120.778 223.316 120.098C224.273 120.007 224.273 120.007 225.25 119.915C226.076 119.831 226.902 119.747 227.754 119.661C228.577 119.579 229.401 119.498 230.25 119.415C232.303 119.309 232.303 119.309 233.316 118.098C220.446 117.603 220.446 117.603 207.316 117.098C207.316 116.438 207.316 115.778 207.316 115.098C211.552 114.955 215.788 114.813 220.024 114.671C221.465 114.623 222.907 114.574 224.348 114.525C226.418 114.456 228.488 114.386 230.558 114.317C231.805 114.275 233.051 114.233 234.335 114.19C235.995 114.139 237.656 114.098 239.316 114.098Z" fill="#3866C9"/>
<path d="M-67.6837 74.0984C-52.7932 74.0282 -37.9028 73.9753 -23.0122 73.9429C-16.0979 73.9275 -9.18382 73.9064 -2.26965 73.872C4.40228 73.8389 11.0741 73.8215 17.7461 73.8137C20.2922 73.8082 22.8383 73.7974 25.3844 73.7812C28.9492 73.7594 32.5136 73.7564 36.0785 73.7578C37.1323 73.747 38.186 73.7362 39.2717 73.7251C44.7073 73.7481 48.6431 73.9873 53.3163 77.0984C56.3163 80.3984 56.3163 80.3984 56.3163 83.0984C59.7171 82.9943 59.7171 82.9943 63.3163 82.0984C65.1968 79.7425 65.1968 79.7425 66.3163 77.0984C68.3163 75.0984 68.3163 75.0984 71.4413 74.9734C72.39 75.0146 73.3388 75.0559 74.3163 75.0984C73.6658 75.7799 73.0153 76.4614 72.3451 77.1635C69.8506 80.772 69.8262 82.7013 69.8553 87.0554C69.8555 87.7382 69.8557 88.4211 69.8559 89.1246C69.8634 91.3874 69.9016 93.6484 69.9413 95.9109C69.9551 97.5146 69.9681 99.1184 69.9803 100.722C70.117 113.476 70.7535 126.198 71.4551 138.93C72.0568 149.891 72.5504 160.835 72.6158 171.814C72.6284 173.796 72.6548 175.778 72.6815 177.76C72.6806 179.528 72.6806 179.528 72.6796 181.333C72.6825 182.356 72.6855 183.379 72.6886 184.433C72.2605 187.498 71.4655 188.899 69.3163 191.098C68.6563 191.098 67.9963 191.098 67.3163 191.098C66.6563 175.258 65.9963 159.418 65.3163 143.098C64.3263 142.768 63.3363 142.438 62.3163 142.098C62.4902 143.776 62.4902 143.776 62.6676 145.488C63.1031 149.692 63.5369 153.897 63.9703 158.102C64.1571 159.911 64.3443 161.721 64.5319 163.53C65.0615 168.64 65.5797 173.751 66.0873 178.863C66.2934 180.875 66.5212 182.884 66.7518 184.892C66.8646 185.95 66.9774 187.008 67.0936 188.098C67.1954 188.98 67.2971 189.862 67.402 190.77C67.2468 194.987 65.1569 197.123 62.3163 200.098C61.9863 200.098 61.6563 200.098 61.3163 200.098C59.5744 190.611 58.7436 181.113 58.014 171.503C57.9372 170.504 57.8603 169.506 57.7811 168.477C57.6824 167.14 57.6824 167.14 57.5817 165.776C57.3457 163.067 57.3457 163.067 56.83 160.283C56.2125 156.455 55.9119 152.627 55.6327 148.762C55.5084 147.123 55.384 145.484 55.2596 143.844C55.0698 141.3 54.8812 138.756 54.694 136.211C53.9612 126.306 53.0606 116.47 51.7648 106.622C51.3772 103.577 51.0547 100.542 50.7889 97.4851C50.7187 96.6929 50.6484 95.9008 50.576 95.0847C50.4402 93.502 50.3131 91.9186 50.1932 90.3347C49.8871 86.1074 49.8871 86.1074 48.0728 82.3804C45.7772 80.7049 44.3818 80.7149 41.5517 80.6996C40.5715 80.6871 39.5914 80.6746 38.5815 80.6616C37.5076 80.6631 36.4337 80.6645 35.3273 80.666C34.1954 80.6558 33.0636 80.6456 31.8974 80.6351C28.1477 80.6049 24.3982 80.5957 20.6483 80.5866C18.0518 80.5698 15.4554 80.5517 12.8589 80.5322C6.71792 80.4895 0.576963 80.46 -5.56416 80.4369C-12.5557 80.4099 -19.5471 80.366 -26.5386 80.3206C-40.9202 80.2277 -55.3019 80.1561 -69.6837 80.0984C-69.0237 78.1184 -68.3637 76.1384 -67.6837 74.0984ZM57.3163 92.0984C57.9763 100.018 58.6363 107.938 59.3163 116.098C60.9663 116.428 62.6163 116.758 64.3163 117.098C64.3163 114.458 64.3163 111.818 64.3163 109.098C63.3263 108.768 62.3363 108.438 61.3163 108.098C60.5858 106.251 60.5858 106.251 60.1288 104.036C59.9702 103.302 59.8117 102.569 59.6483 101.813C59.484 100.964 59.484 100.964 59.3163 100.098C60.9663 100.098 62.6163 100.098 64.3163 100.098C64.526 95.9574 64.526 95.9574 63.3163 92.0984C61.3363 92.0984 59.3563 92.0984 57.3163 92.0984ZM60.3163 125.098C60.6463 127.738 60.9763 130.378 61.3163 133.098C62.6363 133.098 63.9563 133.098 65.3163 133.098C65.3163 130.458 65.3163 127.818 65.3163 125.098C63.6663 125.098 62.0163 125.098 60.3163 125.098Z" fill="#28353D"/>
<path d="M-30.6837 33.0982C-2.41562 32.9112 25.8524 32.7702 54.121 32.6837C67.2468 32.6424 80.3722 32.5862 93.4977 32.4946C104.939 32.4149 116.379 32.3633 127.82 32.3454C133.878 32.335 139.935 32.3105 145.992 32.2523C151.696 32.1979 157.399 32.1813 163.103 32.1933C165.194 32.1911 167.285 32.1752 169.376 32.1445C187.141 31.8963 187.141 31.8963 193.131 37.0924C196.316 40.6587 196.316 40.6587 196.316 42.0982C161.996 42.0982 127.676 42.0982 92.3163 42.0982C92.3163 41.4382 92.3163 40.7782 92.3163 40.0982C91.3263 40.7582 90.3363 41.4182 89.3163 42.0982C86.6288 42.2232 86.6288 42.2232 84.3163 42.0982C84.3163 40.4482 84.3163 38.7982 84.3163 37.0982C83.7094 37.9114 83.1024 38.7247 82.4771 39.5627C79.2315 42.7736 76.1834 42.6875 71.7769 42.7203C70.7756 42.7023 69.7744 42.6843 68.7428 42.6658C67.6789 42.6665 66.6151 42.6672 65.519 42.668C62.0069 42.6645 58.4961 42.6256 54.9843 42.5864C52.5476 42.5771 50.1109 42.57 47.6743 42.565C41.2642 42.5459 34.8546 42.4968 28.4447 42.4415C21.9026 42.3903 15.3605 42.3675 8.81824 42.3423C-4.016 42.2887 -16.8498 42.2034 -29.6837 42.0982C-30.0137 39.1282 -30.3437 36.1582 -30.6837 33.0982Z" fill="#B2C9FE"/>
<path d="M-38.6837 67.0984C-24.2975 67.0282 -9.91132 66.9756 4.47503 66.9429C11.155 66.9273 17.8349 66.906 24.5148 66.872C30.9598 66.8395 37.4046 66.8215 43.8497 66.8137C46.3101 66.8082 48.7705 66.7973 51.2309 66.7812C54.6738 66.7594 58.1162 66.7564 61.5592 66.7578C62.5792 66.747 63.5991 66.7362 64.65 66.7251C69.7857 66.7476 73.0716 66.9059 77.3163 70.0984C80.2016 70.6654 80.2016 70.6654 83.1288 70.7859C84.8407 70.889 86.5525 70.9921 88.3163 71.0984C89.3063 80.0084 89.3063 80.0084 90.3163 89.0984C87.0163 90.4184 83.7163 91.7384 80.3163 93.0984C80.3163 88.8084 80.3163 84.5184 80.3163 80.0984C78.9963 80.7584 77.6763 81.4184 76.3163 82.0984C76.1145 98.4153 76.1924 114.651 77.1835 130.942C77.2651 132.33 77.3466 133.718 77.4279 135.106C77.7598 140.709 78.0999 146.31 78.4872 151.909C78.7288 155.42 78.939 158.932 79.129 162.446C79.2425 164.384 79.3901 166.319 79.5387 168.255C79.9007 175.299 79.4782 179.441 74.7289 184.828C73.3163 186.098 73.3163 186.098 72.3163 186.098C72.282 185.115 72.282 185.115 72.2471 184.111C72.0065 177.215 71.7625 170.32 71.5167 163.424C71.4257 160.859 71.3355 158.294 71.2462 155.728C70.7195 139.348 70.7195 139.348 69.7655 122.989C69.2019 115.262 69.0952 107.55 69.076 99.8056C69.0661 97.3749 69.0349 94.9449 69.0038 92.5144C68.9973 90.9551 68.992 89.3959 68.9882 87.8366C68.9758 87.1169 68.9635 86.3971 68.9507 85.6556C68.9692 81.513 69.3818 79.1059 72.3163 76.0984C50.2853 74.98 28.2509 74.7894 6.1969 74.5661C1.23471 74.5151 -3.72743 74.4598 -8.68958 74.405C-18.3542 74.2988 -28.019 74.1971 -37.6837 74.0984C-38.0137 71.7884 -38.3437 69.4784 -38.6837 67.0984Z" fill="#798187"/>
<path d="M-83.6837 211.098C-69.4937 211.098 -55.3037 211.098 -40.6837 211.098C-41.6737 211.758 -42.6637 212.418 -43.6837 213.098C-45.0558 214.201 -46.4088 215.328 -47.7462 216.473C-48.4384 217.058 -49.1307 217.644 -49.8439 218.247C-52.7643 221.186 -53.6494 223.206 -53.8087 227.348C-53.7675 228.256 -53.7262 229.163 -53.6837 230.098C-52.6937 230.428 -51.7037 230.758 -50.6837 231.098C-50.3537 229.118 -50.0237 227.138 -49.6837 225.098C-48.0337 224.768 -46.3837 224.438 -44.6837 224.098C-45.0137 224.841 -45.3437 225.583 -45.6837 226.348C-46.9115 229.237 -46.9115 229.237 -46.6837 233.098C-45.3637 232.768 -44.0437 232.438 -42.6837 232.098C-42.6837 232.758 -42.6837 233.418 -42.6837 234.098C-36.9651 232.817 -36.9651 232.817 -32.6837 229.098C-31.6937 229.428 -30.7037 229.758 -29.6837 230.098C-29.6837 232.738 -29.6837 235.378 -29.6837 238.098C-28.9825 238.147 -28.2812 238.196 -27.5587 238.247C-12.4112 239.44 -12.4112 239.44 -9.03528 242.68C-8.02056 243.904 -7.03122 245.148 -6.07043 246.415C-4.26887 248.602 -2.16746 249.783 0.316284 251.098C0.316284 251.428 0.316284 251.758 0.316284 252.098C-8.03733 252.354 -16.3893 252.549 -24.7459 252.668C-28.6269 252.725 -32.5052 252.803 -36.3846 252.928C-40.1326 253.048 -43.878 253.113 -47.6277 253.142C-49.0542 253.162 -50.4805 253.202 -51.9059 253.261C-56.3725 253.44 -60.3999 253.436 -64.6837 252.098C-67.9235 248.8 -69.8822 245.334 -71.6837 241.098C-68.7661 239.153 -67.0583 238.645 -63.6837 238.098C-63.5928 236.578 -63.5928 236.578 -63.5001 235.028C-63.4156 233.676 -63.331 232.325 -63.2462 230.973C-63.2069 230.308 -63.1676 229.643 -63.1271 228.958C-62.8692 224.911 -62.3541 221.121 -61.6837 217.098C-68.2837 217.098 -74.8837 217.098 -81.6837 217.098C-82.3437 215.118 -83.0037 213.138 -83.6837 211.098Z" fill="#283339"/>
<path d="M77.3163 80.0981C78.3063 80.0981 79.2963 80.0981 80.3163 80.0981C80.6463 84.0581 80.9763 88.0181 81.3163 92.0981C84.2863 91.1081 87.2563 90.1181 90.3163 89.0981C90.3163 89.7581 90.3163 90.4181 90.3163 91.0981C85.8613 92.5831 85.8613 92.5831 81.3163 94.0981C84.3576 115.205 84.3576 115.205 97.1718 131.524C103.918 135.815 111.557 136.841 119.316 138.098C119.646 139.088 119.976 140.078 120.316 141.098C119.277 141.727 118.238 142.356 117.168 143.004C102.374 151.548 102.374 151.548 91.3163 164.098C89.8836 165.663 88.4019 167.184 86.8788 168.661C86.1169 169.404 85.3551 170.148 84.5702 170.915C83.8264 171.635 83.0826 172.356 82.3163 173.098C80.9816 174.43 79.648 175.763 78.3163 177.098C75.0086 113.891 75.0086 113.891 75.0038 94.2856C74.9986 93.0224 74.9935 91.7591 74.9882 90.4575C75.0537 82.3607 75.0537 82.3607 77.3163 80.0981Z" fill="#284B99"/>
<path d="M97.3163 82.0981C100.868 82.3403 102.87 82.7456 105.691 84.9731C108.101 89.6077 107.907 93.9728 107.316 99.0981C106.684 100.753 106.684 100.753 106.039 102.442C105.031 107.543 106.724 109.949 109.379 114.223C109.775 114.913 110.172 115.602 110.58 116.313C113.331 120.962 116.351 125.616 121.316 128.098C123.376 128.222 125.44 128.274 127.504 128.286C128.611 128.3 129.718 128.314 130.859 128.329C134.295 128.246 134.295 128.246 137.32 127.096C142.384 125.602 147.481 125.851 152.719 125.903C153.796 125.906 154.874 125.908 155.984 125.911C159.408 125.923 162.831 125.948 166.254 125.973C168.583 125.983 170.911 125.992 173.24 126C178.932 126.022 184.624 126.056 190.316 126.098C190.316 126.428 190.316 126.758 190.316 127.098C175.466 127.428 160.616 127.758 145.316 128.098C145.316 128.758 145.316 129.418 145.316 130.098C144.079 130.304 142.841 130.511 141.566 130.723C136.302 131.873 131.853 134.153 127.113 136.661C124.555 137.975 122.003 139.078 119.316 140.098C119.316 139.438 119.316 138.778 119.316 138.098C118.349 138.023 117.383 137.949 116.387 137.872C106.115 136.834 98.4296 134.643 91.0038 126.973C83.7894 117.735 80.8979 105.604 81.3163 94.0981C82.7725 93.4269 84.2314 92.7613 85.6913 92.0981C86.5034 91.7269 87.3155 91.3556 88.1522 90.9731C90.3163 90.0981 90.3163 90.0981 92.3163 90.0981C93.679 88.3085 93.679 88.3085 94.9413 86.0981C95.3873 85.3556 95.8333 84.6131 96.2928 83.8481C96.6306 83.2706 96.9683 82.6931 97.3163 82.0981Z" fill="#DE8A7E"/>
<path d="M98.0116 162.414C109.049 165.688 116.107 174.242 121.551 183.981C128.093 196.266 133.498 209.837 129.519 223.918C127.877 227.848 126.933 229.687 123.316 232.098C120.984 232.177 118.648 232.186 116.316 232.098C115.304 230.041 114.307 227.977 113.316 225.911C112.759 224.762 112.203 223.613 111.629 222.43C110.38 219.259 109.761 217.435 110.316 214.098C111.664 212.395 111.664 212.395 113.379 210.848C115.218 208.834 116.221 207.675 116.668 204.965C115.893 194.378 108.679 186.142 101.316 179.098C96.9739 175.452 92.3928 171.636 87.3163 169.098C89.8107 163.534 91.4641 161.251 98.0116 162.414Z" fill="#B1C8FE"/>
<path d="M217.316 210.098C218.306 210.758 219.296 211.418 220.316 212.098C217.183 259.481 217.183 259.481 205.316 270.098C199.201 263.549 193.259 256.937 187.637 249.954C185.035 246.752 182.368 243.612 179.691 240.473C175.42 235.457 171.294 230.352 167.316 225.098C165.261 229.704 163.587 234.211 162.195 239.071C161.916 240.038 161.916 240.038 161.631 241.025C161.043 243.069 160.461 245.115 159.879 247.161C159.493 248.504 159.107 249.847 158.721 251.19C157.77 254.497 156.825 257.805 155.882 261.114C155.114 263.807 154.344 266.5 153.575 269.193C152.821 271.828 152.069 274.463 151.316 277.098C146.805 274.899 142.783 272.131 138.637 269.309C136.437 267.844 134.202 266.431 131.933 265.075C122.792 259.502 122.792 259.502 121.566 254.598C121.484 253.443 121.401 252.288 121.316 251.098C130.09 256.607 138.713 262.328 147.316 268.098C151.677 256.618 155.038 244.925 158.316 233.098C158.813 231.316 159.311 229.533 159.808 227.75C160.984 223.535 162.152 219.317 163.316 215.098C164.306 215.098 165.296 215.098 166.316 215.098C168.153 216.992 169.793 218.863 171.441 220.911C171.93 221.503 172.419 222.095 172.922 222.706C174.396 224.496 175.857 226.296 177.316 228.098C178.795 229.911 180.274 231.723 181.754 233.536C182.472 234.419 183.19 235.302 183.93 236.211C187.191 240.156 190.531 244.03 193.892 247.889C197.876 252.492 201.612 257.269 205.316 262.098C211.482 236.136 211.482 236.136 217.316 210.098Z" fill="#76A0FE"/>
<path d="M48.3163 17.098C63.381 16.934 78.4457 16.8108 93.5111 16.7353C100.507 16.6993 107.503 16.6503 114.499 16.5699C121.255 16.4923 128.011 16.452 134.767 16.4339C137.34 16.421 139.913 16.3958 142.485 16.3579C146.1 16.3068 149.712 16.3001 153.327 16.3033C154.909 16.2656 154.909 16.2656 156.523 16.2271C164.631 16.3051 170.025 19.0229 176.316 24.098C176.316 24.428 176.316 24.758 176.316 25.098C159.775 25.1213 143.233 25.139 126.692 25.1498C119.012 25.155 111.332 25.162 103.652 25.1734C96.9605 25.1834 90.269 25.1898 83.5776 25.1921C80.0323 25.1934 76.4871 25.1965 72.9419 25.2037C68.9906 25.2117 65.0393 25.212 61.088 25.2115C59.9041 25.2151 58.7201 25.2187 57.5003 25.2224C56.4303 25.221 55.3604 25.2197 54.258 25.2182C52.8545 25.2196 52.8545 25.2196 51.4227 25.221C49.3163 25.098 49.3163 25.098 48.3163 24.098C48.2754 21.765 48.2739 19.4309 48.3163 17.098Z" fill="#B2CAFF"/>
<path d="M-38.6837 67.0984C-24.2975 67.0282 -9.91132 66.9756 4.47503 66.9429C11.155 66.9273 17.8349 66.906 24.5148 66.872C30.9598 66.8395 37.4046 66.8215 43.8497 66.8137C46.3101 66.8082 48.7705 66.7973 51.2309 66.7812C54.6738 66.7594 58.1162 66.7564 61.5592 66.7578C62.5792 66.747 63.5991 66.7362 64.65 66.7251C69.7744 66.7476 73.0916 66.8896 77.3163 70.0984C80.0088 70.8051 80.0088 70.8051 82.3163 71.0984C82.3163 72.0884 82.3163 73.0784 82.3163 74.0984C75.3131 74.8319 68.4185 75.2438 61.3788 75.1921C59.8879 75.1867 59.8879 75.1867 58.3668 75.1812C40.9992 75.0953 23.6319 74.8505 6.26556 74.6348C1.29681 74.5734 -3.67197 74.5137 -8.64075 74.4538C-18.3218 74.3369 -28.0027 74.2183 -37.6837 74.0984C-38.0137 71.7884 -38.3437 69.4784 -38.6837 67.0984Z" fill="#B2C9FE"/>
<path d="M71.4413 74.9731C72.39 75.0144 73.3388 75.0556 74.3163 75.0981C73.6658 75.7797 73.0153 76.4612 72.3451 77.1633C69.8506 80.7718 69.8262 82.7011 69.8553 87.0552C69.8555 87.738 69.8557 88.4209 69.8559 89.1244C69.8634 91.3872 69.9016 93.6482 69.9413 95.9106C69.9551 97.5144 69.9681 99.1182 69.9803 100.722C70.1169 113.476 70.7535 126.197 71.4551 138.93C72.0568 149.891 72.5504 160.835 72.6158 171.813C72.6284 173.795 72.6548 175.778 72.6815 177.76C72.6808 178.939 72.6802 180.118 72.6795 181.333C72.6825 182.356 72.6855 183.379 72.6886 184.433C72.2604 187.498 71.4655 188.899 69.3163 191.098C68.6563 191.098 67.9963 191.098 67.3163 191.098C66.6563 175.258 65.9963 159.418 65.3163 143.098C63.9963 142.768 62.6763 142.438 61.3163 142.098C61.3163 139.128 61.3163 136.158 61.3163 133.098C62.6363 133.098 63.9563 133.098 65.3163 133.098C65.3163 130.458 65.3163 127.818 65.3163 125.098C63.6663 125.098 62.0163 125.098 60.3163 125.098C59.9863 122.458 59.6563 119.818 59.3163 117.098C60.9663 117.098 62.6163 117.098 64.3163 117.098C64.3163 114.458 64.3163 111.818 64.3163 109.098C62.9963 108.768 61.6763 108.438 60.3163 108.098C59.9863 105.458 59.6563 102.818 59.3163 100.098C60.9663 100.098 62.6163 100.098 64.3163 100.098C63.9863 97.4581 63.6563 94.8181 63.3163 92.0981C62.3469 92.1188 61.3775 92.1394 60.3788 92.1606C57.3163 92.0981 57.3163 92.0981 56.3163 91.0981C56.1751 88.4276 56.2738 85.7738 56.3163 83.0981C57.4094 83.0363 58.5025 82.9744 59.6288 82.9106C63.4351 82.4942 63.4351 82.4942 65.1288 79.6606C65.5206 78.815 65.9125 77.9694 66.3163 77.0981C68.3163 75.0981 68.3163 75.0981 71.4413 74.9731Z" fill="#28343C"/>
<path d="M166.316 224.098C170.286 227.965 173.951 232.025 177.566 236.223C178.14 236.887 178.713 237.551 179.304 238.235C183.272 242.843 187.146 247.52 190.973 252.247C195.657 257.946 200.498 263.513 205.316 269.098C204.656 270.418 203.996 271.738 203.316 273.098C202.326 273.098 201.336 273.098 200.316 273.098C198.385 271.082 196.633 269.073 194.879 266.911C193.807 265.622 192.732 264.336 191.656 263.051C191.106 262.393 190.555 261.735 189.988 261.057C187.39 258.013 184.674 255.084 181.941 252.161C177.96 247.89 174.065 243.575 170.316 239.098C166.101 248.666 162.755 258.422 159.504 268.348C158.997 269.883 158.49 271.419 157.982 272.954C156.755 276.667 155.534 280.382 154.316 284.098C149.866 282.451 146.719 280.153 143.191 277.036C142.05 276.044 140.908 275.053 139.766 274.063C139.194 273.567 138.622 273.07 138.033 272.559C136.389 271.16 134.719 269.811 133.023 268.477C132.027 267.692 131.03 266.907 130.004 266.098C128.648 265.046 128.648 265.046 127.266 263.973C126.622 263.354 125.979 262.736 125.316 262.098C125.316 261.108 125.316 260.118 125.316 259.098C126.178 259.703 126.178 259.703 127.057 260.32C129.685 262.163 132.313 264.006 134.941 265.848C135.845 266.482 136.749 267.117 137.68 267.77C142.192 270.932 146.713 274.07 151.316 277.098C151.416 276.174 151.515 275.25 151.617 274.297C152.374 269.026 153.978 264.001 155.504 258.911C155.968 257.342 155.968 257.342 156.442 255.742C157.395 252.526 158.356 249.312 159.316 246.098C159.904 244.115 160.491 242.132 161.078 240.149C161.615 238.34 162.153 236.532 162.691 234.723C162.942 233.88 163.192 233.037 163.45 232.168C165.199 226.332 165.199 226.332 166.316 224.098Z" fill="#427CFF"/>
<path d="M-64.6837 252.098C-56.1554 251.958 -47.6275 251.852 -39.0983 251.787C-35.1366 251.756 -31.1757 251.714 -27.2145 251.645C-23.3824 251.58 -19.5511 251.544 -15.7184 251.529C-14.2657 251.518 -12.813 251.496 -11.3606 251.464C-2.64785 251.276 4.02514 252.134 11.6862 256.623C15.6718 258.858 19.9069 259.986 24.3163 261.098C24.3163 261.428 24.3163 261.758 24.3163 262.098C13.7461 262.307 3.17639 262.467 -7.39545 262.564C-12.3049 262.611 -17.2129 262.675 -22.1215 262.777C-26.8613 262.875 -31.5998 262.929 -36.3407 262.952C-38.1465 262.969 -39.9523 263.001 -41.7575 263.05C-55.925 263.416 -55.925 263.416 -60.3897 260.07C-64.6837 254.665 -64.6837 254.665 -64.6837 252.098Z" fill="#B2C9FF"/>
<path d="M-7.45911 244.532C-6.87323 245.379 -6.28735 246.226 -5.68372 247.098C-3.96383 248.407 -3.96383 248.407 -2.37122 249.348C-1.48434 249.926 -0.597466 250.503 0.316284 251.098C0.316284 251.428 0.316284 251.758 0.316284 252.098C-8.07208 252.284 -16.4596 252.426 -24.8495 252.513C-28.7456 252.555 -32.6403 252.611 -36.5355 252.702C-40.2963 252.789 -44.0558 252.837 -47.8175 252.857C-49.251 252.872 -50.6844 252.901 -52.1173 252.944C-63.3686 253.27 -63.3686 253.27 -66.7029 250.299C-69.6837 245.642 -69.6837 245.642 -69.6837 243.098C-62.0781 242.851 -54.4722 242.632 -46.8648 242.448C-43.3321 242.362 -39.8002 242.266 -36.2684 242.148C-32.2055 242.014 -28.1424 241.92 -24.0782 241.829C-22.8135 241.781 -21.5488 241.733 -20.2457 241.684C-10.4795 241.516 -10.4795 241.516 -7.45911 244.532Z" fill="#6E777E"/>
<path d="M142.316 316.098C139.49 318.924 136.096 319.745 132.379 320.973C131.586 321.236 130.792 321.5 129.975 321.771C114.504 326.74 99.0468 329.287 82.8163 329.161C81.7077 329.156 80.5991 329.152 79.4569 329.147C76.7433 329.135 74.0298 329.119 71.3163 329.098C73.3943 324.655 75.7126 322.084 80.4386 320.294C86.4639 318.451 92.2284 317.404 98.5038 316.911C99.9367 316.79 99.9367 316.79 101.399 316.667C115.007 315.658 128.681 315.924 142.316 316.098Z" fill="#676F73"/>
<path d="M149.316 50.0981C157.02 49.8949 164.724 49.755 172.43 49.6587C175.05 49.6185 177.67 49.5639 180.29 49.4946C184.061 49.3973 187.829 49.3521 191.601 49.3169C193.352 49.2549 193.352 49.2549 195.138 49.1917C203.13 49.1874 203.13 49.1874 206.66 51.8972C211.316 57.117 211.316 57.117 211.316 59.0981C203.971 59.2605 196.626 59.3848 189.28 59.4608C185.868 59.4973 182.458 59.5467 179.047 59.6262C175.122 59.717 171.199 59.7508 167.273 59.7817C166.052 59.8178 164.831 59.854 163.573 59.8912C155.309 59.895 155.309 59.895 152.405 57.5635C150.645 55.1932 149.316 53.1168 149.316 50.0981Z" fill="#B3CAFE"/>
<path d="M156.316 130.098C158.867 130.255 161.395 130.356 163.949 130.415C164.701 130.435 165.453 130.456 166.227 130.478C168.632 130.543 171.037 130.602 173.441 130.661C175.07 130.704 176.699 130.747 178.328 130.792C182.324 130.899 186.32 131 190.316 131.098C190.316 131.758 190.316 132.418 190.316 133.098C180.416 133.428 170.516 133.758 160.316 134.098C163.803 136.423 165.386 136.396 169.516 136.512C170.724 136.551 171.932 136.59 173.178 136.629C175.072 136.676 175.072 136.676 177.004 136.723C178.278 136.762 179.552 136.8 180.865 136.84C184.015 136.935 187.166 137.02 190.316 137.098C190.316 137.428 190.316 137.758 190.316 138.098C184.376 138.428 178.436 138.758 172.316 139.098C172.811 140.088 172.811 140.088 173.316 141.098C169.895 141.869 166.731 142.226 163.226 142.231C161.802 142.233 161.802 142.233 160.349 142.235C159.369 142.231 158.389 142.227 157.379 142.223C155.914 142.229 155.914 142.229 154.42 142.235C149.583 142.228 145.084 141.979 140.316 141.098C133.243 140.8 126.31 141.001 119.316 142.098C126.445 133.441 145.084 124.482 156.316 130.098Z" fill="#99B9F4"/>
<path d="M21.3163 50.0981C39.1363 50.0981 56.9563 50.0981 75.3163 50.0981C75.3163 53.0681 75.3163 56.0381 75.3163 59.0981C72.6763 58.4381 70.0363 57.7781 67.3163 57.0981C67.3163 57.7581 67.3163 58.4181 67.3163 59.0981C52.4663 59.0981 37.6163 59.0981 22.3163 59.0981C21.9863 56.1281 21.6563 53.1581 21.3163 50.0981Z" fill="#B2CAFE"/>
<path d="M157.316 67.098C165.07 66.9589 172.823 66.8523 180.578 66.7871C184.179 66.7558 187.779 66.7134 191.38 66.6454C194.855 66.5801 198.33 66.5443 201.806 66.5287C203.776 66.5123 205.746 66.4654 207.715 66.4182C216.438 66.4149 216.438 66.4149 219.039 68.4385C220.238 70.1843 221.316 71.8977 221.316 74.098C200.196 74.098 179.076 74.098 157.316 74.098C157.316 71.788 157.316 69.478 157.316 67.098Z" fill="#B2C9FE"/>
<path d="M153.316 285.098C159.842 289.866 166.09 294.948 172.316 300.098C168.316 303.501 164.124 306.101 159.566 308.661C158.901 309.047 158.236 309.433 157.551 309.831C152.647 312.598 147.708 314.492 142.316 316.098C143.72 312.004 145.126 307.911 146.534 303.818C147.013 302.425 147.491 301.032 147.968 299.639C148.655 297.638 149.343 295.638 150.031 293.637C150.445 292.433 150.859 291.228 151.285 289.987C152.316 287.098 152.316 287.098 153.316 285.098Z" fill="#427CFF"/>
<path d="M157.316 74.0981C178.766 74.0981 200.216 74.0981 222.316 74.0981C223.306 76.0781 224.296 78.0581 225.316 80.0981C203.206 80.0981 181.096 80.0981 158.316 80.0981C157.986 78.1181 157.656 76.1381 157.316 74.0981Z" fill="#7F868C"/>
<path d="M33.4882 0.000564657C34.1706 0.00197961 34.853 0.00339456 35.5561 0.00485238C37.7262 0.0104301 39.8962 0.0229784 42.0663 0.0357209C43.5415 0.0407388 45.0168 0.0453012 46.4921 0.0493928C50.1002 0.0603922 53.7082 0.0776414 57.3163 0.0982209C57.8113 4.55322 57.8113 4.55322 58.3163 9.09822C40.8263 9.09822 23.3363 9.09822 5.31628 9.09822C8.0161 6.39841 11.1965 5.39591 14.6913 4.03572C15.7006 3.63257 15.7006 3.63257 16.7303 3.22127C22.6919 0.868331 27.0559 -0.0257971 33.4882 0.000564657Z" fill="#B3CAFF"/>
<path d="M-17.6837 211.098C5.74628 211.098 29.1763 211.098 53.3163 211.098C50.3163 216.098 50.3163 216.098 48.4533 216.9C45.9999 217.128 43.5888 217.248 41.1239 217.275C40.0889 217.288 39.0539 217.301 37.9876 217.314C36.874 217.321 35.7605 217.329 34.6132 217.336C33.4614 217.344 32.3096 217.353 31.123 217.361C28.6853 217.375 26.2476 217.385 23.8099 217.393C20.0942 217.411 16.3794 217.454 12.6639 217.499C10.2929 217.509 7.92176 217.517 5.55066 217.524C4.44519 217.541 3.33972 217.559 2.20074 217.577C-6.05821 217.554 -10.9239 215.605 -17.6837 211.098Z" fill="#263138"/>
<path d="M72.8788 250.536C79.4862 250.546 84.8889 254.095 90.5468 257.153C93.7108 258.851 96.8633 260.078 100.316 261.098C100.316 261.428 100.316 261.758 100.316 262.098C84.4763 262.098 68.6363 262.098 52.3163 262.098C55.6555 259.594 58.8942 257.54 62.5038 255.473C70.449 250.919 70.449 250.919 72.8788 250.536Z" fill="#B2C9FF"/>
<path d="M-66.6837 248.098C-58.6863 248.028 -50.689 247.975 -42.6914 247.943C-38.9775 247.927 -35.2639 247.906 -31.5502 247.872C-27.9646 247.839 -24.3791 247.821 -20.7934 247.813C-19.4271 247.808 -18.0607 247.797 -16.6945 247.781C-14.7774 247.759 -12.86 247.758 -10.9427 247.757C-9.85243 247.751 -8.76211 247.744 -7.63875 247.737C-4.29464 248.146 -2.38636 249.123 0.316284 251.098C0.316284 251.428 0.316284 251.758 0.316284 252.098C-21.1337 252.098 -42.5837 252.098 -64.6837 252.098C-65.3437 250.778 -66.0037 249.458 -66.6837 248.098Z" fill="#57626A"/>
<path d="M82.3163 71.0981C84.2963 71.0981 86.2763 71.0981 88.3163 71.0981C88.9763 77.0381 89.6363 82.9781 90.3163 89.0981C87.0163 90.4181 83.7163 91.7381 80.3163 93.0981C80.0932 85.5137 80.8834 78.5437 82.3163 71.0981Z" fill="#E1877A"/>
<path d="M151.441 136.911C152.284 136.911 153.126 136.912 153.994 136.913C160.137 136.973 166.451 137.077 172.316 139.098C172.811 140.088 172.811 140.088 173.316 141.098C168.108 142.258 163.132 142.289 157.816 142.286C156.35 142.287 156.35 142.287 154.855 142.288C147.501 142.234 140.526 141.622 133.316 140.098C139.155 136.854 144.924 136.904 151.441 136.911Z" fill="#A9C3FE"/>
<path d="M156.316 295.098C159.308 296.462 161.607 298.047 164.066 300.223C164.987 301.031 164.987 301.031 165.926 301.856C166.385 302.266 166.843 302.676 167.316 303.098C163.749 306.142 160.221 308.309 156.004 310.348C154.935 310.869 153.867 311.39 152.766 311.926C151.553 312.506 151.553 312.506 150.316 313.098C152.081 306.991 154.012 301.024 156.316 295.098Z" fill="#77A1FF"/>
<path d="M49.3163 217.098C47.8375 218.744 46.3582 220.39 44.8788 222.036C44.0551 222.952 43.2314 223.869 42.3827 224.813C40.3163 227.098 40.3163 227.098 39.3163 228.098C37.4634 228.17 35.6079 228.182 33.7538 228.161C32.7419 228.152 31.73 228.143 30.6874 228.133C29.9049 228.122 29.1225 228.11 28.3163 228.098C30.4731 223.828 32.5229 222.03 36.7538 219.848C37.7012 219.348 38.6487 218.848 39.6249 218.333C45.2625 215.747 45.2625 215.747 49.3163 217.098Z" fill="#E0877B"/>
<path d="M77.3163 80.0981C78.3063 80.0981 79.2963 80.0981 80.3163 80.0981C80.6463 84.0581 80.9763 88.0181 81.3163 92.0981C84.2863 91.1081 87.2563 90.1181 90.3163 89.0981C90.3163 89.7581 90.3163 90.4181 90.3163 91.0981C86.3563 92.7481 82.3963 94.3981 78.3163 96.0981C78.3163 100.366 78.6924 101.037 81.3163 104.098C78.1551 102.728 77.3236 102.109 75.3163 99.0981C75.1212 96.2034 75.0375 93.4274 75.0663 90.5356C75.0585 89.7551 75.0508 88.9746 75.0428 88.1704C75.0629 82.3515 75.0629 82.3515 77.3163 80.0981Z" fill="#353C4C"/>
<path d="M239.316 115.098C234.017 121.778 234.017 121.778 229.848 122.563C227.632 122.539 225.508 122.412 223.316 122.098C223.316 121.438 223.316 120.778 223.316 120.098C224.273 120.008 224.273 120.008 225.25 119.915C226.076 119.831 226.902 119.747 227.754 119.661C228.577 119.58 229.401 119.498 230.25 119.415C232.303 119.309 232.303 119.309 233.316 118.098C220.446 117.603 220.446 117.603 207.316 117.098C207.316 116.438 207.316 115.778 207.316 115.098C211.552 114.931 215.788 114.77 220.024 114.616C221.465 114.563 222.907 114.507 224.348 114.45C226.418 114.368 228.488 114.293 230.558 114.219C232.428 114.149 232.428 114.149 234.335 114.077C237.316 114.098 237.316 114.098 239.316 115.098Z" fill="#729ED5"/>
<path d="M113.316 128.098C113.419 128.655 113.523 129.212 113.629 129.786C114.448 132.54 115.775 134.685 117.316 137.098C110.857 137.502 106.255 136.69 100.316 134.098C103.912 131.078 108.503 128.098 113.316 128.098Z" fill="#B36E64"/>
<path d="M56.3163 83.0982C58.6492 83.0557 60.9833 83.0572 63.3163 83.0982C64.3163 84.0982 64.3163 84.0982 64.4139 85.9458C64.3651 89.022 64.3651 89.022 64.3163 92.0982C61.9833 92.1406 59.6493 92.1391 57.3163 92.0982C56.3163 91.0982 56.3163 91.0982 56.2186 89.2505C56.2512 87.1997 56.2837 85.1489 56.3163 83.0982Z" fill="#A9BFF1"/>
<path d="M217.316 232.098C218.626 236.539 218.083 240.37 217.566 244.911C217.492 245.692 217.417 246.474 217.34 247.28C216.689 253.18 215.664 258.751 211.316 263.098C211.835 255.85 213.114 249.014 214.879 241.973C215.113 241.017 215.347 240.06 215.588 239.075C216.158 236.748 216.734 234.422 217.316 232.098Z" fill="#447DFC"/>
<path d="M210.316 154.098C214.936 154.098 219.556 154.098 224.316 154.098C224.316 155.088 224.316 156.078 224.316 157.098C222.006 157.098 219.696 157.098 217.316 157.098C216.986 158.088 216.656 159.078 216.316 160.098C214.296 158.456 212.296 156.789 210.316 155.098C210.316 154.768 210.316 154.438 210.316 154.098Z" fill="#264A9A"/>
<path d="M61.3163 133.098C63.7913 133.593 63.7913 133.593 66.3163 134.098C66.3163 136.738 66.3163 139.378 66.3163 142.098C64.6663 142.098 63.0163 142.098 61.3163 142.098C61.3163 139.128 61.3163 136.158 61.3163 133.098Z" fill="#A9BFF1"/>
<path d="M59.3163 117.098C61.2963 117.098 63.2763 117.098 65.3163 117.098C65.3163 119.738 65.3163 122.378 65.3163 125.098C63.6663 125.098 62.0163 125.098 60.3163 125.098C59.9863 122.458 59.6563 119.818 59.3163 117.098Z" fill="#AFC5F9"/>
<path d="M59.3163 100.098C60.9663 100.098 62.6163 100.098 64.3163 100.098C64.3163 103.068 64.3163 106.038 64.3163 109.098C62.9963 108.768 61.6763 108.438 60.3163 108.098C59.9863 105.458 59.6563 102.818 59.3163 100.098Z" fill="#B3CAFF"/>
<path d="M77.3163 80.0981C78.3063 80.0981 79.2963 80.0981 80.3163 80.0981C80.6288 82.8481 80.6288 82.8481 80.3163 86.0981C77.8163 88.4731 77.8163 88.4731 75.3163 90.0981C75.121 84.0435 75.121 84.0435 75.3163 82.0981C75.9763 81.4381 76.6363 80.7781 77.3163 80.0981Z" fill="#294B97"/>
<path d="M81.3163 94.0981C81.6463 98.0581 81.9763 102.018 82.3163 106.098C79.5735 102.898 77.686 100.093 76.3163 96.0981C80.1913 94.0981 80.1913 94.0981 81.3163 94.0981Z" fill="#3E508F"/>
<path d="M158.316 303.098C159.636 303.758 160.956 304.418 162.316 305.098C162.316 305.758 162.316 306.418 162.316 307.098C160.336 308.088 158.356 309.078 156.316 310.098C156.976 307.788 157.636 305.478 158.316 303.098Z" fill="#457EFF"/>
<path d="M78.3163 88.0981C78.9763 88.0981 79.6363 88.0981 80.3163 88.0981C80.3163 89.7481 80.3163 91.3981 80.3163 93.0981C78.9963 93.4281 77.6763 93.7581 76.3163 94.0981C77.1913 89.2231 77.1913 89.2231 78.3163 88.0981Z" fill="#264893"/>
<path d="M217.316 160.098C219.296 160.098 221.276 160.098 223.316 160.098C222.986 161.748 222.656 163.398 222.316 165.098C220.666 163.448 219.016 161.798 217.316 160.098Z" fill="#274B9C"/>
</svg>
