<svg width="1000" height="1000" viewBox="0 0 1000 1000" fill="none" xmlns="http://www.w3.org/2000/svg">
<g clip-path="url(#clip0_17_2)">
<mask id="mask0_17_2" style="mask-type:luminance" maskUnits="userSpaceOnUse" x="0" y="0" width="1000" height="1000">
<path d="M1000 0H0V1000H1000V0Z" fill="white"/>
</mask>
<g mask="url(#mask0_17_2)">
<path d="M699.643 254.689C699.643 254.689 599.863 254.689 519.315 254.689ZM699.643 254.689C699.643 254.689 599.863 254.689 519.315 254.689ZM699.643 254.689C699.643 254.689 599.863 254.689 519.315 254.689ZM699.643 254.689C699.643 254.689 599.863 254.689 519.315 254.689ZM699.643 254.689C699.643 254.689 599.863 254.689 519.315 254.689ZM699.643 254.689C699.643 254.689 599.863 254.689 519.315 254.689ZM699.643 254.689C699.643 254.689 599.863 254.689 519.315 254.689ZM699.643 254.689C699.643 254.689 599.863 254.689 519.315 254.689ZM696.783 238.002H497.556ZM696.783 238.002H497.556ZM696.783 238.002H497.556ZM696.783 238.002H497.556ZM696.783 238.002H497.556ZM696.783 238.002H497.556ZM696.783 238.002H497.556ZM696.783 238.002H497.556ZM693.915 221.315H436.803ZM693.915 221.315H436.803ZM693.915 221.315H436.803ZM693.915 221.315H436.803ZM693.915 221.315H436.803ZM693.915 221.315H436.803ZM693.915 221.315H436.803ZM693.915 221.315H436.803ZM691.056 204.636H399.578ZM691.056 204.636H399.578ZM691.056 204.636H399.578ZM691.056 204.636H399.578ZM691.056 204.636H399.578ZM691.056 204.636H399.578ZM691.056 204.636H399.578ZM691.056 204.636H399.578ZM714.231 354.711H482.523ZM711.358 338.047H430.871ZM708.475 321.307H509.263ZM705.603 304.643H448.521ZM702.731 287.979H411.26ZM702.502 271.368H470.81ZM699.643 254.689H419.118ZM696.783 238.002H497.556ZM505.694 221.315C466.495 221.315 436.803 221.315 436.803 221.315Z" fill="#9E0303"/>
<path d="M714.212 354.689H482.52M711.353 338.01H430.828M708.493 321.323H509.266M705.625 304.636H448.513M702.766 287.957H411.288" stroke="#605F91" stroke-width="7.61173"/>
<path d="M702.502 271.368H470.81M699.643 254.689H419.118M696.783 238.002H497.556M505.694 221.315C466.495 221.315 436.803 221.315 436.803 221.315" stroke="#605F91" stroke-width="7.61173"/>
<g opacity="0.912494">
<path d="M151.458 239.684C151.458 239.684 150.138 239.684 147.998 239.684ZM151.458 239.684C151.458 239.684 150.138 239.684 147.998 239.684ZM167.858 230.621H114.393ZM167.858 230.621H114.393ZM179.91 221.558H113.119ZM179.91 221.558H113.119ZM165.311 212.499H111.846ZM165.311 212.499H111.846Z" fill="#9E0303"/>
<path d="M151.458 239.684C151.458 239.684 150.138 239.684 147.998 239.684M167.858 230.621H114.393M179.91 221.558H113.119M165.311 212.499H111.846" stroke="#605F91" stroke-width="4.13417"/>
<path d="M196.109 230.621C196.109 230.621 250.414 230.621 282.083 230.621ZM196.109 230.621C196.109 230.621 250.414 230.621 282.083 230.621ZM196.109 230.621C196.109 230.621 250.414 230.621 282.083 230.621ZM196.109 230.621C196.109 230.621 250.414 230.621 282.083 230.621ZM196.109 230.621C196.109 230.621 250.414 230.621 282.083 230.621ZM196.109 230.621C196.109 230.621 250.414 230.621 282.083 230.621ZM196.109 230.621C196.109 230.621 250.414 230.621 282.083 230.621ZM196.109 230.621C196.109 230.621 250.414 230.621 282.083 230.621ZM195.119 221.558H334.765ZM195.119 221.558H334.765ZM195.119 221.558H334.765ZM195.119 221.558H334.765ZM195.119 221.558H334.765ZM195.119 221.558H334.765ZM195.119 221.558H334.765ZM195.119 221.558H334.765ZM194.126 212.499H352.437ZM194.126 212.499H352.437ZM194.126 212.499H352.437ZM194.126 212.499H352.437ZM194.126 212.499H352.437ZM194.126 212.499H352.437ZM194.126 212.499H352.437ZM194.126 212.499H352.437ZM217.17 384.518H343.017ZM217.17 384.518H343.017ZM217.17 384.518H343.017ZM216.186 375.467H368.527ZM216.186 375.467H368.527ZM216.186 375.467H368.527ZM215.196 366.375H323.394ZM215.196 366.375H323.394ZM215.196 366.375H323.394ZM214.212 357.324H353.841ZM214.212 357.324H353.841ZM214.212 357.324H353.841ZM213.228 348.273H371.535ZM213.228 348.273H371.535ZM213.228 348.273H371.535ZM210.81 339.264H336.657ZM210.81 339.264H336.657ZM210.81 339.264H336.657ZM209.826 330.213H362.167ZM209.826 330.213H362.167ZM209.826 330.213H362.167ZM208.836 321.121H317.034ZM208.836 321.121H317.034ZM208.836 321.121H317.034ZM207.852 312.07H347.481ZM207.852 312.07H347.481ZM207.852 312.07H347.481ZM206.868 303.019H365.175ZM206.868 303.019H365.175ZM206.868 303.019H365.175ZM204.45 294.01H330.297ZM204.45 294.01H330.297ZM204.45 294.01H330.297ZM203.466 284.959H355.807ZM203.466 284.959H355.807ZM203.466 284.959H355.807ZM202.476 275.867H310.674ZM202.476 275.867H310.674ZM202.476 275.867H310.674ZM201.492 266.816H341.121ZM201.492 266.816H341.121ZM201.492 266.816H341.121ZM200.508 257.765H358.815ZM200.508 257.765H358.815ZM200.508 257.765H358.815ZM198.096 248.743H323.935ZM198.096 248.743H323.935ZM198.096 248.743H323.935ZM225.169 239.684C269.18 239.684 349.465 239.684 349.465 239.684ZM225.169 239.684C269.18 239.684 349.465 239.684 349.465 239.684ZM225.169 239.684C269.18 239.684 349.465 239.684 349.465 239.684Z" fill="#9E0303"/>
<path d="M217.176 384.506H343.015M216.183 375.447H368.545M215.189 366.383H323.395M214.199 357.32H353.845M213.206 348.261H371.517" stroke="#605F91" stroke-width="4.13417"/>
<path d="M210.816 339.251H336.656M209.823 330.192H362.185M208.829 321.129H317.035M207.839 312.066H347.485M206.846 303.007H365.157" stroke="#605F91" stroke-width="4.13417"/>
<path d="M204.456 293.997H330.296M203.463 284.938H355.825M202.469 275.875H310.676M201.479 266.812H341.125M200.486 257.753H358.797" stroke="#605F91" stroke-width="4.13417"/>
<path d="M198.096 248.743H323.935M225.169 239.684C269.18 239.684 349.465 239.684 349.465 239.684" stroke="#605F91" stroke-width="4.13417"/>
</g>
<path d="M533.921 427.358C531.065 427.358 528.555 424.928 528.442 422.053L523.481 301.559C523.457 301.005 523.512 300.516 523.645 300.078C524.151 298.399 525.596 297.36 527.42 297.36H691.465C694.321 297.36 696.83 299.792 696.944 302.67L701.905 423.164C701.951 424.35 701.566 425.434 700.818 426.208C700.31 426.734 699.405 427.358 697.963 427.358H533.921ZM533.921 427.358C531.065 427.358 528.555 424.928 528.442 422.053L523.481 301.559C523.457 301.005 523.512 300.516 523.645 300.078C524.151 298.399 525.596 297.36 527.42 297.36H691.465C694.321 297.36 696.83 299.792 696.944 302.67L701.905 423.164C701.951 424.35 701.566 425.434 700.818 426.208C700.31 426.734 699.405 427.358 697.963 427.358H533.921ZM533.921 427.358C531.065 427.358 528.555 424.928 528.442 422.053L523.481 301.559C523.457 301.005 523.512 300.516 523.645 300.078C524.151 298.399 525.596 297.36 527.42 297.36H691.465C694.321 297.36 696.83 299.792 696.944 302.67L701.905 423.164C701.951 424.35 701.566 425.434 700.818 426.208C700.31 426.734 699.405 427.358 697.963 427.358H533.921ZM533.921 427.358C531.065 427.358 528.555 424.928 528.442 422.053L523.481 301.559C523.457 301.005 523.512 300.516 523.645 300.078C524.151 298.399 525.596 297.36 527.42 297.36H691.465C694.321 297.36 696.83 299.792 696.944 302.67L701.905 423.164C701.951 424.35 701.566 425.434 700.818 426.208C700.31 426.734 699.405 427.358 697.963 427.358H533.921ZM533.921 427.358C531.065 427.358 528.555 424.928 528.442 422.053L523.481 301.559C523.457 301.005 523.512 300.516 523.645 300.078C524.151 298.399 525.596 297.36 527.42 297.36H691.465C694.321 297.36 696.83 299.792 696.944 302.67L701.905 423.164C701.951 424.35 701.566 425.434 700.818 426.208C700.31 426.734 699.405 427.358 697.963 427.358H533.921ZM533.921 427.358C531.065 427.358 528.555 424.928 528.442 422.053L523.481 301.559C523.457 301.005 523.512 300.516 523.645 300.078C524.151 298.399 525.596 297.36 527.42 297.36H691.465C694.321 297.36 696.83 299.792 696.944 302.67L701.905 423.164C701.951 424.35 701.566 425.434 700.818 426.208C700.31 426.734 699.405 427.358 697.963 427.358H533.921ZM533.921 427.358C531.065 427.358 528.555 424.928 528.442 422.053L523.481 301.559C523.457 301.005 523.512 300.516 523.645 300.078C524.151 298.399 525.596 297.36 527.42 297.36H691.465C694.321 297.36 696.83 299.792 696.944 302.67L701.905 423.164C701.951 424.35 701.566 425.434 700.818 426.208C700.31 426.734 699.405 427.358 697.963 427.358H533.921ZM533.921 427.358C531.065 427.358 528.555 424.928 528.442 422.053L523.481 301.559C523.457 301.005 523.512 300.516 523.645 300.078C524.151 298.399 525.596 297.36 527.42 297.36H691.465C694.321 297.36 696.83 299.792 696.944 302.67L701.905 423.164C701.951 424.35 701.566 425.434 700.818 426.208C700.31 426.734 699.405 427.358 697.963 427.358H533.921Z" fill="#264A99"/>
<path d="M687.124 380.848H671.665M687.124 375.519H666.07M687.124 370.188H655.673M687.124 364.857H671.665M687.124 359.528H655.673" stroke="#B3E5FF" stroke-width="1.21"/>
<path d="M687.124 354.228H671.665M687.124 348.899H666.07M687.124 343.568H655.673M687.124 338.237H671.665M687.124 332.908H655.673" stroke="#B3E5FF" stroke-width="1.21"/>
<path d="M687.124 327.608H671.665M687.124 322.279H666.07M675.723 316.948C666.723 316.948 655.673 316.948 655.673 316.948" stroke="#B3E5FF" stroke-width="1.21"/>
<path d="M639.384 380.848H565.361M639.22 375.519H576.873M639.055 370.188H556.589M638.888 364.857H593.116M638.723 359.528H545.599" stroke="#B3E5FF" stroke-width="1.21"/>
<path d="M639.384 354.228H565.361M639.22 348.899H576.873M639.055 343.568H556.589M638.888 338.237H593.116M638.723 332.908H545.599" stroke="#B3E5FF" stroke-width="1.21"/>
<path d="M639.384 327.608H565.361M639.22 322.279H576.873M596.366 316.948C576.246 316.948 556.589 316.948 556.589 316.948" stroke="#B3E5FF" stroke-width="1.21"/>
<path d="M318.308 427.392C315.453 427.392 312.817 424.96 312.556 422.085L301.371 301.559C301.317 301.005 301.349 300.516 301.46 300.078C301.879 298.399 303.27 297.36 305.095 297.36H493.34C496.195 297.36 498.831 299.792 499.094 302.67L510.277 423.193C510.384 424.379 510.055 425.465 509.346 426.24C508.869 426.765 507.993 427.392 506.553 427.392H318.308ZM318.308 427.392C315.453 427.392 312.817 424.96 312.556 422.085L301.371 301.559C301.317 301.005 301.349 300.516 301.46 300.078C301.879 298.399 303.27 297.36 305.095 297.36H493.34C496.195 297.36 498.831 299.792 499.094 302.67L510.277 423.193C510.384 424.379 510.055 425.465 509.346 426.24C508.869 426.765 507.993 427.392 506.553 427.392H318.308ZM318.308 427.392C315.453 427.392 312.817 424.96 312.556 422.085L301.371 301.559C301.317 301.005 301.349 300.516 301.46 300.078C301.879 298.399 303.27 297.36 305.095 297.36H493.34C496.195 297.36 498.831 299.792 499.094 302.67L510.277 423.193C510.384 424.379 510.055 425.465 509.346 426.24C508.869 426.765 507.993 427.392 506.553 427.392H318.308ZM318.308 427.392C315.453 427.392 312.817 424.96 312.556 422.085L301.371 301.559C301.317 301.005 301.349 300.516 301.46 300.078C301.879 298.399 303.27 297.36 305.095 297.36H493.34C496.195 297.36 498.831 299.792 499.094 302.67L510.277 423.193C510.384 424.379 510.055 425.465 509.346 426.24C508.869 426.765 507.993 427.392 506.553 427.392H318.308ZM318.308 427.392C315.453 427.392 312.817 424.96 312.556 422.085L301.371 301.559C301.317 301.005 301.349 300.516 301.46 300.078C301.879 298.399 303.27 297.36 305.095 297.36H493.34C496.195 297.36 498.831 299.792 499.094 302.67L510.277 423.193C510.384 424.379 510.055 425.465 509.346 426.24C508.869 426.765 507.993 427.392 506.553 427.392H318.308ZM318.308 427.392C315.453 427.392 312.817 424.96 312.556 422.085L301.371 301.559C301.317 301.005 301.349 300.516 301.46 300.078C301.879 298.399 303.27 297.36 305.095 297.36H493.34C496.195 297.36 498.831 299.792 499.094 302.67L510.277 423.193C510.384 424.379 510.055 425.465 509.346 426.24C508.869 426.765 507.993 427.392 506.553 427.392H318.308ZM318.308 427.392C315.453 427.392 312.817 424.96 312.556 422.085L301.371 301.559C301.317 301.005 301.349 300.516 301.46 300.078C301.879 298.399 303.27 297.36 305.095 297.36H493.34C496.195 297.36 498.831 299.792 499.094 302.67L510.277 423.193C510.384 424.379 510.055 425.465 509.346 426.24C508.869 426.765 507.993 427.392 506.553 427.392H318.308ZM318.308 427.392C315.453 427.392 312.817 424.96 312.556 422.085L301.371 301.559C301.317 301.005 301.349 300.516 301.46 300.078C301.879 298.399 303.27 297.36 305.095 297.36H493.34C496.195 297.36 498.831 299.792 499.094 302.67L510.277 423.193C510.384 424.379 510.055 425.465 509.346 426.24C508.869 426.765 507.993 427.392 506.553 427.392H318.308Z" fill="#605F91"/>
<path d="M414.366 375.549H320.951L315.467 314.441H408.881L414.366 375.549ZM414.366 375.549H320.951L315.467 314.441H408.881L414.366 375.549ZM414.366 375.549H320.951L315.467 314.441H408.881L414.366 375.549ZM414.366 375.549H320.951L315.467 314.441H408.881L414.366 375.549ZM414.366 375.549H320.951L315.467 314.441H408.881L414.366 375.549ZM414.366 375.549H320.951L315.467 314.441H408.881L414.366 375.549ZM414.366 375.549H320.951L315.467 314.441H408.881L414.366 375.549ZM414.366 375.549H320.951L315.467 314.441H408.881L414.366 375.549ZM410.674 372.494H324.094L319.912 325.9H406.491L410.674 372.494ZM410.674 372.494H324.094L319.912 325.9H406.491L410.674 372.494ZM410.674 372.494H324.094L319.912 325.9H406.491L410.674 372.494ZM410.674 372.494H324.094L319.912 325.9H406.491L410.674 372.494ZM410.674 372.494H324.094L319.912 325.9H406.491L410.674 372.494ZM410.674 372.494H324.094L319.912 325.9H406.491L410.674 372.494ZM410.674 372.494H324.094L319.912 325.9H406.491L410.674 372.494ZM410.674 372.494H324.094L319.912 325.9H406.491L410.674 372.494Z" fill="#0A42C0"/>
<path d="M410.674 372.494H324.094L319.912 325.9H406.491L410.674 372.494ZM410.674 372.494H324.094L319.912 325.9H406.491L410.674 372.494ZM410.674 372.494H324.094L319.912 325.9H406.491L410.674 372.494ZM410.674 372.494H324.094L319.912 325.9H406.491L410.674 372.494ZM410.674 372.494H324.094L319.912 325.9H406.491L410.674 372.494ZM410.674 372.494H324.094L319.912 325.9H406.491L410.674 372.494ZM410.674 372.494H324.094L319.912 325.9H406.491L410.674 372.494ZM410.674 372.494H324.094L319.912 325.9H406.491L410.674 372.494Z" fill="#253138"/>
<path d="M332.396 363.543H365.34ZM332.396 363.543H365.34ZM332.396 363.543H365.34ZM332.396 363.543H365.34ZM332.396 363.543H365.34ZM332.396 363.543H365.34ZM332.396 363.543H365.34ZM332.396 363.543H365.34ZM331.589 356.198H376.461ZM331.589 356.198H376.461ZM331.589 356.198H376.461ZM331.589 356.198H376.461ZM331.589 356.198H376.461ZM331.589 356.198H376.461ZM331.589 356.198H376.461ZM331.589 356.198H376.461ZM330.782 348.853H397.806ZM330.782 348.853H397.806ZM330.782 348.853H397.806ZM330.782 348.853H397.806ZM330.782 348.853H397.806ZM330.782 348.853H397.806ZM330.782 348.853H397.806ZM330.782 348.853H397.806ZM329.976 341.507H362.92ZM329.976 341.507H362.92ZM329.976 341.507H362.92ZM329.976 341.507H362.92ZM329.976 341.507H362.92ZM329.976 341.507H362.92ZM329.976 341.507H362.92ZM329.976 341.507H362.92ZM390.666 334.162C394.104 334.162 396.191 334.162 396.191 334.162ZM390.666 334.162C394.104 334.162 396.191 334.162 396.191 334.162ZM390.666 334.162C394.104 334.162 396.191 334.162 396.191 334.162ZM390.666 334.162C394.104 334.162 396.191 334.162 396.191 334.162ZM390.666 334.162C394.104 334.162 396.191 334.162 396.191 334.162ZM390.666 334.162C394.104 334.162 396.191 334.162 396.191 334.162ZM390.666 334.162C394.104 334.162 396.191 334.162 396.191 334.162ZM390.666 334.162C394.104 334.162 396.191 334.162 396.191 334.162Z" fill="#9E0303"/>
<path d="M332.396 363.543H365.34M331.589 356.198H376.461M330.782 348.853H397.806M329.976 341.507H362.92M390.666 334.162C394.104 334.162 396.191 334.162 396.191 334.162" stroke="#6D79E4" stroke-width="2.15299"/>
<path d="M493.882 417.196H388.81L382.639 348.463H487.713L493.882 417.196ZM493.882 417.196H388.81L382.639 348.463H487.713L493.882 417.196ZM493.882 417.196H388.81L382.639 348.463H487.713L493.882 417.196ZM493.882 417.196H388.81L382.639 348.463H487.713L493.882 417.196ZM493.882 417.196H388.81L382.639 348.463H487.713L493.882 417.196ZM493.882 417.196H388.81L382.639 348.463H487.713L493.882 417.196ZM493.882 417.196H388.81L382.639 348.463H487.713L493.882 417.196ZM493.882 417.196H388.81L382.639 348.463H487.713L493.882 417.196ZM489.729 413.757H392.346L387.639 361.35H485.025L489.729 413.757ZM489.729 413.757H392.346L387.639 361.35H485.025L489.729 413.757ZM489.729 413.757H392.346L387.639 361.35H485.025L489.729 413.757ZM489.729 413.757H392.346L387.639 361.35H485.025L489.729 413.757ZM489.729 413.757H392.346L387.639 361.35H485.025L489.729 413.757ZM489.729 413.757H392.346L387.639 361.35H485.025L489.729 413.757ZM489.729 413.757H392.346L387.639 361.35H485.025L489.729 413.757ZM489.729 413.757H392.346L387.639 361.35H485.025L489.729 413.757Z" fill="#0A42C0"/>
<path d="M489.729 413.758H392.346L387.639 361.35H485.025L489.729 413.758ZM489.729 413.758H392.346L387.639 361.35H485.025L489.729 413.758ZM489.729 413.758H392.346L387.639 361.35H485.025L489.729 413.758ZM489.729 413.758H392.346L387.639 361.35H485.025L489.729 413.758ZM489.729 413.758H392.346L387.639 361.35H485.025L489.729 413.758ZM489.729 413.758H392.346L387.639 361.35H485.025L489.729 413.758ZM489.729 413.758H392.346L387.639 361.35H485.025L489.729 413.758ZM489.729 413.758H392.346L387.639 361.35H485.025L489.729 413.758Z" fill="#253138"/>
<path d="M400.43 378.418C400.43 378.418 413.161 378.418 428.172 378.418ZM400.43 378.418C400.43 378.418 413.161 378.418 428.172 378.418ZM400.43 378.418C400.43 378.418 413.161 378.418 428.172 378.418ZM400.43 378.418C400.43 378.418 413.161 378.418 428.172 378.418ZM400.43 378.418C400.43 378.418 413.161 378.418 428.172 378.418ZM400.43 378.418C400.43 378.418 413.161 378.418 428.172 378.418ZM400.43 378.418C400.43 378.418 413.161 378.418 428.172 378.418ZM400.43 378.418C400.43 378.418 413.161 378.418 428.172 378.418ZM399.378 370.156H444.114ZM399.378 370.156H444.114ZM399.378 370.156H444.114ZM399.378 370.156H444.114ZM399.378 370.156H444.114ZM399.378 370.156H444.114ZM399.378 370.156H444.114ZM399.378 370.156H444.114Z" fill="#9E0303"/>
<path d="M400.43 378.418C400.43 378.418 413.161 378.418 428.172 378.418M399.378 370.156H444.114" stroke="#6D79E4" stroke-width="2.42295"/>
<path d="M288.61 414.239H124.904L105.76 307.452H269.463L288.61 414.239ZM288.61 414.239H124.904L105.76 307.452H269.463L288.61 414.239ZM288.61 414.239H124.904L105.76 307.452H269.463L288.61 414.239ZM288.61 414.239H124.904L105.76 307.452H269.463L288.61 414.239ZM288.61 414.239H124.904L105.76 307.452H269.463L288.61 414.239ZM288.61 414.239H124.904L105.76 307.452H269.463L288.61 414.239ZM288.61 414.239H124.904L105.76 307.452H269.463L288.61 414.239ZM288.61 414.239H124.904L105.76 307.452H269.463L288.61 414.239ZM170.045 410.052H127.443L111.674 322.117H154.278L170.045 410.052ZM170.045 410.052H127.443L111.674 322.117H154.278L170.045 410.052ZM170.045 410.052H127.443L111.674 322.117H154.278L170.045 410.052ZM170.045 410.052H127.443L111.674 322.117H154.278L170.045 410.052ZM170.045 410.052H127.443L111.674 322.117H154.278L170.045 410.052ZM170.045 410.052H127.443L111.674 322.117H154.278L170.045 410.052ZM170.045 410.052H127.443L111.674 322.117H154.278L170.045 410.052ZM170.045 410.052H127.443L111.674 322.117H154.278L170.045 410.052ZM173.873 410.052H284.411L268.645 322.117H158.104L173.873 410.052ZM173.873 410.052H284.411L268.645 322.117H158.104L173.873 410.052ZM173.873 410.052H284.411L268.645 322.117H158.104L173.873 410.052ZM173.873 410.052H284.411L268.645 322.117H158.104L173.873 410.052ZM173.873 410.052H284.411L268.645 322.117H158.104L173.873 410.052ZM173.873 410.052H284.411L268.645 322.117H158.104L173.873 410.052ZM173.873 410.052H284.411L268.645 322.117H158.104L173.873 410.052ZM173.873 410.052H284.411L268.645 322.117H158.104L173.873 410.052Z" fill="#605F91"/>
<path d="M170.044 410.052H127.443L111.674 322.117H154.278L170.044 410.052ZM170.044 410.052H127.443L111.674 322.117H154.278L170.044 410.052ZM170.044 410.052H127.443L111.674 322.117H154.278L170.044 410.052ZM170.044 410.052H127.443L111.674 322.117H154.278L170.044 410.052ZM170.044 410.052H127.443L111.674 322.117H154.278L170.044 410.052ZM170.044 410.052H127.443L111.674 322.117H154.278L170.044 410.052ZM170.044 410.052H127.443L111.674 322.117H154.278L170.044 410.052ZM170.044 410.052H127.443L111.674 322.117H154.278L170.044 410.052ZM173.873 410.052H284.411L268.645 322.117H158.104L173.873 410.052ZM173.873 410.052H284.411L268.645 322.117H158.104L173.873 410.052ZM173.873 410.052H284.411L268.645 322.117H158.104L173.873 410.052ZM173.873 410.052H284.411L268.645 322.117H158.104L173.873 410.052ZM173.873 410.052H284.411L268.645 322.117H158.104L173.873 410.052ZM173.873 410.052H284.411L268.645 322.117H158.104L173.873 410.052ZM173.873 410.052H284.411L268.645 322.117H158.104L173.873 410.052ZM173.873 410.052H284.411L268.645 322.117H158.104L173.873 410.052Z" fill="#AFC6FC"/>
<path d="M121.237 354.695C121.237 354.695 123.391 354.695 126.61 354.695ZM121.237 354.695C121.237 354.695 123.391 354.695 126.61 354.695ZM121.237 354.695C121.237 354.695 123.391 354.695 126.61 354.695ZM121.237 354.695C121.237 354.695 123.391 354.695 126.61 354.695ZM121.237 354.695C121.237 354.695 123.391 354.695 126.61 354.695ZM121.237 354.695C121.237 354.695 123.391 354.695 126.61 354.695ZM120.29 349.388H135.749ZM120.29 349.388H135.749ZM120.29 349.388H135.749ZM120.29 349.388H135.749ZM120.29 349.388H135.749ZM120.29 349.388H135.749ZM119.35 344.059H140.404ZM119.35 344.059H140.404ZM119.35 344.059H140.404ZM119.35 344.059H140.404ZM119.35 344.059H140.404ZM119.35 344.059H140.404ZM118.41 338.728H149.86ZM118.41 338.728H149.86ZM118.41 338.728H149.86ZM118.41 338.728H149.86ZM118.41 338.728H149.86ZM118.41 338.728H149.86ZM117.47 333.397H132.929ZM117.47 333.397H132.929ZM117.47 333.397H132.929ZM117.47 333.397H132.929ZM117.47 333.397H132.929ZM117.47 333.397H132.929ZM116.53 328.068H147.981ZM116.53 328.068H147.981ZM116.53 328.068H147.981ZM116.53 328.068H147.981ZM116.53 328.068H147.981ZM116.53 328.068H147.981Z" fill="#9E0303"/>
<path d="M121.224 354.688C121.224 354.688 123.397 354.688 126.599 354.688" stroke="#253138" stroke-width="1.2193"/>
<path d="M120.29 349.388H135.749M119.35 344.059H140.404M118.41 338.728H149.86M117.47 333.397H132.929M116.53 328.068H147.981" stroke="#253138" stroke-width="1.2193"/>
<path d="M167.254 344.059C167.254 344.059 171.595 344.059 177.987 344.059ZM167.254 344.059C167.254 344.059 171.595 344.059 177.987 344.059ZM167.254 344.059C167.254 344.059 171.595 344.059 177.987 344.059ZM167.254 344.059C167.254 344.059 171.595 344.059 177.987 344.059ZM167.254 344.059C167.254 344.059 171.595 344.059 177.987 344.059ZM167.254 344.059C167.254 344.059 171.595 344.059 177.987 344.059ZM167.254 344.059C167.254 344.059 171.595 344.059 177.987 344.059ZM167.254 344.059C167.254 344.059 171.595 344.059 177.987 344.059ZM166.478 338.728H248.945ZM166.478 338.728H248.945ZM166.478 338.728H248.945ZM166.478 338.728H248.945ZM166.478 338.728H248.945ZM166.478 338.728H248.945ZM166.478 338.728H248.945ZM166.478 338.728H248.945ZM165.705 333.397H211.477ZM165.705 333.397H211.477ZM165.705 333.397H211.477ZM165.705 333.397H211.477ZM165.705 333.397H211.477ZM165.705 333.397H211.477ZM165.705 333.397H211.477ZM165.705 333.397H211.477ZM164.93 328.068H258.054ZM164.93 328.068H258.054ZM164.93 328.068H258.054ZM164.93 328.068H258.054ZM164.93 328.068H258.054ZM164.93 328.068H258.054ZM164.93 328.068H258.054ZM164.93 328.068H258.054ZM177.413 402.635H251.441ZM177.413 402.635H251.441ZM177.413 402.635H251.441ZM177.413 402.635H251.441ZM177.413 402.635H251.441ZM177.413 402.635H251.441ZM177.413 402.635H251.441ZM176.644 397.311H238.983ZM176.644 397.311H238.983ZM176.644 397.311H238.983ZM176.644 397.311H238.983ZM176.644 397.311H238.983ZM176.644 397.311H238.983ZM176.644 397.311H238.983ZM175.87 391.963H258.344ZM175.87 391.963H258.344ZM175.87 391.963H258.344ZM175.87 391.963H258.344ZM175.87 391.963H258.344ZM175.87 391.963H258.344ZM175.87 391.963H258.344ZM175.101 386.639H220.863ZM175.101 386.639H220.863ZM175.101 386.639H220.863ZM175.101 386.639H220.863ZM175.101 386.639H220.863ZM175.101 386.639H220.863ZM175.101 386.639H220.863ZM174.331 381.315H267.453ZM174.331 381.315H267.453ZM174.331 381.315H267.453ZM174.331 381.315H267.453ZM174.331 381.315H267.453ZM174.331 381.315H267.453ZM174.331 381.315H267.453ZM172.719 376.015H246.747ZM172.719 376.015H246.747ZM172.719 376.015H246.747ZM172.719 376.015H246.747ZM172.719 376.015H246.747ZM172.719 376.015H246.747ZM172.719 376.015H246.747ZM171.95 370.691H234.289ZM171.95 370.691H234.289ZM171.95 370.691H234.289ZM171.95 370.691H234.289ZM171.95 370.691H234.289ZM171.95 370.691H234.289ZM171.95 370.691H234.289ZM171.176 365.343H253.65ZM171.176 365.343H253.65ZM171.176 365.343H253.65ZM171.176 365.343H253.65ZM171.176 365.343H253.65ZM171.176 365.343H253.65ZM171.176 365.343H253.65ZM170.407 360.019H216.169ZM170.407 360.019H216.169ZM170.407 360.019H216.169ZM170.407 360.019H216.169ZM170.407 360.019H216.169ZM170.407 360.019H216.169ZM170.407 360.019H216.169ZM169.637 354.695H262.759ZM169.637 354.695H262.759ZM169.637 354.695H262.759ZM169.637 354.695H262.759ZM169.637 354.695H262.759ZM169.637 354.695H262.759ZM169.637 354.695H262.759ZM168.029 349.388H242.052ZM168.029 349.388H242.052ZM168.029 349.388H242.052ZM168.029 349.388H242.052ZM168.029 349.388H242.052ZM168.029 349.388H242.052ZM168.029 349.388H242.052ZM167.254 344.059H229.6ZM167.254 344.059H229.6ZM167.254 344.059H229.6ZM167.254 344.059H229.6ZM167.254 344.059H229.6ZM167.254 344.059H229.6ZM167.254 344.059H229.6ZM209.167 338.728C229.287 338.728 248.945 338.728 248.945 338.728ZM209.167 338.728C229.287 338.728 248.945 338.728 248.945 338.728ZM209.167 338.728C229.287 338.728 248.945 338.728 248.945 338.728ZM209.167 338.728C229.287 338.728 248.945 338.728 248.945 338.728ZM209.167 338.728C229.287 338.728 248.945 338.728 248.945 338.728ZM209.167 338.728C229.287 338.728 248.945 338.728 248.945 338.728ZM209.167 338.728C229.287 338.728 248.945 338.728 248.945 338.728Z" fill="#9E0303"/>
<path d="M177.417 402.628H251.44M176.641 397.299H238.988M175.866 391.968H258.332M175.093 386.637H220.865M174.318 381.308H267.442" stroke="#253138" stroke-width="1.2193"/>
<path d="M172.723 376.008H246.746M171.948 370.679H234.294M171.172 365.348H253.639M170.399 360.017H216.171M169.624 354.688H262.748" stroke="#253138" stroke-width="1.2193"/>
<path d="M168.029 349.388H242.052M167.254 344.059H229.6M209.167 338.728C229.287 338.728 248.945 338.728 248.945 338.728" stroke="#253138" stroke-width="1.2193"/>
<path d="M336.388 468.757L338.777 459.732L469.413 459.723L514.602 464.236L516.322 468.747L336.388 468.757ZM336.388 468.757L338.777 459.732L469.413 459.723L514.602 464.236L516.322 468.747L336.388 468.757ZM336.388 468.757L338.777 459.732L469.413 459.723L514.602 464.236L516.322 468.747L336.388 468.757ZM336.388 468.757L338.777 459.732L469.413 459.723L514.602 464.236L516.322 468.747L336.388 468.757ZM336.388 468.757L338.777 459.732L469.413 459.723L514.602 464.236L516.322 468.747L336.388 468.757ZM336.388 468.757L338.777 459.732L469.413 459.723L514.602 464.236L516.322 468.747L336.388 468.757ZM336.388 468.757L338.777 459.732L469.413 459.723L514.602 464.236L516.322 468.747L336.388 468.757ZM336.388 468.757L338.777 459.732L469.413 459.723L514.602 464.236L516.322 468.747L336.388 468.757ZM479.626 464.725L469.5 468.749H335.638L338.818 459.723L352.002 464.725H479.626ZM479.626 464.725L469.5 468.749H335.638L338.818 459.723L352.002 464.725H479.626ZM479.626 464.725L469.5 468.749H335.638L338.818 459.723L352.002 464.725H479.626ZM479.626 464.725L469.5 468.749H335.638L338.818 459.723L352.002 464.725H479.626ZM479.626 464.725L469.5 468.749H335.638L338.818 459.723L352.002 464.725H479.626ZM479.626 464.725L469.5 468.749H335.638L338.818 459.723L352.002 464.725H479.626ZM479.626 464.725L469.5 468.749H335.638L338.818 459.723L352.002 464.725H479.626ZM479.626 464.725L469.5 468.749H335.638L338.818 459.723L352.002 464.725H479.626Z" fill="#70797F"/>
<path d="M479.626 464.725L469.5 468.749H335.638L338.818 459.723L352.002 464.725H479.626ZM479.626 464.725L469.5 468.749H335.638L338.818 459.723L352.002 464.725H479.626ZM479.626 464.725L469.5 468.749H335.638L338.818 459.723L352.002 464.725H479.626ZM479.626 464.725L469.5 468.749H335.638L338.818 459.723L352.002 464.725H479.626ZM479.626 464.725L469.5 468.749H335.638L338.818 459.723L352.002 464.725H479.626ZM479.626 464.725L469.5 468.749H335.638L338.818 459.723L352.002 464.725H479.626ZM479.626 464.725L469.5 468.749H335.638L338.818 459.723L352.002 464.725H479.626ZM479.626 464.725L469.5 468.749H335.638L338.818 459.723L352.002 464.725H479.626Z" fill="#515B60"/>
<path d="M531.833 447.897L516.603 440.484C516.603 440.484 498.519 438.957 492.378 439.923C490.351 440.24 484.268 450.537 485.44 449.196C483.091 452.197 481.044 458.387 483.256 459.563C487.533 461.838 486.073 455.599 490.526 450.515C488.731 453.771 485.918 458.589 488.425 459.595C493.294 461.551 496.142 453.405 497.957 453.098C500.181 452.72 501.245 452.325 502.943 452.803C503.762 454.149 496.534 456.955 499.852 459.264C504.887 462.765 506.85 454.428 513.434 458.965C514.534 459.723 510.821 457.81 510.821 457.81L527.969 460.581C527.969 460.581 536.813 459.199 537.886 455.671C538.843 452.53 531.833 447.897 531.833 447.897ZM531.833 447.897L516.603 440.484C516.603 440.484 498.519 438.957 492.378 439.923C490.351 440.24 484.268 450.537 485.44 449.196C483.091 452.197 481.044 458.387 483.256 459.563C487.533 461.838 486.073 455.599 490.526 450.515C488.731 453.771 485.918 458.589 488.425 459.595C493.294 461.551 496.142 453.405 497.957 453.098C500.181 452.72 501.245 452.325 502.943 452.803C503.762 454.149 496.534 456.955 499.852 459.264C504.887 462.765 506.85 454.428 513.434 458.965C514.534 459.723 510.821 457.81 510.821 457.81L527.969 460.581C527.969 460.581 536.813 459.199 537.886 455.671C538.843 452.53 531.833 447.897 531.833 447.897ZM531.833 447.897L516.603 440.484C516.603 440.484 498.519 438.957 492.378 439.923C490.351 440.24 484.268 450.537 485.44 449.196C483.091 452.197 481.044 458.387 483.256 459.563C487.533 461.838 486.073 455.599 490.526 450.515C488.731 453.771 485.918 458.589 488.425 459.595C493.294 461.551 496.142 453.405 497.957 453.098C500.181 452.72 501.245 452.325 502.943 452.803C503.762 454.149 496.534 456.955 499.852 459.264C504.887 462.765 506.85 454.428 513.434 458.965C514.534 459.723 510.821 457.81 510.821 457.81L527.969 460.581C527.969 460.581 536.813 459.199 537.886 455.671C538.843 452.53 531.833 447.897 531.833 447.897ZM531.833 447.897L516.603 440.484C516.603 440.484 498.519 438.957 492.378 439.923C490.351 440.24 484.268 450.537 485.44 449.196C483.091 452.197 481.044 458.387 483.256 459.563C487.533 461.838 486.073 455.599 490.526 450.515C488.731 453.771 485.918 458.589 488.425 459.595C493.294 461.551 496.142 453.405 497.957 453.098C500.181 452.72 501.245 452.325 502.943 452.803C503.762 454.149 496.534 456.955 499.852 459.264C504.887 462.765 506.85 454.428 513.434 458.965C514.534 459.723 510.821 457.81 510.821 457.81L527.969 460.581C527.969 460.581 536.813 459.199 537.886 455.671C538.843 452.53 531.833 447.897 531.833 447.897ZM531.833 447.897L516.603 440.484C516.603 440.484 498.519 438.957 492.378 439.923C490.351 440.24 484.268 450.537 485.44 449.196C483.091 452.197 481.044 458.387 483.256 459.563C487.533 461.838 486.073 455.599 490.526 450.515C488.731 453.771 485.918 458.589 488.425 459.595C493.294 461.551 496.142 453.405 497.957 453.098C500.181 452.72 501.245 452.325 502.943 452.803C503.762 454.149 496.534 456.955 499.852 459.264C504.887 462.765 506.85 454.428 513.434 458.965C514.534 459.723 510.821 457.81 510.821 457.81L527.969 460.581C527.969 460.581 536.813 459.199 537.886 455.671C538.843 452.53 531.833 447.897 531.833 447.897ZM531.833 447.897L516.603 440.484C516.603 440.484 498.519 438.957 492.378 439.923C490.351 440.24 484.268 450.537 485.44 449.196C483.091 452.197 481.044 458.387 483.256 459.563C487.533 461.838 486.073 455.599 490.526 450.515C488.731 453.771 485.918 458.589 488.425 459.595C493.294 461.551 496.142 453.405 497.957 453.098C500.181 452.72 501.245 452.325 502.943 452.803C503.762 454.149 496.534 456.955 499.852 459.264C504.887 462.765 506.85 454.428 513.434 458.965C514.534 459.723 510.821 457.81 510.821 457.81L527.969 460.581C527.969 460.581 536.813 459.199 537.886 455.671C538.843 452.53 531.833 447.897 531.833 447.897ZM531.833 447.897L516.603 440.484C516.603 440.484 498.519 438.957 492.378 439.923C490.351 440.24 484.268 450.537 485.44 449.196C483.091 452.197 481.044 458.387 483.256 459.563C487.533 461.838 486.073 455.599 490.526 450.515C488.731 453.771 485.918 458.589 488.425 459.595C493.294 461.551 496.142 453.405 497.957 453.098C500.181 452.72 501.245 452.325 502.943 452.803C503.762 454.149 496.534 456.955 499.852 459.264C504.887 462.765 506.85 454.428 513.434 458.965C514.534 459.723 510.821 457.81 510.821 457.81L527.969 460.581C527.969 460.581 536.813 459.199 537.886 455.671C538.843 452.53 531.833 447.897 531.833 447.897ZM531.833 447.897L516.603 440.484C516.603 440.484 498.519 438.957 492.378 439.923C490.351 440.24 484.268 450.537 485.44 449.196C483.091 452.197 481.044 458.387 483.256 459.563C487.533 461.838 486.073 455.599 490.526 450.515C488.731 453.771 485.918 458.589 488.425 459.595C493.294 461.551 496.142 453.405 497.957 453.098C500.181 452.72 501.245 452.325 502.943 452.803C503.762 454.149 496.534 456.955 499.852 459.264C504.887 462.765 506.85 454.428 513.434 458.965C514.534 459.723 510.821 457.81 510.821 457.81L527.969 460.581C527.969 460.581 536.813 459.199 537.886 455.671C538.843 452.53 531.833 447.897 531.833 447.897ZM534.967 444.9L517.981 435.768C517.981 435.768 503.512 432.075 497.371 433.041C495.345 433.359 484.083 437.397 480.565 441.056C473.421 448.487 473.781 458.166 477.167 458.641C479.985 459.037 478.895 454.304 480.477 450.904C481.448 448.749 484.268 450.537 485.44 449.196C491.395 449.806 498.743 453.976 500.548 454.338C506.116 455.451 506.85 454.428 513.434 458.965C514.534 459.723 510.821 457.81 510.821 457.81L526.641 464.5C526.641 464.5 538.905 462.448 540.98 457.562C542.808 453.261 534.967 444.9 534.967 444.9ZM534.967 444.9L517.981 435.768C517.981 435.768 503.512 432.075 497.371 433.041C495.345 433.359 484.083 437.397 480.565 441.056C473.421 448.487 473.781 458.166 477.167 458.641C479.985 459.037 478.895 454.304 480.477 450.904C481.448 448.749 484.268 450.537 485.44 449.196C491.395 449.806 498.743 453.976 500.548 454.338C506.116 455.451 506.85 454.428 513.434 458.965C514.534 459.723 510.821 457.81 510.821 457.81L526.641 464.5C526.641 464.5 538.905 462.448 540.98 457.562C542.808 453.261 534.967 444.9 534.967 444.9ZM534.967 444.9L517.981 435.768C517.981 435.768 503.512 432.075 497.371 433.041C495.345 433.359 484.083 437.397 480.565 441.056C473.421 448.487 473.781 458.166 477.167 458.641C479.985 459.037 478.895 454.304 480.477 450.904C481.448 448.749 484.268 450.537 485.44 449.196C491.395 449.806 498.743 453.976 500.548 454.338C506.116 455.451 506.85 454.428 513.434 458.965C514.534 459.723 510.821 457.81 510.821 457.81L526.641 464.5C526.641 464.5 538.905 462.448 540.98 457.562C542.808 453.261 534.967 444.9 534.967 444.9ZM534.967 444.9L517.981 435.768C517.981 435.768 503.512 432.075 497.371 433.041C495.345 433.359 484.083 437.397 480.565 441.056C473.421 448.487 473.781 458.166 477.167 458.641C479.985 459.037 478.895 454.304 480.477 450.904C481.448 448.749 484.268 450.537 485.44 449.196C491.395 449.806 498.743 453.976 500.548 454.338C506.116 455.451 506.85 454.428 513.434 458.965C514.534 459.723 510.821 457.81 510.821 457.81L526.641 464.5C526.641 464.5 538.905 462.448 540.98 457.562C542.808 453.261 534.967 444.9 534.967 444.9ZM534.967 444.9L517.981 435.768C517.981 435.768 503.512 432.075 497.371 433.041C495.345 433.359 484.083 437.397 480.565 441.056C473.421 448.487 473.781 458.166 477.167 458.641C479.985 459.037 478.895 454.304 480.477 450.904C481.448 448.749 484.268 450.537 485.44 449.196C491.395 449.806 498.743 453.976 500.548 454.338C506.116 455.451 506.85 454.428 513.434 458.965C514.534 459.723 510.821 457.81 510.821 457.81L526.641 464.5C526.641 464.5 538.905 462.448 540.98 457.562C542.808 453.261 534.967 444.9 534.967 444.9ZM534.967 444.9L517.981 435.768C517.981 435.768 503.512 432.075 497.371 433.041C495.345 433.359 484.083 437.397 480.565 441.056C473.421 448.487 473.781 458.166 477.167 458.641C479.985 459.037 478.895 454.304 480.477 450.904C481.448 448.749 484.268 450.537 485.44 449.196C491.395 449.806 498.743 453.976 500.548 454.338C506.116 455.451 506.85 454.428 513.434 458.965C514.534 459.723 510.821 457.81 510.821 457.81L526.641 464.5C526.641 464.5 538.905 462.448 540.98 457.562C542.808 453.261 534.967 444.9 534.967 444.9ZM534.967 444.9L517.981 435.768C517.981 435.768 503.512 432.075 497.371 433.041C495.345 433.359 484.083 437.397 480.565 441.056C473.421 448.487 473.781 458.166 477.167 458.641C479.985 459.037 478.895 454.304 480.477 450.904C481.448 448.749 484.268 450.537 485.44 449.196C491.395 449.806 498.743 453.976 500.548 454.338C506.116 455.451 506.85 454.428 513.434 458.965C514.534 459.723 510.821 457.81 510.821 457.81L526.641 464.5C526.641 464.5 538.905 462.448 540.98 457.562C542.808 453.261 534.967 444.9 534.967 444.9ZM534.967 444.9L517.981 435.768C517.981 435.768 503.512 432.075 497.371 433.041C495.345 433.359 484.083 437.397 480.565 441.056C473.421 448.487 473.781 458.166 477.167 458.641C479.985 459.037 478.895 454.304 480.477 450.904C481.448 448.749 484.268 450.537 485.44 449.196C491.395 449.806 498.743 453.976 500.548 454.338C506.116 455.451 506.85 454.428 513.434 458.965C514.534 459.723 510.821 457.81 510.821 457.81L526.641 464.5C526.641 464.5 538.905 462.448 540.98 457.562C542.808 453.261 534.967 444.9 534.967 444.9Z" fill="#B55D4F"/>
<path d="M534.967 444.9L517.981 435.768C517.981 435.768 503.512 432.075 497.371 433.041C495.345 433.359 484.083 437.397 480.565 441.056C473.421 448.487 473.781 458.166 477.167 458.641C479.985 459.037 478.895 454.304 480.477 450.904C481.448 448.749 484.268 450.537 485.44 449.196C491.395 449.806 498.743 453.976 500.548 454.338C506.116 455.451 506.85 454.428 513.434 458.965C514.534 459.723 510.821 457.81 510.821 457.81L526.641 464.5C526.641 464.5 538.905 462.448 540.98 457.562C542.808 453.261 534.967 444.9 534.967 444.9ZM534.967 444.9L517.981 435.768C517.981 435.768 503.512 432.075 497.371 433.041C495.345 433.359 484.083 437.397 480.565 441.056C473.421 448.487 473.781 458.166 477.167 458.641C479.985 459.037 478.895 454.304 480.477 450.904C481.448 448.749 484.268 450.537 485.44 449.196C491.395 449.806 498.743 453.976 500.548 454.338C506.116 455.451 506.85 454.428 513.434 458.965C514.534 459.723 510.821 457.81 510.821 457.81L526.641 464.5C526.641 464.5 538.905 462.448 540.98 457.562C542.808 453.261 534.967 444.9 534.967 444.9ZM534.967 444.9L517.981 435.768C517.981 435.768 503.512 432.075 497.371 433.041C495.345 433.359 484.083 437.397 480.565 441.056C473.421 448.487 473.781 458.166 477.167 458.641C479.985 459.037 478.895 454.304 480.477 450.904C481.448 448.749 484.268 450.537 485.44 449.196C491.395 449.806 498.743 453.976 500.548 454.338C506.116 455.451 506.85 454.428 513.434 458.965C514.534 459.723 510.821 457.81 510.821 457.81L526.641 464.5C526.641 464.5 538.905 462.448 540.98 457.562C542.808 453.261 534.967 444.9 534.967 444.9ZM534.967 444.9L517.981 435.768C517.981 435.768 503.512 432.075 497.371 433.041C495.345 433.359 484.083 437.397 480.565 441.056C473.421 448.487 473.781 458.166 477.167 458.641C479.985 459.037 478.895 454.304 480.477 450.904C481.448 448.749 484.268 450.537 485.44 449.196C491.395 449.806 498.743 453.976 500.548 454.338C506.116 455.451 506.85 454.428 513.434 458.965C514.534 459.723 510.821 457.81 510.821 457.81L526.641 464.5C526.641 464.5 538.905 462.448 540.98 457.562C542.808 453.261 534.967 444.9 534.967 444.9ZM534.967 444.9L517.981 435.768C517.981 435.768 503.512 432.075 497.371 433.041C495.345 433.359 484.083 437.397 480.565 441.056C473.421 448.487 473.781 458.166 477.167 458.641C479.985 459.037 478.895 454.304 480.477 450.904C481.448 448.749 484.268 450.537 485.44 449.196C491.395 449.806 498.743 453.976 500.548 454.338C506.116 455.451 506.85 454.428 513.434 458.965C514.534 459.723 510.821 457.81 510.821 457.81L526.641 464.5C526.641 464.5 538.905 462.448 540.98 457.562C542.808 453.261 534.967 444.9 534.967 444.9ZM534.967 444.9L517.981 435.768C517.981 435.768 503.512 432.075 497.371 433.041C495.345 433.359 484.083 437.397 480.565 441.056C473.421 448.487 473.781 458.166 477.167 458.641C479.985 459.037 478.895 454.304 480.477 450.904C481.448 448.749 484.268 450.537 485.44 449.196C491.395 449.806 498.743 453.976 500.548 454.338C506.116 455.451 506.85 454.428 513.434 458.965C514.534 459.723 510.821 457.81 510.821 457.81L526.641 464.5C526.641 464.5 538.905 462.448 540.98 457.562C542.808 453.261 534.967 444.9 534.967 444.9ZM534.967 444.9L517.981 435.768C517.981 435.768 503.512 432.075 497.371 433.041C495.345 433.359 484.083 437.397 480.565 441.056C473.421 448.487 473.781 458.166 477.167 458.641C479.985 459.037 478.895 454.304 480.477 450.904C481.448 448.749 484.268 450.537 485.44 449.196C491.395 449.806 498.743 453.976 500.548 454.338C506.116 455.451 506.85 454.428 513.434 458.965C514.534 459.723 510.821 457.81 510.821 457.81L526.641 464.5C526.641 464.5 538.905 462.448 540.98 457.562C542.808 453.261 534.967 444.9 534.967 444.9ZM534.967 444.9L517.981 435.768C517.981 435.768 503.512 432.075 497.371 433.041C495.345 433.359 484.083 437.397 480.565 441.056C473.421 448.487 473.781 458.166 477.167 458.641C479.985 459.037 478.895 454.304 480.477 450.904C481.448 448.749 484.268 450.537 485.44 449.196C491.395 449.806 498.743 453.976 500.548 454.338C506.116 455.451 506.85 454.428 513.434 458.965C514.534 459.723 510.821 457.81 510.821 457.81L526.641 464.5C526.641 464.5 538.905 462.448 540.98 457.562C542.808 453.261 534.967 444.9 534.967 444.9Z" fill="#E3887A"/>
<path d="M615.194 384.949C604.87 395.67 575.373 444.82 566.973 446.659C558.331 448.554 546.357 440.941 536.783 443.828C527.21 446.715 517.38 455.422 519.597 461.003C521.813 466.588 544.3 481.481 572.195 482.286C596.083 482.976 646.414 423.502 646.414 423.502C646.414 400.515 615.194 384.949 615.194 384.949ZM615.194 384.949C604.87 395.67 575.373 444.82 566.973 446.659C558.331 448.554 546.357 440.941 536.783 443.828C527.21 446.715 517.38 455.422 519.597 461.003C521.813 466.588 544.3 481.481 572.195 482.286C596.083 482.976 646.414 423.502 646.414 423.502C646.414 400.515 615.194 384.949 615.194 384.949ZM615.194 384.949C604.87 395.67 575.373 444.82 566.973 446.659C558.331 448.554 546.357 440.941 536.783 443.828C527.21 446.715 517.38 455.422 519.597 461.003C521.813 466.588 544.3 481.481 572.195 482.286C596.083 482.976 646.414 423.502 646.414 423.502C646.414 400.515 615.194 384.949 615.194 384.949ZM615.194 384.949C604.87 395.67 575.373 444.82 566.973 446.659C558.331 448.554 546.357 440.941 536.783 443.828C527.21 446.715 517.38 455.422 519.597 461.003C521.813 466.588 544.3 481.481 572.195 482.286C596.083 482.976 646.414 423.502 646.414 423.502C646.414 400.515 615.194 384.949 615.194 384.949ZM615.194 384.949C604.87 395.67 575.373 444.82 566.973 446.659C558.331 448.554 546.357 440.941 536.783 443.828C527.21 446.715 517.38 455.422 519.597 461.003C521.813 466.588 544.3 481.481 572.195 482.286C596.083 482.976 646.414 423.502 646.414 423.502C646.414 400.515 615.194 384.949 615.194 384.949ZM615.194 384.949C604.87 395.67 575.373 444.82 566.973 446.659C558.331 448.554 546.357 440.941 536.783 443.828C527.21 446.715 517.38 455.422 519.597 461.003C521.813 466.588 544.3 481.481 572.195 482.286C596.083 482.976 646.414 423.502 646.414 423.502C646.414 400.515 615.194 384.949 615.194 384.949ZM615.194 384.949C604.87 395.67 575.373 444.82 566.973 446.659C558.331 448.554 546.357 440.941 536.783 443.828C527.21 446.715 517.38 455.422 519.597 461.003C521.813 466.588 544.3 481.481 572.195 482.286C596.083 482.976 646.414 423.502 646.414 423.502C646.414 400.515 615.194 384.949 615.194 384.949ZM615.194 384.949C604.87 395.67 575.373 444.82 566.973 446.659C558.331 448.554 546.357 440.941 536.783 443.828C527.21 446.715 517.38 455.422 519.597 461.003C521.813 466.588 544.3 481.481 572.195 482.286C596.083 482.976 646.414 423.502 646.414 423.502C646.414 400.515 615.194 384.949 615.194 384.949Z" fill="#7489B9"/>
<path d="M614.625 830.838L595.347 828.196L592.676 782.371L611.927 785.037L614.625 830.838ZM614.625 830.838L595.347 828.196L592.676 782.371L611.927 785.037L614.625 830.838ZM614.625 830.838L595.347 828.196L592.676 782.371L611.927 785.037L614.625 830.838ZM614.625 830.838L595.347 828.196L592.676 782.371L611.927 785.037L614.625 830.838ZM614.625 830.838L595.347 828.196L592.676 782.371L611.927 785.037L614.625 830.838ZM614.625 830.838L595.347 828.196L592.676 782.371L611.927 785.037L614.625 830.838ZM614.625 830.838L595.347 828.196L592.676 782.371L611.927 785.037L614.625 830.838ZM614.625 830.838L595.347 828.196L592.676 782.371L611.927 785.037L614.625 830.838Z" fill="#EBB376"/>
<path d="M593.893 825.87L615.673 824.51C616.43 824.43 617.111 824.977 617.19 825.735C617.193 825.742 617.193 825.749 617.193 825.756L619.332 842.941C619.448 844.819 618.033 846.44 616.157 846.581C608.549 846.931 604.899 846.719 595.311 847.241C589.428 847.595 577.834 848.843 569.715 848.057C561.598 847.273 562.593 839.267 566.099 838.885C574.412 837.939 585.423 831.831 590.624 827.196C591.536 826.403 592.685 825.936 593.893 825.87ZM593.893 825.87L615.673 824.51C616.43 824.43 617.111 824.977 617.19 825.735C617.193 825.742 617.193 825.749 617.193 825.756L619.332 842.941C619.448 844.819 618.033 846.44 616.157 846.581C608.549 846.931 604.899 846.719 595.311 847.241C589.428 847.595 577.834 848.843 569.715 848.057C561.598 847.273 562.593 839.267 566.099 838.885C574.412 837.939 585.423 831.831 590.624 827.196C591.536 826.403 592.685 825.936 593.893 825.87ZM593.893 825.87L615.673 824.51C616.43 824.43 617.111 824.977 617.19 825.735C617.193 825.742 617.193 825.749 617.193 825.756L619.332 842.941C619.448 844.819 618.033 846.44 616.157 846.581C608.549 846.931 604.899 846.719 595.311 847.241C589.428 847.595 577.834 848.843 569.715 848.057C561.598 847.273 562.593 839.267 566.099 838.885C574.412 837.939 585.423 831.831 590.624 827.196C591.536 826.403 592.685 825.936 593.893 825.87ZM593.893 825.87L615.673 824.51C616.43 824.43 617.111 824.977 617.19 825.735C617.193 825.742 617.193 825.749 617.193 825.756L619.332 842.941C619.448 844.819 618.033 846.44 616.157 846.581C608.549 846.931 604.899 846.719 595.311 847.241C589.428 847.595 577.834 848.843 569.715 848.057C561.598 847.273 562.593 839.267 566.099 838.885C574.412 837.939 585.423 831.831 590.624 827.196C591.536 826.403 592.685 825.936 593.893 825.87ZM593.893 825.87L615.673 824.51C616.43 824.43 617.111 824.977 617.19 825.735C617.193 825.742 617.193 825.749 617.193 825.756L619.332 842.941C619.448 844.819 618.033 846.44 616.157 846.581C608.549 846.931 604.899 846.719 595.311 847.241C589.428 847.595 577.834 848.843 569.715 848.057C561.598 847.273 562.593 839.267 566.099 838.885C574.412 837.939 585.423 831.831 590.624 827.196C591.536 826.403 592.685 825.936 593.893 825.87ZM593.893 825.87L615.673 824.51C616.43 824.43 617.111 824.977 617.19 825.735C617.193 825.742 617.193 825.749 617.193 825.756L619.332 842.941C619.448 844.819 618.033 846.44 616.157 846.581C608.549 846.931 604.899 846.719 595.311 847.241C589.428 847.595 577.834 848.843 569.715 848.057C561.598 847.273 562.593 839.267 566.099 838.885C574.412 837.939 585.423 831.831 590.624 827.196C591.536 826.403 592.685 825.936 593.893 825.87ZM593.893 825.87L615.673 824.51C616.43 824.43 617.111 824.977 617.19 825.735C617.193 825.742 617.193 825.749 617.193 825.756L619.332 842.941C619.448 844.819 618.033 846.44 616.157 846.581C608.549 846.931 604.899 846.719 595.311 847.241C589.428 847.595 577.834 848.843 569.715 848.057C561.598 847.273 562.593 839.267 566.099 838.885C574.412 837.939 585.423 831.831 590.624 827.196C591.536 826.403 592.685 825.936 593.893 825.87ZM593.893 825.87L615.673 824.51C616.43 824.43 617.111 824.977 617.19 825.735C617.193 825.742 617.193 825.749 617.193 825.756L619.332 842.941C619.448 844.819 618.033 846.44 616.157 846.581C608.549 846.931 604.899 846.719 595.311 847.241C589.428 847.595 577.834 848.843 569.715 848.057C561.598 847.273 562.593 839.267 566.099 838.885C574.412 837.939 585.423 831.831 590.624 827.196C591.536 826.403 592.685 825.936 593.893 825.87Z" fill="#253138"/>
<path d="M613.848 561.451L618.553 531.985L726.63 525.519C726.63 525.519 738.123 586.837 729.292 603.172C713.528 632.335 628.576 617.616 603.718 620.484C618.577 681.25 617.125 800 617.125 800L581.624 802.71C581.624 802.71 554.307 674.748 548.784 613.95C545.057 572.922 579.051 573.943 613.848 561.451ZM613.848 561.451L618.553 531.985L726.63 525.519C726.63 525.519 738.123 586.837 729.292 603.172C713.528 632.335 628.576 617.616 603.718 620.484C618.577 681.25 617.125 800 617.125 800L581.624 802.71C581.624 802.71 554.307 674.748 548.784 613.95C545.057 572.922 579.051 573.943 613.848 561.451ZM613.848 561.451L618.553 531.985L726.63 525.519C726.63 525.519 738.123 586.837 729.292 603.172C713.528 632.335 628.576 617.616 603.718 620.484C618.577 681.25 617.125 800 617.125 800L581.624 802.71C581.624 802.71 554.307 674.748 548.784 613.95C545.057 572.922 579.051 573.943 613.848 561.451ZM613.848 561.451L618.553 531.985L726.63 525.519C726.63 525.519 738.123 586.837 729.292 603.172C713.528 632.335 628.576 617.616 603.718 620.484C618.577 681.25 617.125 800 617.125 800L581.624 802.71C581.624 802.71 554.307 674.748 548.784 613.95C545.057 572.922 579.051 573.943 613.848 561.451ZM613.848 561.451L618.553 531.985L726.63 525.519C726.63 525.519 738.123 586.837 729.292 603.172C713.528 632.335 628.576 617.616 603.718 620.484C618.577 681.25 617.125 800 617.125 800L581.624 802.71C581.624 802.71 554.307 674.748 548.784 613.95C545.057 572.922 579.051 573.943 613.848 561.451ZM613.848 561.451L618.553 531.985L726.63 525.519C726.63 525.519 738.123 586.837 729.292 603.172C713.528 632.335 628.576 617.616 603.718 620.484C618.577 681.25 617.125 800 617.125 800L581.624 802.71C581.624 802.71 554.307 674.748 548.784 613.95C545.057 572.922 579.051 573.943 613.848 561.451ZM613.848 561.451L618.553 531.985L726.63 525.519C726.63 525.519 738.123 586.837 729.292 603.172C713.528 632.335 628.576 617.616 603.718 620.484C618.577 681.25 617.125 800 617.125 800L581.624 802.71C581.624 802.71 554.307 674.748 548.784 613.95C545.057 572.922 579.051 573.943 613.848 561.451ZM613.848 561.451L618.553 531.985L726.63 525.519C726.63 525.519 738.123 586.837 729.292 603.172C713.528 632.335 628.576 617.616 603.718 620.484C618.577 681.25 617.125 800 617.125 800L581.624 802.71C581.624 802.71 554.307 674.748 548.784 613.95C545.057 572.922 579.051 573.943 613.848 561.451Z" fill="#1E282D"/>
<path d="M534.931 311.58C535.416 316.121 533.461 320.054 530.571 320.364C527.68 320.671 524.941 317.237 524.455 312.695C523.973 308.151 525.927 304.22 528.818 303.914C531.709 303.604 534.448 307.038 534.931 311.58Z" stroke="#253138" stroke-width="1.21" stroke-miterlimit="10"/>
<path d="M534.926 334.991C535.383 336.029 535.868 337.035 536.412 337.985C539.61 343.744 544.394 348.129 549.873 350.849C551.308 351.572 552.801 352.183 554.322 352.677C562.359 355.26 571.27 354.517 578.643 349.744C581.668 347.828 584.465 345.195 586.805 341.84C596.105 328.71 593.65 315.74 591.255 293.489C590.812 288.688 589.277 284.056 586.704 279.993C577.759 265.653 558.866 261.303 544.55 270.248C524.391 282.651 526.862 315.939 534.926 334.991ZM534.926 334.991C535.383 336.029 535.868 337.035 536.412 337.985C539.61 343.744 544.394 348.129 549.873 350.849C551.308 351.572 552.801 352.183 554.322 352.677C562.359 355.26 571.27 354.517 578.643 349.744C581.668 347.828 584.465 345.195 586.805 341.84C596.105 328.71 593.65 315.74 591.255 293.489C590.812 288.688 589.277 284.056 586.704 279.993C577.759 265.653 558.866 261.303 544.55 270.248C524.391 282.651 526.862 315.939 534.926 334.991ZM534.926 334.991C535.383 336.029 535.868 337.035 536.412 337.985C539.61 343.744 544.394 348.129 549.873 350.849C551.308 351.572 552.801 352.183 554.322 352.677C562.359 355.26 571.27 354.517 578.643 349.744C581.668 347.828 584.465 345.195 586.805 341.84C596.105 328.71 593.65 315.74 591.255 293.489C590.812 288.688 589.277 284.056 586.704 279.993C577.759 265.653 558.866 261.303 544.55 270.248C524.391 282.651 526.862 315.939 534.926 334.991ZM534.926 334.991C535.383 336.029 535.868 337.035 536.412 337.985C539.61 343.744 544.394 348.129 549.873 350.849C551.308 351.572 552.801 352.183 554.322 352.677C562.359 355.26 571.27 354.517 578.643 349.744C581.668 347.828 584.465 345.195 586.805 341.84C596.105 328.71 593.65 315.74 591.255 293.489C590.812 288.688 589.277 284.056 586.704 279.993C577.759 265.653 558.866 261.303 544.55 270.248C524.391 282.651 526.862 315.939 534.926 334.991ZM534.926 334.991C535.383 336.029 535.868 337.035 536.412 337.985C539.61 343.744 544.394 348.129 549.873 350.849C551.308 351.572 552.801 352.183 554.322 352.677C562.359 355.26 571.27 354.517 578.643 349.744C581.668 347.828 584.465 345.195 586.805 341.84C596.105 328.71 593.65 315.74 591.255 293.489C590.812 288.688 589.277 284.056 586.704 279.993C577.759 265.653 558.866 261.303 544.55 270.248C524.391 282.651 526.862 315.939 534.926 334.991ZM534.926 334.991C535.383 336.029 535.868 337.035 536.412 337.985C539.61 343.744 544.394 348.129 549.873 350.849C551.308 351.572 552.801 352.183 554.322 352.677C562.359 355.26 571.27 354.517 578.643 349.744C581.668 347.828 584.465 345.195 586.805 341.84C596.105 328.71 593.65 315.74 591.255 293.489C590.812 288.688 589.277 284.056 586.704 279.993C577.759 265.653 558.866 261.303 544.55 270.248C524.391 282.651 526.862 315.939 534.926 334.991ZM534.926 334.991C535.383 336.029 535.868 337.035 536.412 337.985C539.61 343.744 544.394 348.129 549.873 350.849C551.308 351.572 552.801 352.183 554.322 352.677C562.359 355.26 571.27 354.517 578.643 349.744C581.668 347.828 584.465 345.195 586.805 341.84C596.105 328.71 593.65 315.74 591.255 293.489C590.812 288.688 589.277 284.056 586.704 279.993C577.759 265.653 558.866 261.303 544.55 270.248C524.391 282.651 526.862 315.939 534.926 334.991ZM534.926 334.991C535.383 336.029 535.868 337.035 536.412 337.985C539.61 343.744 544.394 348.129 549.873 350.849C551.308 351.572 552.801 352.183 554.322 352.677C562.359 355.26 571.27 354.517 578.643 349.744C581.668 347.828 584.465 345.195 586.805 341.84C596.105 328.71 593.65 315.74 591.255 293.489C590.812 288.688 589.277 284.056 586.704 279.993C577.759 265.653 558.866 261.303 544.55 270.248C524.391 282.651 526.862 315.939 534.926 334.991Z" fill="#E3887A"/>
<path d="M549.87 350.848C551.305 351.572 552.796 352.18 554.319 352.677C562.357 355.26 571.267 354.517 578.641 349.741C576.385 345.741 573.464 342.913 573.464 342.913C573.464 342.913 559.955 343.067 549.87 350.848ZM549.87 350.848C551.305 351.572 552.796 352.18 554.319 352.677C562.357 355.26 571.267 354.517 578.641 349.741C576.385 345.741 573.464 342.913 573.464 342.913C573.464 342.913 559.955 343.067 549.87 350.848ZM549.87 350.848C551.305 351.572 552.796 352.18 554.319 352.677C562.357 355.26 571.267 354.517 578.641 349.741C576.385 345.741 573.464 342.913 573.464 342.913C573.464 342.913 559.955 343.067 549.87 350.848ZM549.87 350.848C551.305 351.572 552.796 352.18 554.319 352.677C562.357 355.26 571.267 354.517 578.641 349.741C576.385 345.741 573.464 342.913 573.464 342.913C573.464 342.913 559.955 343.067 549.87 350.848ZM549.87 350.848C551.305 351.572 552.796 352.18 554.319 352.677C562.357 355.26 571.267 354.517 578.641 349.741C576.385 345.741 573.464 342.913 573.464 342.913C573.464 342.913 559.955 343.067 549.87 350.848ZM549.87 350.848C551.305 351.572 552.796 352.18 554.319 352.677C562.357 355.26 571.267 354.517 578.641 349.741C576.385 345.741 573.464 342.913 573.464 342.913C573.464 342.913 559.955 343.067 549.87 350.848ZM549.87 350.848C551.305 351.572 552.796 352.18 554.319 352.677C562.357 355.26 571.267 354.517 578.641 349.741C576.385 345.741 573.464 342.913 573.464 342.913C573.464 342.913 559.955 343.067 549.87 350.848ZM549.87 350.848C551.305 351.572 552.796 352.18 554.319 352.677C562.357 355.26 571.267 354.517 578.641 349.741C576.385 345.741 573.464 342.913 573.464 342.913C573.464 342.913 559.955 343.067 549.87 350.848Z" fill="#B66E62"/>
<path d="M608.159 356.954C604.295 371.313 579.6 382.763 579.6 382.763C579.6 382.763 562.947 387.971 563.082 381.636C570.543 374.903 572.083 368.418 570.555 362.365C569.66 358.841 567.711 355.482 565.288 352.291C564.033 350.603 562.618 348.984 561.172 347.42L575.907 308.642C581.027 324.715 592.71 352.83 608.159 356.954ZM608.159 356.954C604.295 371.313 579.6 382.763 579.6 382.763C579.6 382.763 562.947 387.971 563.082 381.636C570.543 374.903 572.083 368.418 570.555 362.365C569.66 358.841 567.711 355.482 565.288 352.291C564.033 350.603 562.618 348.984 561.172 347.42L575.907 308.642C581.027 324.715 592.71 352.83 608.159 356.954ZM608.159 356.954C604.295 371.313 579.6 382.763 579.6 382.763C579.6 382.763 562.947 387.971 563.082 381.636C570.543 374.903 572.083 368.418 570.555 362.365C569.66 358.841 567.711 355.482 565.288 352.291C564.033 350.603 562.618 348.984 561.172 347.42L575.907 308.642C581.027 324.715 592.71 352.83 608.159 356.954ZM608.159 356.954C604.295 371.313 579.6 382.763 579.6 382.763C579.6 382.763 562.947 387.971 563.082 381.636C570.543 374.903 572.083 368.418 570.555 362.365C569.66 358.841 567.711 355.482 565.288 352.291C564.033 350.603 562.618 348.984 561.172 347.42L575.907 308.642C581.027 324.715 592.71 352.83 608.159 356.954ZM608.159 356.954C604.295 371.313 579.6 382.763 579.6 382.763C579.6 382.763 562.947 387.971 563.082 381.636C570.543 374.903 572.083 368.418 570.555 362.365C569.66 358.841 567.711 355.482 565.288 352.291C564.033 350.603 562.618 348.984 561.172 347.42L575.907 308.642C581.027 324.715 592.71 352.83 608.159 356.954ZM608.159 356.954C604.295 371.313 579.6 382.763 579.6 382.763C579.6 382.763 562.947 387.971 563.082 381.636C570.543 374.903 572.083 368.418 570.555 362.365C569.66 358.841 567.711 355.482 565.288 352.291C564.033 350.603 562.618 348.984 561.172 347.42L575.907 308.642C581.027 324.715 592.71 352.83 608.159 356.954ZM608.159 356.954C604.295 371.313 579.6 382.763 579.6 382.763C579.6 382.763 562.947 387.971 563.082 381.636C570.543 374.903 572.083 368.418 570.555 362.365C569.66 358.841 567.711 355.482 565.288 352.291C564.033 350.603 562.618 348.984 561.172 347.42L575.907 308.642C581.027 324.715 592.71 352.83 608.159 356.954ZM608.159 356.954C604.295 371.313 579.6 382.763 579.6 382.763C579.6 382.763 562.947 387.971 563.082 381.636C570.543 374.903 572.083 368.418 570.555 362.365C569.66 358.841 567.711 355.482 565.288 352.291C564.033 350.603 562.618 348.984 561.172 347.42L575.907 308.642C581.027 324.715 592.71 352.83 608.159 356.954Z" fill="#E3887A"/>
<path d="M531.451 293.581C530.958 294.189 530.654 294.918 530.65 295.701C530.629 300.145 531.91 315.99 550.463 324.726C551.098 325.025 551.66 325.466 552.081 326.027C554.611 329.396 564.081 341.679 568.5 342.803C573.626 344.104 582.341 341.25 587.42 339.125C592.5 337 601.128 306.477 591.128 283.477C582.478 263.582 560.722 265.184 555.005 265.979C554.091 266.106 553.294 266.599 552.714 267.316L531.451 293.581ZM531.451 293.581C530.958 294.189 530.654 294.918 530.65 295.701C530.629 300.145 531.91 315.99 550.463 324.726C551.098 325.025 551.66 325.466 552.081 326.027C554.611 329.396 564.081 341.679 568.5 342.803C573.626 344.104 582.341 341.25 587.42 339.125C592.5 337 601.128 306.477 591.128 283.477C582.478 263.582 560.722 265.184 555.005 265.979C554.091 266.106 553.294 266.599 552.714 267.316L531.451 293.581ZM531.451 293.581C530.958 294.189 530.654 294.918 530.65 295.701C530.629 300.145 531.91 315.99 550.463 324.726C551.098 325.025 551.66 325.466 552.081 326.027C554.611 329.396 564.081 341.679 568.5 342.803C573.626 344.104 582.341 341.25 587.42 339.125C592.5 337 601.128 306.477 591.128 283.477C582.478 263.582 560.722 265.184 555.005 265.979C554.091 266.106 553.294 266.599 552.714 267.316L531.451 293.581ZM531.451 293.581C530.958 294.189 530.654 294.918 530.65 295.701C530.629 300.145 531.91 315.99 550.463 324.726C551.098 325.025 551.66 325.466 552.081 326.027C554.611 329.396 564.081 341.679 568.5 342.803C573.626 344.104 582.341 341.25 587.42 339.125C592.5 337 601.128 306.477 591.128 283.477C582.478 263.582 560.722 265.184 555.005 265.979C554.091 266.106 553.294 266.599 552.714 267.316L531.451 293.581ZM531.451 293.581C530.958 294.189 530.654 294.918 530.65 295.701C530.629 300.145 531.91 315.99 550.463 324.726C551.098 325.025 551.66 325.466 552.081 326.027C554.611 329.396 564.081 341.679 568.5 342.803C573.626 344.104 582.341 341.25 587.42 339.125C592.5 337 601.128 306.477 591.128 283.477C582.478 263.582 560.722 265.184 555.005 265.979C554.091 266.106 553.294 266.599 552.714 267.316L531.451 293.581ZM531.451 293.581C530.958 294.189 530.654 294.918 530.65 295.701C530.629 300.145 531.91 315.99 550.463 324.726C551.098 325.025 551.66 325.466 552.081 326.027C554.611 329.396 564.081 341.679 568.5 342.803C573.626 344.104 582.341 341.25 587.42 339.125C592.5 337 601.128 306.477 591.128 283.477C582.478 263.582 560.722 265.184 555.005 265.979C554.091 266.106 553.294 266.599 552.714 267.316L531.451 293.581ZM531.451 293.581C530.958 294.189 530.654 294.918 530.65 295.701C530.629 300.145 531.91 315.99 550.463 324.726C551.098 325.025 551.66 325.466 552.081 326.027C554.611 329.396 564.081 341.679 568.5 342.803C573.626 344.104 582.341 341.25 587.42 339.125C592.5 337 601.128 306.477 591.128 283.477C582.478 263.582 560.722 265.184 555.005 265.979C554.091 266.106 553.294 266.599 552.714 267.316L531.451 293.581ZM531.451 293.581C530.958 294.189 530.654 294.918 530.65 295.701C530.629 300.145 531.91 315.99 550.463 324.726C551.098 325.025 551.66 325.466 552.081 326.027C554.611 329.396 564.081 341.679 568.5 342.803C573.626 344.104 582.341 341.25 587.42 339.125C592.5 337 601.128 306.477 591.128 283.477C582.478 263.582 560.722 265.184 555.005 265.979C554.091 266.106 553.294 266.599 552.714 267.316L531.451 293.581Z" fill="#959DA2"/>
<path d="M556.381 312.434C555.858 317.449 553.804 321.405 550.665 323.442C546.491 326.092 542.497 320.258 542.049 313.521C541.69 307.547 543.359 298.771 548.343 299.067C553.329 299.365 556.962 306.245 556.381 312.434ZM556.381 312.434C555.858 317.449 553.804 321.405 550.665 323.442C546.491 326.092 542.497 320.258 542.049 313.521C541.69 307.547 543.359 298.771 548.343 299.067C553.329 299.365 556.962 306.245 556.381 312.434ZM556.381 312.434C555.858 317.449 553.804 321.405 550.665 323.442C546.491 326.092 542.497 320.258 542.049 313.521C541.69 307.547 543.359 298.771 548.343 299.067C553.329 299.365 556.962 306.245 556.381 312.434ZM556.381 312.434C555.858 317.449 553.804 321.405 550.665 323.442C546.491 326.092 542.497 320.258 542.049 313.521C541.69 307.547 543.359 298.771 548.343 299.067C553.329 299.365 556.962 306.245 556.381 312.434ZM556.381 312.434C555.858 317.449 553.804 321.405 550.665 323.442C546.491 326.092 542.497 320.258 542.049 313.521C541.69 307.547 543.359 298.771 548.343 299.067C553.329 299.365 556.962 306.245 556.381 312.434ZM556.381 312.434C555.858 317.449 553.804 321.405 550.665 323.442C546.491 326.092 542.497 320.258 542.049 313.521C541.69 307.547 543.359 298.771 548.343 299.067C553.329 299.365 556.962 306.245 556.381 312.434ZM556.381 312.434C555.858 317.449 553.804 321.405 550.665 323.442C546.491 326.092 542.497 320.258 542.049 313.521C541.69 307.547 543.359 298.771 548.343 299.067C553.329 299.365 556.962 306.245 556.381 312.434ZM556.381 312.434C555.858 317.449 553.804 321.405 550.665 323.442C546.491 326.092 542.497 320.258 542.049 313.521C541.69 307.547 543.359 298.771 548.343 299.067C553.329 299.365 556.962 306.245 556.381 312.434Z" fill="#E3887A"/>
<path d="M524.456 312.695L542.019 305.443" stroke="#253138" stroke-width="5" stroke-miterlimit="10"/>
<path d="M560.429 365.437C560.429 365.437 576.636 345.438 602.484 345.699L618.282 358.893L560.429 365.437ZM560.429 365.437C560.429 365.437 576.636 345.438 602.484 345.699L618.282 358.893L560.429 365.437ZM560.429 365.437C560.429 365.437 576.636 345.438 602.484 345.699L618.282 358.893L560.429 365.437ZM560.429 365.437C560.429 365.437 576.636 345.438 602.484 345.699L618.282 358.893L560.429 365.437ZM560.429 365.437C560.429 365.437 576.636 345.438 602.484 345.699L618.282 358.893L560.429 365.437ZM560.429 365.437C560.429 365.437 576.636 345.438 602.484 345.699L618.282 358.893L560.429 365.437ZM560.429 365.437C560.429 365.437 576.636 345.438 602.484 345.699L618.282 358.893L560.429 365.437ZM560.429 365.437C560.429 365.437 576.636 345.438 602.484 345.699L618.282 358.893L560.429 365.437Z" fill="#7489B9"/>
<path d="M621.287 801.668L578.623 804.475L574.969 786.204L621.844 784.026L621.287 801.668ZM621.287 801.668L578.623 804.475L574.969 786.204L621.844 784.026L621.287 801.668ZM621.287 801.668L578.623 804.475L574.969 786.204L621.844 784.026L621.287 801.668ZM621.287 801.668L578.623 804.475L574.969 786.204L621.844 784.026L621.287 801.668ZM621.287 801.668L578.623 804.475L574.969 786.204L621.844 784.026L621.287 801.668ZM621.287 801.668L578.623 804.475L574.969 786.204L621.844 784.026L621.287 801.668ZM621.287 801.668L578.623 804.475L574.969 786.204L621.844 784.026L621.287 801.668ZM621.287 801.668L578.623 804.475L574.969 786.204L621.844 784.026L621.287 801.668Z" fill="#435D98"/>
<path d="M570.153 830.667L550.747 832.095L538.586 787.83L557.971 786.429L570.153 830.667ZM570.153 830.667L550.747 832.095L538.586 787.83L557.971 786.429L570.153 830.667ZM570.153 830.667L550.747 832.095L538.586 787.83L557.971 786.429L570.153 830.667ZM570.153 830.667L550.747 832.095L538.586 787.83L557.971 786.429L570.153 830.667ZM570.153 830.667L550.747 832.095L538.586 787.83L557.971 786.429L570.153 830.667ZM570.153 830.667L550.747 832.095L538.586 787.83L557.971 786.429L570.153 830.667ZM570.153 830.667L550.747 832.095L538.586 787.83L557.971 786.429L570.153 830.667ZM570.153 830.667L550.747 832.095L538.586 787.83L557.971 786.429L570.153 830.667Z" fill="#EBB376"/>
<path d="M532.014 810.033L566.184 799.992C566.184 799.992 545.783 684.849 525.092 644.919C526.641 644.411 528.698 643.755 531.239 643.005C535.813 641.625 541.887 639.907 549.026 637.925C598.685 624.153 699.332 598.334 699.332 598.334L653.352 555.425C653.352 555.425 470.207 583.352 466.407 631.609C464.592 654.814 532.014 810.033 532.014 810.033ZM532.014 810.033L566.184 799.992C566.184 799.992 545.783 684.849 525.092 644.919C526.641 644.411 528.698 643.755 531.239 643.005C535.813 641.625 541.887 639.907 549.026 637.925C598.685 624.153 699.332 598.334 699.332 598.334L653.352 555.425C653.352 555.425 470.207 583.352 466.407 631.609C464.592 654.814 532.014 810.033 532.014 810.033ZM532.014 810.033L566.184 799.992C566.184 799.992 545.783 684.849 525.092 644.919C526.641 644.411 528.698 643.755 531.239 643.005C535.813 641.625 541.887 639.907 549.026 637.925C598.685 624.153 699.332 598.334 699.332 598.334L653.352 555.425C653.352 555.425 470.207 583.352 466.407 631.609C464.592 654.814 532.014 810.033 532.014 810.033ZM532.014 810.033L566.184 799.992C566.184 799.992 545.783 684.849 525.092 644.919C526.641 644.411 528.698 643.755 531.239 643.005C535.813 641.625 541.887 639.907 549.026 637.925C598.685 624.153 699.332 598.334 699.332 598.334L653.352 555.425C653.352 555.425 470.207 583.352 466.407 631.609C464.592 654.814 532.014 810.033 532.014 810.033ZM532.014 810.033L566.184 799.992C566.184 799.992 545.783 684.849 525.092 644.919C526.641 644.411 528.698 643.755 531.239 643.005C535.813 641.625 541.887 639.907 549.026 637.925C598.685 624.153 699.332 598.334 699.332 598.334L653.352 555.425C653.352 555.425 470.207 583.352 466.407 631.609C464.592 654.814 532.014 810.033 532.014 810.033ZM532.014 810.033L566.184 799.992C566.184 799.992 545.783 684.849 525.092 644.919C526.641 644.411 528.698 643.755 531.239 643.005C535.813 641.625 541.887 639.907 549.026 637.925C598.685 624.153 699.332 598.334 699.332 598.334L653.352 555.425C653.352 555.425 470.207 583.352 466.407 631.609C464.592 654.814 532.014 810.033 532.014 810.033ZM532.014 810.033L566.184 799.992C566.184 799.992 545.783 684.849 525.092 644.919C526.641 644.411 528.698 643.755 531.239 643.005C535.813 641.625 541.887 639.907 549.026 637.925C598.685 624.153 699.332 598.334 699.332 598.334L653.352 555.425C653.352 555.425 470.207 583.352 466.407 631.609C464.592 654.814 532.014 810.033 532.014 810.033ZM532.014 810.033L566.184 799.992C566.184 799.992 545.783 684.849 525.092 644.919C526.641 644.411 528.698 643.755 531.239 643.005C535.813 641.625 541.887 639.907 549.026 637.925C598.685 624.153 699.332 598.334 699.332 598.334L653.352 555.425C653.352 555.425 470.207 583.352 466.407 631.609C464.592 654.814 532.014 810.033 532.014 810.033Z" fill="#253138"/>
<path d="M570.596 800.743L529.453 812.376L522.072 795.267L567.464 783.375L570.596 800.743ZM570.596 800.743L529.453 812.376L522.072 795.267L567.464 783.375L570.596 800.743ZM570.596 800.743L529.453 812.376L522.072 795.267L567.464 783.375L570.596 800.743ZM570.596 800.743L529.453 812.376L522.072 795.267L567.464 783.375L570.596 800.743ZM570.596 800.743L529.453 812.376L522.072 795.267L567.464 783.375L570.596 800.743ZM570.596 800.743L529.453 812.376L522.072 795.267L567.464 783.375L570.596 800.743ZM570.596 800.743L529.453 812.376L522.072 795.267L567.464 783.375L570.596 800.743ZM570.596 800.743L529.453 812.376L522.072 795.267L567.464 783.375L570.596 800.743Z" fill="#435D98"/>
<path d="M548.74 828.98L570.124 824.624C570.86 824.441 571.612 824.887 571.797 825.626L571.803 825.648L576.293 842.372C576.668 844.213 575.492 846.017 573.653 846.415C566.166 847.814 562.523 848.108 553.099 849.952C547.32 851.112 536.01 853.952 527.861 854.295C519.713 854.641 519.592 846.575 523.012 845.712C531.113 843.626 541.173 836.053 545.684 830.744C546.479 829.833 547.554 829.213 548.74 828.98ZM548.74 828.98L570.124 824.624C570.86 824.441 571.612 824.887 571.797 825.626L571.803 825.648L576.293 842.372C576.668 844.213 575.492 846.017 573.653 846.415C566.166 847.814 562.523 848.108 553.099 849.952C547.32 851.112 536.01 853.952 527.861 854.295C519.713 854.641 519.592 846.575 523.012 845.712C531.113 843.626 541.173 836.053 545.684 830.744C546.479 829.833 547.554 829.213 548.74 828.98ZM548.74 828.98L570.124 824.624C570.86 824.441 571.612 824.887 571.797 825.626L571.803 825.648L576.293 842.372C576.668 844.213 575.492 846.017 573.653 846.415C566.166 847.814 562.523 848.108 553.099 849.952C547.32 851.112 536.01 853.952 527.861 854.295C519.713 854.641 519.592 846.575 523.012 845.712C531.113 843.626 541.173 836.053 545.684 830.744C546.479 829.833 547.554 829.213 548.74 828.98ZM548.74 828.98L570.124 824.624C570.86 824.441 571.612 824.887 571.797 825.626L571.803 825.648L576.293 842.372C576.668 844.213 575.492 846.017 573.653 846.415C566.166 847.814 562.523 848.108 553.099 849.952C547.32 851.112 536.01 853.952 527.861 854.295C519.713 854.641 519.592 846.575 523.012 845.712C531.113 843.626 541.173 836.053 545.684 830.744C546.479 829.833 547.554 829.213 548.74 828.98ZM548.74 828.98L570.124 824.624C570.86 824.441 571.612 824.887 571.797 825.626L571.803 825.648L576.293 842.372C576.668 844.213 575.492 846.017 573.653 846.415C566.166 847.814 562.523 848.108 553.099 849.952C547.32 851.112 536.01 853.952 527.861 854.295C519.713 854.641 519.592 846.575 523.012 845.712C531.113 843.626 541.173 836.053 545.684 830.744C546.479 829.833 547.554 829.213 548.74 828.98ZM548.74 828.98L570.124 824.624C570.86 824.441 571.612 824.887 571.797 825.626L571.803 825.648L576.293 842.372C576.668 844.213 575.492 846.017 573.653 846.415C566.166 847.814 562.523 848.108 553.099 849.952C547.32 851.112 536.01 853.952 527.861 854.295C519.713 854.641 519.592 846.575 523.012 845.712C531.113 843.626 541.173 836.053 545.684 830.744C546.479 829.833 547.554 829.213 548.74 828.98ZM548.74 828.98L570.124 824.624C570.86 824.441 571.612 824.887 571.797 825.626L571.803 825.648L576.293 842.372C576.668 844.213 575.492 846.017 573.653 846.415C566.166 847.814 562.523 848.108 553.099 849.952C547.32 851.112 536.01 853.952 527.861 854.295C519.713 854.641 519.592 846.575 523.012 845.712C531.113 843.626 541.173 836.053 545.684 830.744C546.479 829.833 547.554 829.213 548.74 828.98ZM548.74 828.98L570.124 824.624C570.86 824.441 571.612 824.887 571.797 825.626L571.803 825.648L576.293 842.372C576.668 844.213 575.492 846.017 573.653 846.415C566.166 847.814 562.523 848.108 553.099 849.952C547.32 851.112 536.01 853.952 527.861 854.295C519.713 854.641 519.592 846.575 523.012 845.712C531.113 843.626 541.173 836.053 545.684 830.744C546.479 829.833 547.554 829.213 548.74 828.98Z" fill="#253138"/>
<path d="M535.334 384.95C535.334 384.95 565.93 350.682 606.796 354.216C647.661 357.751 688.626 389.327 708.991 438.959C729.357 488.591 735.492 563.572 735.492 563.572C735.492 563.572 669.351 582.509 602.104 565.247C602.104 565.247 584.666 476.307 535.334 384.95ZM535.334 384.95C535.334 384.95 565.93 350.682 606.796 354.216C647.661 357.751 688.626 389.327 708.991 438.959C729.357 488.591 735.492 563.572 735.492 563.572C735.492 563.572 669.351 582.509 602.104 565.247C602.104 565.247 584.666 476.307 535.334 384.95ZM535.334 384.95C535.334 384.95 565.93 350.682 606.796 354.216C647.661 357.751 688.626 389.327 708.991 438.959C729.357 488.591 735.492 563.572 735.492 563.572C735.492 563.572 669.351 582.509 602.104 565.247C602.104 565.247 584.666 476.307 535.334 384.95ZM535.334 384.95C535.334 384.95 565.93 350.682 606.796 354.216C647.661 357.751 688.626 389.327 708.991 438.959C729.357 488.591 735.492 563.572 735.492 563.572C735.492 563.572 669.351 582.509 602.104 565.247C602.104 565.247 584.666 476.307 535.334 384.95ZM535.334 384.95C535.334 384.95 565.93 350.682 606.796 354.216C647.661 357.751 688.626 389.327 708.991 438.959C729.357 488.591 735.492 563.572 735.492 563.572C735.492 563.572 669.351 582.509 602.104 565.247C602.104 565.247 584.666 476.307 535.334 384.95ZM535.334 384.95C535.334 384.95 565.93 350.682 606.796 354.216C647.661 357.751 688.626 389.327 708.991 438.959C729.357 488.591 735.492 563.572 735.492 563.572C735.492 563.572 669.351 582.509 602.104 565.247C602.104 565.247 584.666 476.307 535.334 384.95ZM535.334 384.95C535.334 384.95 565.93 350.682 606.796 354.216C647.661 357.751 688.626 389.327 708.991 438.959C729.357 488.591 735.492 563.572 735.492 563.572C735.492 563.572 669.351 582.509 602.104 565.247C602.104 565.247 584.666 476.307 535.334 384.95ZM535.334 384.95C535.334 384.95 565.93 350.682 606.796 354.216C647.661 357.751 688.626 389.327 708.991 438.959C729.357 488.591 735.492 563.572 735.492 563.572C735.492 563.572 669.351 582.509 602.104 565.247C602.104 565.247 584.666 476.307 535.334 384.95Z" fill="#605F91"/>
<path d="M451.413 445.802L437.448 436.217C437.448 436.217 419.79 432.03 413.573 432.076C411.522 432.091 403.981 441.374 405.339 440.221C402.572 442.841 399.631 448.66 401.645 450.151C405.537 453.033 405.018 446.647 410.174 442.278C407.916 445.232 404.421 449.581 406.752 450.947C411.278 453.602 415.3 445.967 417.141 445.932C419.396 445.888 420.507 445.654 422.116 446.378C422.726 447.831 415.163 449.536 418.103 452.311C422.564 456.518 425.739 448.563 431.579 454.025C432.554 454.938 429.165 452.496 429.165 452.496L445.714 457.775C445.714 457.775 454.665 457.717 456.25 454.386C457.66 451.421 451.413 445.802 451.413 445.802ZM451.413 445.802L437.448 436.217C437.448 436.217 419.79 432.03 413.573 432.076C411.522 432.091 403.981 441.374 405.339 440.221C402.572 442.841 399.631 448.66 401.645 450.151C405.537 453.033 405.018 446.647 410.174 442.278C407.916 445.232 404.421 449.581 406.752 450.947C411.278 453.602 415.3 445.967 417.141 445.932C419.396 445.888 420.507 445.654 422.116 446.378C422.726 447.831 415.163 449.536 418.103 452.311C422.564 456.518 425.739 448.563 431.579 454.025C432.554 454.938 429.165 452.496 429.165 452.496L445.714 457.775C445.714 457.775 454.665 457.717 456.25 454.386C457.66 451.421 451.413 445.802 451.413 445.802ZM451.413 445.802L437.448 436.217C437.448 436.217 419.79 432.03 413.573 432.076C411.522 432.091 403.981 441.374 405.339 440.221C402.572 442.841 399.631 448.66 401.645 450.151C405.537 453.033 405.018 446.647 410.174 442.278C407.916 445.232 404.421 449.581 406.752 450.947C411.278 453.602 415.3 445.967 417.141 445.932C419.396 445.888 420.507 445.654 422.116 446.378C422.726 447.831 415.163 449.536 418.103 452.311C422.564 456.518 425.739 448.563 431.579 454.025C432.554 454.938 429.165 452.496 429.165 452.496L445.714 457.775C445.714 457.775 454.665 457.717 456.25 454.386C457.66 451.421 451.413 445.802 451.413 445.802ZM451.413 445.802L437.448 436.217C437.448 436.217 419.79 432.03 413.573 432.076C411.522 432.091 403.981 441.374 405.339 440.221C402.572 442.841 399.631 448.66 401.645 450.151C405.537 453.033 405.018 446.647 410.174 442.278C407.916 445.232 404.421 449.581 406.752 450.947C411.278 453.602 415.3 445.967 417.141 445.932C419.396 445.888 420.507 445.654 422.116 446.378C422.726 447.831 415.163 449.536 418.103 452.311C422.564 456.518 425.739 448.563 431.579 454.025C432.554 454.938 429.165 452.496 429.165 452.496L445.714 457.775C445.714 457.775 454.665 457.717 456.25 454.386C457.66 451.421 451.413 445.802 451.413 445.802ZM451.413 445.802L437.448 436.217C437.448 436.217 419.79 432.03 413.573 432.076C411.522 432.091 403.981 441.374 405.339 440.221C402.572 442.841 399.631 448.66 401.645 450.151C405.537 453.033 405.018 446.647 410.174 442.278C407.916 445.232 404.421 449.581 406.752 450.947C411.278 453.602 415.3 445.967 417.141 445.932C419.396 445.888 420.507 445.654 422.116 446.378C422.726 447.831 415.163 449.536 418.103 452.311C422.564 456.518 425.739 448.563 431.579 454.025C432.554 454.938 429.165 452.496 429.165 452.496L445.714 457.775C445.714 457.775 454.665 457.717 456.25 454.386C457.66 451.421 451.413 445.802 451.413 445.802ZM451.413 445.802L437.448 436.217C437.448 436.217 419.79 432.03 413.573 432.076C411.522 432.091 403.981 441.374 405.339 440.221C402.572 442.841 399.631 448.66 401.645 450.151C405.537 453.033 405.018 446.647 410.174 442.278C407.916 445.232 404.421 449.581 406.752 450.947C411.278 453.602 415.3 445.967 417.141 445.932C419.396 445.888 420.507 445.654 422.116 446.378C422.726 447.831 415.163 449.536 418.103 452.311C422.564 456.518 425.739 448.563 431.579 454.025C432.554 454.938 429.165 452.496 429.165 452.496L445.714 457.775C445.714 457.775 454.665 457.717 456.25 454.386C457.66 451.421 451.413 445.802 451.413 445.802ZM451.413 445.802L437.448 436.217C437.448 436.217 419.79 432.03 413.573 432.076C411.522 432.091 403.981 441.374 405.339 440.221C402.572 442.841 399.631 448.66 401.645 450.151C405.537 453.033 405.018 446.647 410.174 442.278C407.916 445.232 404.421 449.581 406.752 450.947C411.278 453.602 415.3 445.967 417.141 445.932C419.396 445.888 420.507 445.654 422.116 446.378C422.726 447.831 415.163 449.536 418.103 452.311C422.564 456.518 425.739 448.563 431.579 454.025C432.554 454.938 429.165 452.496 429.165 452.496L445.714 457.775C445.714 457.775 454.665 457.717 456.25 454.386C457.66 451.421 451.413 445.802 451.413 445.802ZM451.413 445.802L437.448 436.217C437.448 436.217 419.79 432.03 413.573 432.076C411.522 432.091 403.981 441.374 405.339 440.221C402.572 442.841 399.631 448.66 401.645 450.151C405.537 453.033 405.018 446.647 410.174 442.278C407.916 445.232 404.421 449.581 406.752 450.947C411.278 453.602 415.3 445.967 417.141 445.932C419.396 445.888 420.507 445.654 422.116 446.378C422.726 447.831 415.163 449.536 418.103 452.311C422.564 456.518 425.739 448.563 431.579 454.025C432.554 454.938 429.165 452.496 429.165 452.496L445.714 457.775C445.714 457.775 454.665 457.717 456.25 454.386C457.66 451.421 451.413 445.802 451.413 445.802ZM454.957 443.302L439.509 431.757C439.509 431.757 425.746 425.963 419.53 426.01C417.478 426.024 405.743 428.351 401.723 431.449C393.557 437.741 392.481 447.366 395.759 448.337C398.488 449.146 398.11 444.304 400.178 441.175C401.458 439.188 403.981 441.374 405.339 440.221C411.138 441.706 417.788 446.917 419.519 447.542C424.861 449.467 425.739 448.563 431.579 454.025C432.554 454.938 429.165 452.496 429.165 452.496L443.822 461.454C443.822 461.454 456.254 461.24 459.029 456.715C461.474 452.732 454.957 443.302 454.957 443.302ZM454.957 443.302L439.509 431.757C439.509 431.757 425.746 425.963 419.53 426.01C417.478 426.024 405.743 428.351 401.723 431.449C393.557 437.741 392.481 447.366 395.759 448.337C398.488 449.146 398.11 444.304 400.178 441.175C401.458 439.188 403.981 441.374 405.339 440.221C411.138 441.706 417.788 446.917 419.519 447.542C424.861 449.467 425.739 448.563 431.579 454.025C432.554 454.938 429.165 452.496 429.165 452.496L443.822 461.454C443.822 461.454 456.254 461.24 459.029 456.715C461.474 452.732 454.957 443.302 454.957 443.302ZM454.957 443.302L439.509 431.757C439.509 431.757 425.746 425.963 419.53 426.01C417.478 426.024 405.743 428.351 401.723 431.449C393.557 437.741 392.481 447.366 395.759 448.337C398.488 449.146 398.11 444.304 400.178 441.175C401.458 439.188 403.981 441.374 405.339 440.221C411.138 441.706 417.788 446.917 419.519 447.542C424.861 449.467 425.739 448.563 431.579 454.025C432.554 454.938 429.165 452.496 429.165 452.496L443.822 461.454C443.822 461.454 456.254 461.24 459.029 456.715C461.474 452.732 454.957 443.302 454.957 443.302ZM454.957 443.302L439.509 431.757C439.509 431.757 425.746 425.963 419.53 426.01C417.478 426.024 405.743 428.351 401.723 431.449C393.557 437.741 392.481 447.366 395.759 448.337C398.488 449.146 398.11 444.304 400.178 441.175C401.458 439.188 403.981 441.374 405.339 440.221C411.138 441.706 417.788 446.917 419.519 447.542C424.861 449.467 425.739 448.563 431.579 454.025C432.554 454.938 429.165 452.496 429.165 452.496L443.822 461.454C443.822 461.454 456.254 461.24 459.029 456.715C461.474 452.732 454.957 443.302 454.957 443.302ZM454.957 443.302L439.509 431.757C439.509 431.757 425.746 425.963 419.53 426.01C417.478 426.024 405.743 428.351 401.723 431.449C393.557 437.741 392.481 447.366 395.759 448.337C398.488 449.146 398.11 444.304 400.178 441.175C401.458 439.188 403.981 441.374 405.339 440.221C411.138 441.706 417.788 446.917 419.519 447.542C424.861 449.467 425.739 448.563 431.579 454.025C432.554 454.938 429.165 452.496 429.165 452.496L443.822 461.454C443.822 461.454 456.254 461.24 459.029 456.715C461.474 452.732 454.957 443.302 454.957 443.302ZM454.957 443.302L439.509 431.757C439.509 431.757 425.746 425.963 419.53 426.01C417.478 426.024 405.743 428.351 401.723 431.449C393.557 437.741 392.481 447.366 395.759 448.337C398.488 449.146 398.11 444.304 400.178 441.175C401.458 439.188 403.981 441.374 405.339 440.221C411.138 441.706 417.788 446.917 419.519 447.542C424.861 449.467 425.739 448.563 431.579 454.025C432.554 454.938 429.165 452.496 429.165 452.496L443.822 461.454C443.822 461.454 456.254 461.24 459.029 456.715C461.474 452.732 454.957 443.302 454.957 443.302ZM454.957 443.302L439.509 431.757C439.509 431.757 425.746 425.963 419.53 426.01C417.478 426.024 405.743 428.351 401.723 431.449C393.557 437.741 392.481 447.366 395.759 448.337C398.488 449.146 398.11 444.304 400.178 441.175C401.458 439.188 403.981 441.374 405.339 440.221C411.138 441.706 417.788 446.917 419.519 447.542C424.861 449.467 425.739 448.563 431.579 454.025C432.554 454.938 429.165 452.496 429.165 452.496L443.822 461.454C443.822 461.454 456.254 461.24 459.029 456.715C461.474 452.732 454.957 443.302 454.957 443.302ZM454.957 443.302L439.509 431.757C439.509 431.757 425.746 425.963 419.53 426.01C417.478 426.024 405.743 428.351 401.723 431.449C393.557 437.741 392.481 447.366 395.759 448.337C398.488 449.146 398.11 444.304 400.178 441.175C401.458 439.188 403.981 441.374 405.339 440.221C411.138 441.706 417.788 446.917 419.519 447.542C424.861 449.467 425.739 448.563 431.579 454.025C432.554 454.938 429.165 452.496 429.165 452.496L443.822 461.454C443.822 461.454 456.254 461.24 459.029 456.715C461.474 452.732 454.957 443.302 454.957 443.302Z" fill="#B55D4F"/>
<path d="M454.957 443.302L439.509 431.757C439.509 431.757 425.746 425.963 419.53 426.01C417.478 426.024 405.743 428.351 401.723 431.449C393.557 437.741 392.481 447.366 395.759 448.337C398.488 449.146 398.11 444.304 400.178 441.175C401.458 439.188 403.981 441.374 405.339 440.221C411.138 441.706 417.788 446.917 419.519 447.542C424.861 449.467 425.739 448.563 431.579 454.025C432.554 454.938 429.165 452.496 429.165 452.496L443.822 461.454C443.822 461.454 456.254 461.24 459.029 456.715C461.474 452.732 454.957 443.302 454.957 443.302ZM454.957 443.302L439.509 431.757C439.509 431.757 425.746 425.963 419.53 426.01C417.478 426.024 405.743 428.351 401.723 431.449C393.557 437.741 392.481 447.366 395.759 448.337C398.488 449.146 398.11 444.304 400.178 441.175C401.458 439.188 403.981 441.374 405.339 440.221C411.138 441.706 417.788 446.917 419.519 447.542C424.861 449.467 425.739 448.563 431.579 454.025C432.554 454.938 429.165 452.496 429.165 452.496L443.822 461.454C443.822 461.454 456.254 461.24 459.029 456.715C461.474 452.732 454.957 443.302 454.957 443.302ZM454.957 443.302L439.509 431.757C439.509 431.757 425.746 425.963 419.53 426.01C417.478 426.024 405.743 428.351 401.723 431.449C393.557 437.741 392.481 447.366 395.759 448.337C398.488 449.146 398.11 444.304 400.178 441.175C401.458 439.188 403.981 441.374 405.339 440.221C411.138 441.706 417.788 446.917 419.519 447.542C424.861 449.467 425.739 448.563 431.579 454.025C432.554 454.938 429.165 452.496 429.165 452.496L443.822 461.454C443.822 461.454 456.254 461.24 459.029 456.715C461.474 452.732 454.957 443.302 454.957 443.302ZM454.957 443.302L439.509 431.757C439.509 431.757 425.746 425.963 419.53 426.01C417.478 426.024 405.743 428.351 401.723 431.449C393.557 437.741 392.481 447.366 395.759 448.337C398.488 449.146 398.11 444.304 400.178 441.175C401.458 439.188 403.981 441.374 405.339 440.221C411.138 441.706 417.788 446.917 419.519 447.542C424.861 449.467 425.739 448.563 431.579 454.025C432.554 454.938 429.165 452.496 429.165 452.496L443.822 461.454C443.822 461.454 456.254 461.24 459.029 456.715C461.474 452.732 454.957 443.302 454.957 443.302ZM454.957 443.302L439.509 431.757C439.509 431.757 425.746 425.963 419.53 426.01C417.478 426.024 405.743 428.351 401.723 431.449C393.557 437.741 392.481 447.366 395.759 448.337C398.488 449.146 398.11 444.304 400.178 441.175C401.458 439.188 403.981 441.374 405.339 440.221C411.138 441.706 417.788 446.917 419.519 447.542C424.861 449.467 425.739 448.563 431.579 454.025C432.554 454.938 429.165 452.496 429.165 452.496L443.822 461.454C443.822 461.454 456.254 461.24 459.029 456.715C461.474 452.732 454.957 443.302 454.957 443.302ZM454.957 443.302L439.509 431.757C439.509 431.757 425.746 425.963 419.53 426.01C417.478 426.024 405.743 428.351 401.723 431.449C393.557 437.741 392.481 447.366 395.759 448.337C398.488 449.146 398.11 444.304 400.178 441.175C401.458 439.188 403.981 441.374 405.339 440.221C411.138 441.706 417.788 446.917 419.519 447.542C424.861 449.467 425.739 448.563 431.579 454.025C432.554 454.938 429.165 452.496 429.165 452.496L443.822 461.454C443.822 461.454 456.254 461.24 459.029 456.715C461.474 452.732 454.957 443.302 454.957 443.302ZM454.957 443.302L439.509 431.757C439.509 431.757 425.746 425.963 419.53 426.01C417.478 426.024 405.743 428.351 401.723 431.449C393.557 437.741 392.481 447.366 395.759 448.337C398.488 449.146 398.11 444.304 400.178 441.175C401.458 439.188 403.981 441.374 405.339 440.221C411.138 441.706 417.788 446.917 419.519 447.542C424.861 449.467 425.739 448.563 431.579 454.025C432.554 454.938 429.165 452.496 429.165 452.496L443.822 461.454C443.822 461.454 456.254 461.24 459.029 456.715C461.474 452.732 454.957 443.302 454.957 443.302ZM454.957 443.302L439.509 431.757C439.509 431.757 425.746 425.963 419.53 426.01C417.478 426.024 405.743 428.351 401.723 431.449C393.557 437.741 392.481 447.366 395.759 448.337C398.488 449.146 398.11 444.304 400.178 441.175C401.458 439.188 403.981 441.374 405.339 440.221C411.138 441.706 417.788 446.917 419.519 447.542C424.861 449.467 425.739 448.563 431.579 454.025C432.554 454.938 429.165 452.496 429.165 452.496L443.822 461.454C443.822 461.454 456.254 461.24 459.029 456.715C461.474 452.732 454.957 443.302 454.957 443.302Z" fill="#E3887A"/>
<path d="M535.359 384.956C524.775 395.419 494.074 443.827 485.631 445.458C476.946 447.139 465.163 439.233 455.521 441.883C445.879 444.533 435.837 452.995 437.916 458.629C439.994 464.267 462.107 479.71 489.974 481.203C513.837 482.482 565.62 424.267 565.62 424.267C566.187 401.287 535.359 384.956 535.359 384.956ZM535.359 384.956C524.775 395.419 494.074 443.827 485.631 445.458C476.946 447.139 465.163 439.233 455.521 441.883C445.879 444.533 435.837 452.995 437.916 458.629C439.994 464.267 462.107 479.71 489.974 481.203C513.837 482.482 565.62 424.267 565.62 424.267C566.187 401.287 535.359 384.956 535.359 384.956ZM535.359 384.956C524.775 395.419 494.074 443.827 485.631 445.458C476.946 447.139 465.163 439.233 455.521 441.883C445.879 444.533 435.837 452.995 437.916 458.629C439.994 464.267 462.107 479.71 489.974 481.203C513.837 482.482 565.62 424.267 565.62 424.267C566.187 401.287 535.359 384.956 535.359 384.956ZM535.359 384.956C524.775 395.419 494.074 443.827 485.631 445.458C476.946 447.139 465.163 439.233 455.521 441.883C445.879 444.533 435.837 452.995 437.916 458.629C439.994 464.267 462.107 479.71 489.974 481.203C513.837 482.482 565.62 424.267 565.62 424.267C566.187 401.287 535.359 384.956 535.359 384.956ZM535.359 384.956C524.775 395.419 494.074 443.827 485.631 445.458C476.946 447.139 465.163 439.233 455.521 441.883C445.879 444.533 435.837 452.995 437.916 458.629C439.994 464.267 462.107 479.71 489.974 481.203C513.837 482.482 565.62 424.267 565.62 424.267C566.187 401.287 535.359 384.956 535.359 384.956ZM535.359 384.956C524.775 395.419 494.074 443.827 485.631 445.458C476.946 447.139 465.163 439.233 455.521 441.883C445.879 444.533 435.837 452.995 437.916 458.629C439.994 464.267 462.107 479.71 489.974 481.203C513.837 482.482 565.62 424.267 565.62 424.267C566.187 401.287 535.359 384.956 535.359 384.956ZM535.359 384.956C524.775 395.419 494.074 443.827 485.631 445.458C476.946 447.139 465.163 439.233 455.521 441.883C445.879 444.533 435.837 452.995 437.916 458.629C439.994 464.267 462.107 479.71 489.974 481.203C513.837 482.482 565.62 424.267 565.62 424.267C566.187 401.287 535.359 384.956 535.359 384.956ZM535.359 384.956C524.775 395.419 494.074 443.827 485.631 445.458C476.946 447.139 465.163 439.233 455.521 441.883C445.879 444.533 435.837 452.995 437.916 458.629C439.994 464.267 462.107 479.71 489.974 481.203C513.837 482.482 565.62 424.267 565.62 424.267C566.187 401.287 535.359 384.956 535.359 384.956Z" fill="#7489B9"/>
<path d="M784.896 628.097H669.438C669.438 628.097 702.471 510.581 707.94 361.8C708.594 344.037 723.235 330.001 741.022 330.001H785.816C804.063 330.001 818.849 344.715 818.946 362.937C819.164 416.976 815.388 538.266 784.896 628.097ZM784.896 628.097H669.438C669.438 628.097 702.471 510.581 707.94 361.8C708.594 344.037 723.235 330.001 741.022 330.001H785.816C804.063 330.001 818.849 344.715 818.946 362.937C819.164 416.976 815.388 538.266 784.896 628.097ZM784.896 628.097H669.438C669.438 628.097 702.471 510.581 707.94 361.8C708.594 344.037 723.235 330.001 741.022 330.001H785.816C804.063 330.001 818.849 344.715 818.946 362.937C819.164 416.976 815.388 538.266 784.896 628.097ZM784.896 628.097H669.438C669.438 628.097 702.471 510.581 707.94 361.8C708.594 344.037 723.235 330.001 741.022 330.001H785.816C804.063 330.001 818.849 344.715 818.946 362.937C819.164 416.976 815.388 538.266 784.896 628.097ZM784.896 628.097H669.438C669.438 628.097 702.471 510.581 707.94 361.8C708.594 344.037 723.235 330.001 741.022 330.001H785.816C804.063 330.001 818.849 344.715 818.946 362.937C819.164 416.976 815.388 538.266 784.896 628.097ZM784.896 628.097H669.438C669.438 628.097 702.471 510.581 707.94 361.8C708.594 344.037 723.235 330.001 741.022 330.001H785.816C804.063 330.001 818.849 344.715 818.946 362.937C819.164 416.976 815.388 538.266 784.896 628.097ZM784.896 628.097H669.438C669.438 628.097 702.471 510.581 707.94 361.8C708.594 344.037 723.235 330.001 741.022 330.001H785.816C804.063 330.001 818.849 344.715 818.946 362.937C819.164 416.976 815.388 538.266 784.896 628.097ZM784.896 628.097H669.438C669.438 628.097 702.471 510.581 707.94 361.8C708.594 344.037 723.235 330.001 741.022 330.001H785.816C804.063 330.001 818.849 344.715 818.946 362.937C819.164 416.976 815.388 538.266 784.896 628.097Z" fill="#535A5D"/>
<path d="M544.462 625.348H782.372C785.058 625.348 787.241 627.526 787.241 630.214V634.624C787.241 637.31 785.058 639.49 782.372 639.49H544.462C541.773 639.49 539.593 637.31 539.593 634.624V630.214C539.593 627.526 541.773 625.348 544.462 625.348ZM544.462 625.348H782.372C785.058 625.348 787.241 627.526 787.241 630.214V634.624C787.241 637.31 785.058 639.49 782.372 639.49H544.462C541.773 639.49 539.593 637.31 539.593 634.624V630.214C539.593 627.526 541.773 625.348 544.462 625.348ZM544.462 625.348H782.372C785.058 625.348 787.241 627.526 787.241 630.214V634.624C787.241 637.31 785.058 639.49 782.372 639.49H544.462C541.773 639.49 539.593 637.31 539.593 634.624V630.214C539.593 627.526 541.773 625.348 544.462 625.348ZM544.462 625.348H782.372C785.058 625.348 787.241 627.526 787.241 630.214V634.624C787.241 637.31 785.058 639.49 782.372 639.49H544.462C541.773 639.49 539.593 637.31 539.593 634.624V630.214C539.593 627.526 541.773 625.348 544.462 625.348ZM544.462 625.348H782.372C785.058 625.348 787.241 627.526 787.241 630.214V634.624C787.241 637.31 785.058 639.49 782.372 639.49H544.462C541.773 639.49 539.593 637.31 539.593 634.624V630.214C539.593 627.526 541.773 625.348 544.462 625.348ZM544.462 625.348H782.372C785.058 625.348 787.241 627.526 787.241 630.214V634.624C787.241 637.31 785.058 639.49 782.372 639.49H544.462C541.773 639.49 539.593 637.31 539.593 634.624V630.214C539.593 627.526 541.773 625.348 544.462 625.348ZM544.462 625.348H782.372C785.058 625.348 787.241 627.526 787.241 630.214V634.624C787.241 637.31 785.058 639.49 782.372 639.49H544.462C541.773 639.49 539.593 637.31 539.593 634.624V630.214C539.593 627.526 541.773 625.348 544.462 625.348ZM544.462 625.348H782.372C785.058 625.348 787.241 627.526 787.241 630.214V634.624C787.241 637.31 785.058 639.49 782.372 639.49H544.462C541.773 639.49 539.593 637.31 539.593 634.624V630.214C539.593 627.526 541.773 625.348 544.462 625.348Z" fill="#A8ADAF"/>
</g>
</g>
<defs>
<clipPath id="clip0_17_2">
<rect width="1000" height="1000" fill="white"/>
</clipPath>
</defs>
</svg>
